<?xml version="1.0" encoding="UTF-8" standalone="no"?>
<!DOCTYPE svg PUBLIC "-//W3C//DTD SVG 1.1//EN"
 "http://www.w3.org/Graphics/SVG/1.1/DTD/svg11.dtd">
<!-- Generated by graphviz version 2.43.0 (0)
 -->
<!-- Title: packages Pages: 1 -->
<svg width="720pt" height="720pt"
 viewBox="0.00 0.00 720.00 720.00" xmlns="http://www.w3.org/2000/svg" xmlns:xlink="http://www.w3.org/1999/xlink">
<g id="graph0" class="graph" transform="scale(0.99 0.99) rotate(0) translate(4 724)">
<title>packages</title>
<polygon fill="white" stroke="transparent" points="-4,4 -4,-724 724,-724 724,4 -4,4"/>
<g id="clust1" class="cluster">
<title>cluster packages</title>
<polygon fill="none" stroke="#6b4949" points="9.86,-24.51 9.86,-695.49 710.14,-695.49 710.14,-24.51 9.86,-24.51"/>
<text text-anchor="middle" x="360" y="-680.29" font-family="Times,serif" font-size="14.00">packages</text>
</g>
<!-- i18n -->
<g id="node1" class="node">
<title>i18n</title>
<polygon fill="none" stroke="#d7afc5" points="79.58,-342.51 25.58,-342.51 25.58,-306.51 79.58,-306.51 79.58,-342.51"/>
<text text-anchor="middle" x="52.58" y="-320.81" font-family="Times,serif" font-size="14.00">i18n</text>
</g>
<!-- onepage -->
<g id="node2" class="node">
<title>onepage</title>
<polygon fill="none" stroke="#08802d" points="338.08,-563.51 261.08,-563.51 261.08,-527.51 338.08,-527.51 338.08,-563.51"/>
<text text-anchor="middle" x="299.58" y="-541.81" font-family="Times,serif" font-size="14.00">onepage</text>
</g>
<!-- onepage&#45;&gt;i18n -->
<g id="edge1" class="edge">
<title>onepage&#45;&gt;i18n</title>
<path fill="none" stroke="#d7afc5" d="M280.19,-527.33C236.37,-488.47 129.56,-393.77 79.41,-349.3"/>
<polygon fill="#d7afc5" stroke="#d7afc5" points="81.67,-346.63 71.87,-342.62 77.03,-351.87 81.67,-346.63"/>
</g>
<!-- provider_utils -->
<g id="node3" class="node">
<title>provider_utils</title>
<polygon fill="none" stroke="#f445c4" points="237.58,-342.51 121.58,-342.51 121.58,-306.51 237.58,-306.51 237.58,-342.51"/>
<text text-anchor="middle" x="179.58" y="-320.81" font-family="Times,serif" font-size="14.00">provider_utils</text>
</g>
<!-- onepage&#45;&gt;provider_utils -->
<g id="edge2" class="edge">
<title>onepage&#45;&gt;provider_utils</title>
<path fill="none" stroke="#f445c4" d="M290.16,-527.33C269.22,-489.11 218.68,-396.87 193.84,-351.54"/>
<polygon fill="#f445c4" stroke="#f445c4" points="196.82,-349.7 188.95,-342.62 190.68,-353.07 196.82,-349.7"/>
</g>
<!-- scroll_calendar -->
<g id="node4" class="node">
<title>scroll_calendar</title>
<polygon fill="none" stroke="#713e2e" points="661.58,-342.51 537.58,-342.51 537.58,-306.51 661.58,-306.51 661.58,-342.51"/>
<text text-anchor="middle" x="599.58" y="-320.81" font-family="Times,serif" font-size="14.00">scroll_calendar</text>
</g>
<!-- onepage&#45;&gt;scroll_calendar -->
<g id="edge3" class="edge">
<title>onepage&#45;&gt;scroll_calendar</title>
<path fill="none" stroke="#713e2e" d="M323.12,-527.33C376.57,-488.31 507.14,-392.99 567.73,-348.76"/>
<polygon fill="#713e2e" stroke="#713e2e" points="570.13,-351.34 576.14,-342.62 566,-345.68 570.13,-351.34"/>
</g>
<!-- theme -->
<g id="node5" class="node">
<title>theme</title>
<polygon fill="none" stroke="#1214e6" points="385.58,-122.51 323.58,-122.51 323.58,-86.51 385.58,-86.51 385.58,-122.51"/>
<text text-anchor="middle" x="354.58" y="-100.81" font-family="Times,serif" font-size="14.00">theme</text>
</g>
<!-- onepage&#45;&gt;theme -->
<g id="edge4" class="edge">
<title>onepage&#45;&gt;theme</title>
<path fill="none" stroke="#1214e6" d="M301.73,-527.3C310.15,-460.09 340.86,-214.98 351.17,-132.67"/>
<polygon fill="#1214e6" stroke="#1214e6" points="354.66,-132.96 352.43,-122.6 347.72,-132.09 354.66,-132.96"/>
</g>
<!-- update_requester -->
<g id="node6" class="node">
<title>update_requester</title>
<polygon fill="none" stroke="#a2aa60" points="483.08,-342.51 340.08,-342.51 340.08,-306.51 483.08,-306.51 483.08,-342.51"/>
<text text-anchor="middle" x="411.58" y="-320.81" font-family="Times,serif" font-size="14.00">update_requester</text>
</g>
<!-- onepage&#45;&gt;update_requester -->
<g id="edge5" class="edge">
<title>onepage&#45;&gt;update_requester</title>
<path fill="none" stroke="#a2aa60" d="M308.36,-527.33C327.91,-489.11 375.08,-396.87 398.26,-351.54"/>
<polygon fill="#a2aa60" stroke="#a2aa60" points="401.39,-353.11 402.83,-342.62 395.16,-349.92 401.39,-353.11"/>
</g>
<!-- utils -->
<g id="node7" class="node">
<title>utils</title>
<polygon fill="none" stroke="#f548cf" points="247.58,-122.51 193.58,-122.51 193.58,-86.51 247.58,-86.51 247.58,-122.51"/>
<text text-anchor="middle" x="220.58" y="-100.81" font-family="Times,serif" font-size="14.00">utils</text>
</g>
<!-- onepage&#45;&gt;utils -->
<g id="edge6" class="edge">
<title>onepage&#45;&gt;utils</title>
<path fill="none" stroke="#f548cf" d="M296.48,-527.3C284.38,-460.09 240.27,-214.98 225.46,-132.67"/>
<polygon fill="#f548cf" stroke="#f548cf" points="228.87,-131.82 223.65,-122.6 221.98,-133.06 228.87,-131.82"/>
</g>
<!-- widgets -->
<g id="node8" class="node">
<title>widgets</title>
<polygon fill="none" stroke="#3ed5a4" points="663.08,-122.51 590.08,-122.51 590.08,-86.51 663.08,-86.51 663.08,-122.51"/>
<text text-anchor="middle" x="626.58" y="-100.81" font-family="Times,serif" font-size="14.00">widgets</text>
</g>
<!-- onepage&#45;&gt;widgets -->
<g id="edge7" class="edge">
<title>onepage&#45;&gt;widgets</title>
<path fill="none" stroke="#3ed5a4" d="M338.15,-536.99C417.32,-519.25 596.87,-466.56 670.58,-342.51 711.07,-274.35 667.53,-177.28 642.16,-131.42"/>
<polygon fill="#3ed5a4" stroke="#3ed5a4" points="645.19,-129.66 637.21,-122.69 639.1,-133.12 645.19,-129.66"/>
</g>
<!-- provider_utils&#45;&gt;utils -->
<g id="edge8" class="edge">
<title>provider_utils&#45;&gt;utils</title>
<path fill="none" stroke="#f548cf" d="M182.79,-306.4C189.89,-268.68 206.93,-178.08 215.49,-132.56"/>
<polygon fill="#f548cf" stroke="#f548cf" points="218.96,-133.01 217.37,-122.54 212.08,-131.72 218.96,-133.01"/>
</g>
<!-- scroll_calendar&#45;&gt;widgets -->
<g id="edge9" class="edge">
<title>scroll_calendar&#45;&gt;widgets</title>
<path fill="none" stroke="#3ed5a4" d="M601.69,-306.4C606.37,-268.68 617.59,-178.08 623.22,-132.56"/>
<polygon fill="#3ed5a4" stroke="#3ed5a4" points="626.71,-132.89 624.47,-122.54 619.76,-132.03 626.71,-132.89"/>
</g>
<!-- update_requester&#45;&gt;theme -->
<g id="edge10" class="edge">
<title>update_requester&#45;&gt;theme</title>
<path fill="none" stroke="#1214e6" d="M407.1,-306.4C397.22,-268.6 373.45,-177.69 361.57,-132.28"/>
<polygon fill="#1214e6" stroke="#1214e6" points="364.94,-131.33 359.03,-122.54 358.17,-133.1 364.94,-131.33"/>
</g>
</g>
</svg>
