<?xml version="1.0" encoding="UTF-8" standalone="no"?>
<!DOCTYPE svg PUBLIC "-//W3C//DTD SVG 1.1//EN"
 "http://www.w3.org/Graphics/SVG/1.1/DTD/svg11.dtd">
<!-- Generated by graphviz version 2.43.0 (0)
 -->
<!-- Title: packages Pages: 1 -->
<svg width="720pt" height="720pt"
 viewBox="0.00 0.00 720.00 720.00" xmlns="http://www.w3.org/2000/svg" xmlns:xlink="http://www.w3.org/1999/xlink">
<g id="graph0" class="graph" transform="scale(0.99 0.99) rotate(0) translate(4 724)">
<title>packages</title>
<polygon fill="white" stroke="transparent" points="-4,4 -4,-724 724,-724 724,4 -4,4"/>
<g id="clust1" class="cluster">
<title>cluster packages</title>
<polygon fill="none" stroke="#6b4949" points="9.54,-24.51 9.54,-695.49 710.46,-695.49 710.46,-24.51 9.54,-24.51"/>
<text text-anchor="middle" x="360" y="-680.29" font-family="Times,serif" font-size="14.00">packages</text>
</g>
<!-- db_client -->
<g id="node1" class="node">
<title>db_client</title>
<polygon fill="none" stroke="#c4fbfc" points="580.87,-563.51 499.87,-563.51 499.87,-527.51 580.87,-527.51 580.87,-563.51"/>
<text text-anchor="middle" x="540.37" y="-541.81" font-family="Times,serif" font-size="14.00">db_client</text>
</g>
<!-- diary -->
<g id="node2" class="node">
<title>diary</title>
<polygon fill="none" stroke="#2c56bd" points="285.37,-342.51 231.37,-342.51 231.37,-306.51 285.37,-306.51 285.37,-342.51"/>
<text text-anchor="middle" x="258.37" y="-320.81" font-family="Times,serif" font-size="14.00">diary</text>
</g>
<!-- i18n -->
<g id="node3" class="node">
<title>i18n</title>
<polygon fill="none" stroke="#d7afc5" points="78.37,-122.51 24.37,-122.51 24.37,-86.51 78.37,-86.51 78.37,-122.51"/>
<text text-anchor="middle" x="51.37" y="-100.81" font-family="Times,serif" font-size="14.00">i18n</text>
</g>
<!-- diary&#45;&gt;i18n -->
<g id="edge1" class="edge">
<title>diary&#45;&gt;i18n</title>
<path fill="none" stroke="#d7afc5" d="M242.13,-306.4C205.62,-267.96 116.99,-174.62 74.64,-130.02"/>
<polygon fill="#d7afc5" stroke="#d7afc5" points="76.96,-127.38 67.54,-122.54 71.89,-132.2 76.96,-127.38"/>
</g>
<!-- theme -->
<g id="node7" class="node">
<title>theme</title>
<polygon fill="none" stroke="#1214e6" points="344.37,-122.51 282.37,-122.51 282.37,-86.51 344.37,-86.51 344.37,-122.51"/>
<text text-anchor="middle" x="313.37" y="-100.81" font-family="Times,serif" font-size="14.00">theme</text>
</g>
<!-- diary&#45;&gt;theme -->
<g id="edge2" class="edge">
<title>diary&#45;&gt;theme</title>
<path fill="none" stroke="#1214e6" d="M262.69,-306.4C272.23,-268.6 295.16,-177.69 306.62,-132.28"/>
<polygon fill="#1214e6" stroke="#1214e6" points="310.02,-133.09 309.08,-122.54 303.24,-131.38 310.02,-133.09"/>
</g>
<!-- utils -->
<g id="node9" class="node">
<title>utils</title>
<polygon fill="none" stroke="#f548cf" points="164.37,-122.51 110.37,-122.51 110.37,-86.51 164.37,-86.51 164.37,-122.51"/>
<text text-anchor="middle" x="137.37" y="-100.81" font-family="Times,serif" font-size="14.00">utils</text>
</g>
<!-- diary&#45;&gt;utils -->
<g id="edge3" class="edge">
<title>diary&#45;&gt;utils</title>
<path fill="none" stroke="#f548cf" d="M248.88,-306.4C227.76,-268.36 176.8,-176.54 151.75,-131.42"/>
<polygon fill="#f548cf" stroke="#f548cf" points="154.73,-129.58 146.82,-122.54 148.61,-132.98 154.73,-129.58"/>
</g>
<!-- onepage -->
<g id="node4" class="node">
<title>onepage</title>
<polygon fill="none" stroke="#08802d" points="324.87,-563.51 247.87,-563.51 247.87,-527.51 324.87,-527.51 324.87,-563.51"/>
<text text-anchor="middle" x="286.37" y="-541.81" font-family="Times,serif" font-size="14.00">onepage</text>
</g>
<!-- onepage&#45;&gt;diary -->
<g id="edge4" class="edge">
<title>onepage&#45;&gt;diary</title>
<path fill="none" stroke="#2c56bd" d="M284.17,-527.33C279.33,-489.43 267.69,-398.41 261.85,-352.69"/>
<polygon fill="#2c56bd" stroke="#2c56bd" points="265.3,-352.09 260.56,-342.62 258.35,-352.98 265.3,-352.09"/>
</g>
<!-- onepage&#45;&gt;i18n -->
<g id="edge5" class="edge">
<title>onepage&#45;&gt;i18n</title>
<path fill="none" stroke="#d7afc5" d="M253.72,-527.5C201.06,-498.01 99.07,-431.87 57.37,-342.51 24.82,-272.76 36.62,-178.45 45.35,-132.68"/>
<polygon fill="#d7afc5" stroke="#d7afc5" points="48.83,-133.13 47.37,-122.64 41.97,-131.76 48.83,-133.13"/>
</g>
<!-- provider_utils -->
<g id="node5" class="node">
<title>provider_utils</title>
<polygon fill="none" stroke="#f445c4" points="194.37,-342.51 78.37,-342.51 78.37,-306.51 194.37,-306.51 194.37,-342.51"/>
<text text-anchor="middle" x="136.37" y="-320.81" font-family="Times,serif" font-size="14.00">provider_utils</text>
</g>
<!-- onepage&#45;&gt;provider_utils -->
<g id="edge6" class="edge">
<title>onepage&#45;&gt;provider_utils</title>
<path fill="none" stroke="#f445c4" d="M274.6,-527.33C248.31,-488.95 184.72,-396.1 153.81,-350.97"/>
<polygon fill="#f445c4" stroke="#f445c4" points="156.62,-348.89 148.09,-342.62 150.85,-352.84 156.62,-348.89"/>
</g>
<!-- scroll_calendar -->
<g id="node6" class="node">
<title>scroll_calendar</title>
<polygon fill="none" stroke="#713e2e" points="665.37,-342.51 541.37,-342.51 541.37,-306.51 665.37,-306.51 665.37,-342.51"/>
<text text-anchor="middle" x="603.37" y="-320.81" font-family="Times,serif" font-size="14.00">scroll_calendar</text>
</g>
<!-- onepage&#45;&gt;scroll_calendar -->
<g id="edge7" class="edge">
<title>onepage&#45;&gt;scroll_calendar</title>
<path fill="none" stroke="#713e2e" d="M310.98,-527.51C367.39,-488.54 506.06,-392.74 570.04,-348.54"/>
<polygon fill="#713e2e" stroke="#713e2e" points="572.32,-351.22 578.56,-342.65 568.34,-345.46 572.32,-351.22"/>
</g>
<!-- onepage&#45;&gt;theme -->
<g id="edge8" class="edge">
<title>onepage&#45;&gt;theme</title>
<path fill="none" stroke="#1214e6" d="M287.43,-527.3C291.56,-460.09 306.64,-214.98 311.7,-132.67"/>
<polygon fill="#1214e6" stroke="#1214e6" points="315.2,-132.8 312.32,-122.6 308.21,-132.37 315.2,-132.8"/>
</g>
<!-- update_requester -->
<g id="node8" class="node">
<title>update_requester</title>
<polygon fill="none" stroke="#a2aa60" points="493.87,-342.51 350.87,-342.51 350.87,-306.51 493.87,-306.51 493.87,-342.51"/>
<text text-anchor="middle" x="422.37" y="-320.81" font-family="Times,serif" font-size="14.00">update_requester</text>
</g>
<!-- onepage&#45;&gt;update_requester -->
<g id="edge9" class="edge">
<title>onepage&#45;&gt;update_requester</title>
<path fill="none" stroke="#a2aa60" d="M297.04,-527.33C320.83,-489.03 378.3,-396.48 406.38,-351.26"/>
<polygon fill="#a2aa60" stroke="#a2aa60" points="409.45,-352.96 411.75,-342.62 403.5,-349.26 409.45,-352.96"/>
</g>
<!-- onepage&#45;&gt;utils -->
<g id="edge10" class="edge">
<title>onepage&#45;&gt;utils</title>
<path fill="none" stroke="#f548cf" d="M255.55,-527.39C205.34,-497.51 107.69,-430.52 69.37,-342.51 37.24,-268.71 89,-175.45 118.75,-131.14"/>
<polygon fill="#f548cf" stroke="#f548cf" points="121.77,-132.93 124.55,-122.7 116,-128.96 121.77,-132.93"/>
</g>
<!-- widgets -->
<g id="node10" class="node">
<title>widgets</title>
<polygon fill="none" stroke="#3ed5a4" points="665.87,-122.51 592.87,-122.51 592.87,-86.51 665.87,-86.51 665.87,-122.51"/>
<text text-anchor="middle" x="629.37" y="-100.81" font-family="Times,serif" font-size="14.00">widgets</text>
</g>
<!-- onepage&#45;&gt;widgets -->
<g id="edge11" class="edge">
<title>onepage&#45;&gt;widgets</title>
<path fill="none" stroke="#3ed5a4" d="M325.08,-537.9C406.92,-521.6 596.37,-471.06 674.37,-342.51 715.53,-274.68 671.13,-177.45 645.26,-131.48"/>
<polygon fill="#3ed5a4" stroke="#3ed5a4" points="648.24,-129.65 640.21,-122.74 642.18,-133.15 648.24,-129.65"/>
</g>
<!-- provider_utils&#45;&gt;utils -->
<g id="edge12" class="edge">
<title>provider_utils&#45;&gt;utils</title>
<path fill="none" stroke="#f548cf" d="M136.45,-306.4C136.62,-268.68 137.04,-178.08 137.25,-132.56"/>
<polygon fill="#f548cf" stroke="#f548cf" points="140.75,-132.55 137.29,-122.54 133.75,-132.52 140.75,-132.55"/>
</g>
<!-- scroll_calendar&#45;&gt;widgets -->
<g id="edge13" class="edge">
<title>scroll_calendar&#45;&gt;widgets</title>
<path fill="none" stroke="#3ed5a4" d="M605.41,-306.4C609.91,-268.68 620.72,-178.08 626.14,-132.56"/>
<polygon fill="#3ed5a4" stroke="#3ed5a4" points="629.63,-132.88 627.34,-122.54 622.68,-132.05 629.63,-132.88"/>
</g>
<!-- update_requester&#45;&gt;theme -->
<g id="edge14" class="edge">
<title>update_requester&#45;&gt;theme</title>
<path fill="none" stroke="#1214e6" d="M413.82,-306.4C394.83,-268.44 349.08,-176.93 326.47,-131.7"/>
<polygon fill="#1214e6" stroke="#1214e6" points="329.49,-129.92 321.88,-122.54 323.23,-133.05 329.49,-129.92"/>
</g>
</g>
</svg>
