<?xml version="1.0" encoding="UTF-8" standalone="no"?>
<!DOCTYPE svg PUBLIC "-//W3C//DTD SVG 1.1//EN"
 "http://www.w3.org/Graphics/SVG/1.1/DTD/svg11.dtd">
<!-- Generated by graphviz version 2.43.0 (0)
 -->
<!-- Title: packages Pages: 1 -->
<svg width="720pt" height="700pt"
 viewBox="0.00 0.00 720.00 699.85" xmlns="http://www.w3.org/2000/svg" xmlns:xlink="http://www.w3.org/1999/xlink">
<g id="graph0" class="graph" transform="scale(0.83 0.83) rotate(0) translate(4 841)">
<title>packages</title>
<polygon fill="white" stroke="transparent" points="-4,4 -4,-841 865.32,-841 865.32,4 -4,4"/>
<g id="clust1" class="cluster">
<title>cluster packages/features</title>
<polygon fill="none" stroke="#f62736" points="283,-414.68 283,-605.49 829,-605.49 829,-414.68 283,-414.68"/>
<text text-anchor="middle" x="556" y="-590.29" font-family="Times,serif" font-size="14.00">packages/features</text>
</g>
<g id="clust2" class="cluster">
<title>cluster packages/core</title>
<polygon fill="none" stroke="#7bbd47" points="8,-20.35 8,-394.33 602,-394.33 602,-20.35 8,-20.35"/>
<text text-anchor="middle" x="305" y="-379.13" font-family="Times,serif" font-size="14.00">packages/core</text>
</g>
<g id="clust3" class="cluster">
<title>cluster packages</title>
<polygon fill="none" stroke="#6b4949" points="261,-625.84 261,-816.65 355,-816.65 355,-625.84 261,-625.84"/>
<text text-anchor="middle" x="308" y="-801.45" font-family="Times,serif" font-size="14.00">packages</text>
</g>
<!-- backup -->
<g id="node1" class="node">
<title>backup</title>
<polygon fill="none" stroke="#022013" points="587,-498.35 519,-498.35 519,-462.35 587,-462.35 587,-498.35"/>
<text text-anchor="middle" x="553" y="-476.65" font-family="Times,serif" font-size="14.00">backup</text>
</g>
<!-- db_client -->
<g id="node2" class="node">
<title>db_client</title>
<polygon fill="none" stroke="#c4fbfc" points="593.5,-287.35 512.5,-287.35 512.5,-251.35 593.5,-251.35 593.5,-287.35"/>
<text text-anchor="middle" x="553" y="-265.65" font-family="Times,serif" font-size="14.00">db_client</text>
</g>
<!-- backup&#45;&gt;db_client -->
<g id="edge1" class="edge">
<title>backup&#45;&gt;db_client</title>
<path fill="none" stroke="#c4fbfc" d="M553,-462.25C553,-426.03 553,-341.34 553,-297.59"/>
<polygon fill="#c4fbfc" stroke="#c4fbfc" points="556.5,-297.4 553,-287.4 549.5,-297.4 556.5,-297.4"/>
</g>
<!-- diary -->
<g id="node3" class="node">
<title>diary</title>
<polygon fill="none" stroke="#2c56bd" points="659,-498.35 605,-498.35 605,-462.35 659,-462.35 659,-498.35"/>
<text text-anchor="middle" x="632" y="-476.65" font-family="Times,serif" font-size="14.00">diary</text>
</g>
<!-- diary&#45;&gt;db_client -->
<g id="edge2" class="edge">
<title>diary&#45;&gt;db_client</title>
<path fill="none" stroke="#c4fbfc" d="M625.54,-462.25C611.76,-425.8 579.42,-340.26 562.98,-296.76"/>
<polygon fill="#c4fbfc" stroke="#c4fbfc" points="566.25,-295.52 559.44,-287.4 559.71,-297.99 566.25,-295.52"/>
</g>
<!-- utils -->
<g id="node12" class="node">
<title>utils</title>
<polygon fill="none" stroke="#f548cf" points="480,-104.35 426,-104.35 426,-68.35 480,-68.35 480,-104.35"/>
<text text-anchor="middle" x="453" y="-82.65" font-family="Times,serif" font-size="14.00">utils</text>
</g>
<!-- diary&#45;&gt;utils -->
<g id="edge3" class="edge">
<title>diary&#45;&gt;utils</title>
<path fill="none" stroke="#f548cf" d="M633.24,-462.09C635.37,-422.69 636.62,-323.95 603,-251.35 575.68,-192.36 519.34,-139.98 484.02,-111.06"/>
<polygon fill="#f548cf" stroke="#f548cf" points="485.94,-108.11 475.96,-104.57 481.55,-113.56 485.94,-108.11"/>
</g>
<!-- haptics -->
<g id="node4" class="node">
<title>haptics</title>
<polygon fill="none" stroke="#26343c" points="501,-498.35 433,-498.35 433,-462.35 501,-462.35 501,-498.35"/>
<text text-anchor="middle" x="467" y="-476.65" font-family="Times,serif" font-size="14.00">haptics</text>
</g>
<!-- prefs_client -->
<g id="node7" class="node">
<title>prefs_client</title>
<polygon fill="none" stroke="#080f51" points="494,-287.35 394,-287.35 394,-251.35 494,-251.35 494,-287.35"/>
<text text-anchor="middle" x="444" y="-265.65" font-family="Times,serif" font-size="14.00">prefs_client</text>
</g>
<!-- haptics&#45;&gt;prefs_client -->
<g id="edge4" class="edge">
<title>haptics&#45;&gt;prefs_client</title>
<path fill="none" stroke="#080f51" d="M465.12,-462.25C461.13,-426.03 451.81,-341.34 447,-297.59"/>
<polygon fill="#080f51" stroke="#080f51" points="450.45,-296.96 445.88,-287.4 443.49,-297.72 450.45,-296.96"/>
</g>
<!-- i18n -->
<g id="node5" class="node">
<title>i18n</title>
<polygon fill="none" stroke="#d7afc5" points="70,-287.35 16,-287.35 16,-251.35 70,-251.35 70,-287.35"/>
<text text-anchor="middle" x="43" y="-265.65" font-family="Times,serif" font-size="14.00">i18n</text>
</g>
<!-- onepage -->
<g id="node6" class="node">
<title>onepage</title>
<polygon fill="none" stroke="#08802d" points="346.5,-710.35 269.5,-710.35 269.5,-674.35 346.5,-674.35 346.5,-710.35"/>
<text text-anchor="middle" x="308" y="-688.65" font-family="Times,serif" font-size="14.00">onepage</text>
</g>
<!-- onepage&#45;&gt;backup -->
<g id="edge5" class="edge">
<title>onepage&#45;&gt;backup</title>
<path fill="none" stroke="#022013" d="M331.74,-674.31C370.59,-645.99 449.45,-586.69 510,-529.35 517.52,-522.23 525.22,-513.99 531.99,-506.37"/>
<polygon fill="#022013" stroke="#022013" points="534.98,-508.26 538.92,-498.42 529.71,-503.66 534.98,-508.26"/>
</g>
<!-- onepage&#45;&gt;db_client -->
<g id="edge6" class="edge">
<title>onepage&#45;&gt;db_client</title>
<path fill="none" stroke="#c4fbfc" d="M299.34,-674.21C279.94,-633.22 237.83,-527.51 279,-454.35 336.12,-352.85 410.66,-389.33 503,-318.35 512.02,-311.42 521.19,-303.07 529.17,-295.29"/>
<polygon fill="#c4fbfc" stroke="#c4fbfc" points="532.1,-297.31 536.71,-287.77 527.16,-292.35 532.1,-297.31"/>
</g>
<!-- onepage&#45;&gt;diary -->
<g id="edge7" class="edge">
<title>onepage&#45;&gt;diary</title>
<path fill="none" stroke="#2c56bd" d="M346.6,-675.82C405.05,-651.03 517.49,-598.19 596,-529.35 603.21,-523.03 609.88,-515.06 615.48,-507.43"/>
<polygon fill="#2c56bd" stroke="#2c56bd" points="618.68,-508.97 621.52,-498.76 612.93,-504.96 618.68,-508.97"/>
</g>
<!-- onepage&#45;&gt;haptics -->
<g id="edge8" class="edge">
<title>onepage&#45;&gt;haptics</title>
<path fill="none" stroke="#26343c" d="M321.01,-674.17C349.03,-637.16 415.19,-549.78 447.95,-506.52"/>
<polygon fill="#26343c" stroke="#26343c" points="450.79,-508.57 454.03,-498.48 445.2,-504.34 450.79,-508.57"/>
</g>
<!-- onepage&#45;&gt;i18n -->
<g id="edge9" class="edge">
<title>onepage&#45;&gt;i18n</title>
<path fill="none" stroke="#d7afc5" d="M289.58,-674.34C260.01,-646.31 201.38,-587.69 163,-529.35 111.12,-450.51 70.02,-345.63 52.37,-297.09"/>
<polygon fill="#d7afc5" stroke="#d7afc5" points="55.64,-295.84 48.96,-287.62 49.05,-298.21 55.64,-295.84"/>
</g>
<!-- onepage&#45;&gt;prefs_client -->
<g id="edge10" class="edge">
<title>onepage&#45;&gt;prefs_client</title>
<path fill="none" stroke="#080f51" d="M296.33,-674.07C270.87,-634.08 215.25,-532.61 249,-454.35 257.9,-433.71 364.39,-339.46 416.13,-294.44"/>
<polygon fill="#080f51" stroke="#080f51" points="418.69,-296.85 423.94,-287.65 414.1,-291.57 418.69,-296.85"/>
</g>
<!-- provider_utils -->
<g id="node8" class="node">
<title>provider_utils</title>
<polygon fill="none" stroke="#f445c4" points="204,-287.35 88,-287.35 88,-251.35 204,-251.35 204,-287.35"/>
<text text-anchor="middle" x="146" y="-265.65" font-family="Times,serif" font-size="14.00">provider_utils</text>
</g>
<!-- onepage&#45;&gt;provider_utils -->
<g id="edge11" class="edge">
<title>onepage&#45;&gt;provider_utils</title>
<path fill="none" stroke="#f445c4" d="M290.98,-674.16C264.51,-646.32 213.95,-588.52 189,-529.35 155.41,-449.7 147.99,-345.91 146.4,-297.47"/>
<polygon fill="#f445c4" stroke="#f445c4" points="149.9,-297.37 146.13,-287.46 142.9,-297.56 149.9,-297.37"/>
</g>
<!-- scroll_calendar -->
<g id="node9" class="node">
<title>scroll_calendar</title>
<polygon fill="none" stroke="#713e2e" points="415,-498.35 291,-498.35 291,-462.35 415,-462.35 415,-498.35"/>
<text text-anchor="middle" x="353" y="-476.65" font-family="Times,serif" font-size="14.00">scroll_calendar</text>
</g>
<!-- onepage&#45;&gt;scroll_calendar -->
<g id="edge12" class="edge">
<title>onepage&#45;&gt;scroll_calendar</title>
<path fill="none" stroke="#713e2e" d="M311.68,-674.17C319.5,-637.7 337.79,-552.31 347.2,-508.44"/>
<polygon fill="#713e2e" stroke="#713e2e" points="350.66,-508.99 349.33,-498.48 343.81,-507.53 350.66,-508.99"/>
</g>
<!-- theme -->
<g id="node10" class="node">
<title>theme</title>
<polygon fill="none" stroke="#1214e6" points="284,-287.35 222,-287.35 222,-251.35 284,-251.35 284,-287.35"/>
<text text-anchor="middle" x="253" y="-265.65" font-family="Times,serif" font-size="14.00">theme</text>
</g>
<!-- onepage&#45;&gt;theme -->
<g id="edge13" class="edge">
<title>onepage&#45;&gt;theme</title>
<path fill="none" stroke="#1214e6" d="M291.6,-674.21C266.31,-646.45 218.84,-588.75 201,-529.35 175.99,-446.11 216.51,-344.17 239.24,-296.84"/>
<polygon fill="#1214e6" stroke="#1214e6" points="242.52,-298.11 243.79,-287.59 236.24,-295.02 242.52,-298.11"/>
</g>
<!-- update_requester -->
<g id="node11" class="node">
<title>update_requester</title>
<polygon fill="none" stroke="#a2aa60" points="820.5,-498.35 677.5,-498.35 677.5,-462.35 820.5,-462.35 820.5,-498.35"/>
<text text-anchor="middle" x="749" y="-476.65" font-family="Times,serif" font-size="14.00">update_requester</text>
</g>
<!-- onepage&#45;&gt;update_requester -->
<g id="edge14" class="edge">
<title>onepage&#45;&gt;update_requester</title>
<path fill="none" stroke="#a2aa60" d="M346.5,-675.7C413.1,-648.26 553.65,-588.73 668,-529.35 682.99,-521.57 699.09,-512.24 712.94,-503.89"/>
<polygon fill="#a2aa60" stroke="#a2aa60" points="714.97,-506.76 721.69,-498.57 711.33,-500.78 714.97,-506.76"/>
</g>
<!-- onepage&#45;&gt;utils -->
<g id="edge15" class="edge">
<title>onepage&#45;&gt;utils</title>
<path fill="none" stroke="#f548cf" d="M346.6,-685.41C457.6,-667.46 773.46,-610.04 833,-529.35 962.02,-354.52 607.3,-162.03 489.53,-104.49"/>
<polygon fill="#f548cf" stroke="#f548cf" points="490.7,-101.17 480.18,-99.96 487.65,-107.47 490.7,-101.17"/>
</g>
<!-- widgets -->
<g id="node13" class="node">
<title>widgets</title>
<polygon fill="none" stroke="#3ed5a4" points="375.5,-287.35 302.5,-287.35 302.5,-251.35 375.5,-251.35 375.5,-287.35"/>
<text text-anchor="middle" x="339" y="-265.65" font-family="Times,serif" font-size="14.00">widgets</text>
</g>
<!-- onepage&#45;&gt;widgets -->
<g id="edge16" class="edge">
<title>onepage&#45;&gt;widgets</title>
<path fill="none" stroke="#3ed5a4" d="M292.03,-674.18C258.19,-635.64 184.46,-538.98 211,-454.35 231.27,-389.73 283.14,-327.93 314.28,-294.98"/>
<polygon fill="#3ed5a4" stroke="#3ed5a4" points="316.94,-297.26 321.34,-287.63 311.89,-292.42 316.94,-297.26"/>
</g>
<!-- provider_utils&#45;&gt;utils -->
<g id="edge17" class="edge">
<title>provider_utils&#45;&gt;utils</title>
<path fill="none" stroke="#f548cf" d="M174.88,-251.32C231.1,-218.18 355.13,-145.06 416.76,-108.72"/>
<polygon fill="#f548cf" stroke="#f548cf" points="418.91,-111.52 425.74,-103.42 415.35,-105.49 418.91,-111.52"/>
</g>
<!-- widgets&#45;&gt;utils -->
<g id="edge18" class="edge">
<title>widgets&#45;&gt;utils</title>
<path fill="none" stroke="#f548cf" d="M349.72,-251.32C369.75,-219.52 412.96,-150.93 436.65,-113.32"/>
<polygon fill="#f548cf" stroke="#f548cf" points="439.85,-114.79 442.22,-104.47 433.93,-111.06 439.85,-114.79"/>
</g>
</g>
</svg>
