<?xml version="1.0" encoding="UTF-8" standalone="no"?>
<!DOCTYPE svg PUBLIC "-//W3C//DTD SVG 1.1//EN"
 "http://www.w3.org/Graphics/SVG/1.1/DTD/svg11.dtd">
<!-- Generated by graphviz version 2.43.0 (0)
 -->
<!-- Title: packages Pages: 1 -->
<svg width="720pt" height="678pt"
 viewBox="0.00 0.00 720.00 678.06" xmlns="http://www.w3.org/2000/svg" xmlns:xlink="http://www.w3.org/1999/xlink">
<g id="graph0" class="graph" transform="scale(0.83 0.83) rotate(0) translate(4 815)">
<title>packages</title>
<polygon fill="white" stroke="transparent" points="-4,4 -4,-815 865.66,-815 865.66,4 -4,4"/>
<g id="clust1" class="cluster">
<title>cluster packages/features</title>
<polygon fill="none" stroke="#f62736" points="257,-401.8 257,-586.68 803,-586.68 803,-401.8 257,-401.8"/>
<text text-anchor="middle" x="530" y="-571.48" font-family="Times,serif" font-size="14.00">packages/features</text>
</g>
<g id="clust2" class="cluster">
<title>cluster packages/core</title>
<polygon fill="none" stroke="#7bbd47" points="8,-19.72 8,-382.08 646,-382.08 646,-19.72 8,-19.72"/>
<text text-anchor="middle" x="327" y="-366.88" font-family="Times,serif" font-size="14.00">packages/core</text>
</g>
<g id="clust3" class="cluster">
<title>cluster packages</title>
<polygon fill="none" stroke="#6b4949" points="290,-606.4 290,-791.28 384,-791.28 384,-606.4 290,-606.4"/>
<text text-anchor="middle" x="337" y="-776.08" font-family="Times,serif" font-size="14.00">packages</text>
</g>
<!-- backup -->
<g id="node1" class="node">
<title>backup</title>
<polygon fill="none" stroke="#022013" points="637,-483.72 569,-483.72 569,-447.72 637,-447.72 637,-483.72"/>
<text text-anchor="middle" x="603" y="-462.02" font-family="Times,serif" font-size="14.00">backup</text>
</g>
<!-- db_client -->
<g id="node2" class="node">
<title>db_client</title>
<polygon fill="none" stroke="#c4fbfc" points="637.5,-279.72 556.5,-279.72 556.5,-243.72 637.5,-243.72 637.5,-279.72"/>
<text text-anchor="middle" x="597" y="-258.02" font-family="Times,serif" font-size="14.00">db_client</text>
</g>
<!-- backup&#45;&gt;db_client -->
<g id="edge1" class="edge">
<title>backup&#45;&gt;db_client</title>
<path fill="none" stroke="#c4fbfc" d="M602.49,-447.5C601.45,-412.39 599.07,-332.31 597.81,-290.03"/>
<polygon fill="#c4fbfc" stroke="#c4fbfc" points="601.31,-289.79 597.51,-279.9 594.31,-290 601.31,-289.79"/>
</g>
<!-- diary -->
<g id="node3" class="node">
<title>diary</title>
<polygon fill="none" stroke="#2c56bd" points="709,-483.72 655,-483.72 655,-447.72 709,-447.72 709,-483.72"/>
<text text-anchor="middle" x="682" y="-462.02" font-family="Times,serif" font-size="14.00">diary</text>
</g>
<!-- diary&#45;&gt;db_client -->
<g id="edge2" class="edge">
<title>diary&#45;&gt;db_client</title>
<path fill="none" stroke="#c4fbfc" d="M674.75,-447.5C659.89,-412.17 625.85,-331.28 608.15,-289.22"/>
<polygon fill="#c4fbfc" stroke="#c4fbfc" points="611.33,-287.76 604.23,-279.9 604.88,-290.47 611.33,-287.76"/>
</g>
<!-- utils -->
<g id="node13" class="node">
<title>utils</title>
<polygon fill="none" stroke="#f548cf" points="392,-101.72 338,-101.72 338,-65.72 392,-65.72 392,-101.72"/>
<text text-anchor="middle" x="365" y="-80.02" font-family="Times,serif" font-size="14.00">utils</text>
</g>
<!-- diary&#45;&gt;utils -->
<g id="edge3" class="edge">
<title>diary&#45;&gt;utils</title>
<path fill="none" stroke="#f548cf" d="M683.99,-447.68C687.7,-408.01 691.66,-308 647,-243.72 586.85,-157.15 463.47,-112.08 401.79,-94.17"/>
<polygon fill="#f548cf" stroke="#f548cf" points="402.66,-90.78 392.09,-91.43 400.76,-97.52 402.66,-90.78"/>
</g>
<!-- haptics -->
<g id="node4" class="node">
<title>haptics</title>
<polygon fill="none" stroke="#26343c" points="795,-483.72 727,-483.72 727,-447.72 795,-447.72 795,-483.72"/>
<text text-anchor="middle" x="761" y="-462.02" font-family="Times,serif" font-size="14.00">haptics</text>
</g>
<!-- prefs_client -->
<g id="node8" class="node">
<title>prefs_client</title>
<polygon fill="none" stroke="#080f51" points="638,-101.72 538,-101.72 538,-65.72 638,-65.72 638,-101.72"/>
<text text-anchor="middle" x="588" y="-80.02" font-family="Times,serif" font-size="14.00">prefs_client</text>
</g>
<!-- haptics&#45;&gt;prefs_client -->
<g id="edge4" class="edge">
<title>haptics&#45;&gt;prefs_client</title>
<path fill="none" stroke="#080f51" d="M756.85,-447.55C747.37,-409.66 722.27,-316.46 688,-243.72 664.6,-194.05 628.72,-140.93 606.9,-110.39"/>
<polygon fill="#080f51" stroke="#080f51" points="609.56,-108.1 600.88,-102.03 603.88,-112.19 609.56,-108.1"/>
</g>
<!-- i18n -->
<g id="node5" class="node">
<title>i18n</title>
<polygon fill="none" stroke="#d7afc5" points="162,-279.72 108,-279.72 108,-243.72 162,-243.72 162,-279.72"/>
<text text-anchor="middle" x="135" y="-258.02" font-family="Times,serif" font-size="14.00">i18n</text>
</g>
<!-- notification_client -->
<g id="node6" class="node">
<title>notification_client</title>
<polygon fill="none" stroke="#4d6b02" points="457.5,-279.72 314.5,-279.72 314.5,-243.72 457.5,-243.72 457.5,-279.72"/>
<text text-anchor="middle" x="386" y="-258.02" font-family="Times,serif" font-size="14.00">notification_client</text>
</g>
<!-- notification_client&#45;&gt;prefs_client -->
<g id="edge5" class="edge">
<title>notification_client&#45;&gt;prefs_client</title>
<path fill="none" stroke="#080f51" d="M405.74,-243.52C442.03,-211.9 519.44,-144.46 560.73,-108.48"/>
<polygon fill="#080f51" stroke="#080f51" points="563.24,-110.94 568.48,-101.73 558.64,-105.66 563.24,-110.94"/>
</g>
<!-- onepage -->
<g id="node7" class="node">
<title>onepage</title>
<polygon fill="none" stroke="#08802d" points="375.5,-688.72 298.5,-688.72 298.5,-652.72 375.5,-652.72 375.5,-688.72"/>
<text text-anchor="middle" x="337" y="-667.02" font-family="Times,serif" font-size="14.00">onepage</text>
</g>
<!-- onepage&#45;&gt;backup -->
<g id="edge6" class="edge">
<title>onepage&#45;&gt;backup</title>
<path fill="none" stroke="#022013" d="M366.01,-652.6C410.12,-625.92 495.71,-571.55 560,-514.72 567.76,-507.86 575.52,-499.69 582.28,-492.05"/>
<polygon fill="#022013" stroke="#022013" points="585.29,-493.92 589.17,-484.06 579.99,-489.35 585.29,-493.92"/>
</g>
<!-- onepage&#45;&gt;db_client -->
<g id="edge7" class="edge">
<title>onepage&#45;&gt;db_client</title>
<path fill="none" stroke="#c4fbfc" d="M320.83,-652.64C285.1,-612.75 206.15,-511.43 253,-439.72 331.04,-320.26 428.37,-390.02 547,-310.72 556.96,-304.06 566.73,-295.33 574.96,-287.14"/>
<polygon fill="#c4fbfc" stroke="#c4fbfc" points="577.58,-289.45 582.04,-279.84 572.56,-284.58 577.58,-289.45"/>
</g>
<!-- onepage&#45;&gt;diary -->
<g id="edge8" class="edge">
<title>onepage&#45;&gt;diary</title>
<path fill="none" stroke="#2c56bd" d="M375.71,-656.91C437.71,-635.03 560.92,-585.82 646,-514.72 653.63,-508.34 660.58,-500.05 666.29,-492.15"/>
<polygon fill="#2c56bd" stroke="#2c56bd" points="669.21,-494.08 671.97,-483.85 663.44,-490.12 669.21,-494.08"/>
</g>
<!-- onepage&#45;&gt;haptics -->
<g id="edge9" class="edge">
<title>onepage&#45;&gt;haptics</title>
<path fill="none" stroke="#26343c" d="M375.51,-660.3C447.63,-641.37 605.88,-593.64 718,-514.72 726.92,-508.44 735.28,-499.98 742.22,-491.92"/>
<polygon fill="#26343c" stroke="#26343c" points="745.01,-494.03 748.65,-484.07 739.6,-489.59 745.01,-494.03"/>
</g>
<!-- onepage&#45;&gt;i18n -->
<g id="edge10" class="edge">
<title>onepage&#45;&gt;i18n</title>
<path fill="none" stroke="#d7afc5" d="M304.37,-652.55C261.86,-628.22 189.07,-579.36 156,-514.72 118.08,-440.6 124.82,-337.99 130.86,-289.79"/>
<polygon fill="#d7afc5" stroke="#d7afc5" points="134.34,-290.2 132.2,-279.82 127.4,-289.26 134.34,-290.2"/>
</g>
<!-- onepage&#45;&gt;notification_client -->
<g id="edge11" class="edge">
<title>onepage&#45;&gt;notification_client</title>
<path fill="none" stroke="#4d6b02" d="M310.72,-652.67C257.68,-615.98 146.08,-525.86 185,-439.72 202.86,-400.18 301.49,-324.24 353.64,-285.97"/>
<polygon fill="#4d6b02" stroke="#4d6b02" points="355.88,-288.66 361.9,-279.94 351.76,-283.01 355.88,-288.66"/>
</g>
<!-- onepage&#45;&gt;prefs_client -->
<g id="edge12" class="edge">
<title>onepage&#45;&gt;prefs_client</title>
<path fill="none" stroke="#080f51" d="M375.83,-663.59C482.9,-645.84 778.1,-590.71 834,-514.72 940.77,-369.58 708.06,-174.03 619.98,-107.77"/>
<polygon fill="#080f51" stroke="#080f51" points="622.03,-104.93 611.92,-101.77 617.85,-110.55 622.03,-104.93"/>
</g>
<!-- provider_utils -->
<g id="node9" class="node">
<title>provider_utils</title>
<polygon fill="none" stroke="#f445c4" points="296,-279.72 180,-279.72 180,-243.72 296,-243.72 296,-279.72"/>
<text text-anchor="middle" x="238" y="-258.02" font-family="Times,serif" font-size="14.00">provider_utils</text>
</g>
<!-- onepage&#45;&gt;provider_utils -->
<g id="edge13" class="edge">
<title>onepage&#45;&gt;provider_utils</title>
<path fill="none" stroke="#f445c4" d="M307.11,-652.58C267.54,-627.94 199.54,-578.39 172,-514.72 137.82,-435.73 190.94,-334.91 220.44,-288.38"/>
<polygon fill="#f445c4" stroke="#f445c4" points="223.49,-290.11 226,-279.82 217.62,-286.3 223.49,-290.11"/>
</g>
<!-- scroll_calendar -->
<g id="node10" class="node">
<title>scroll_calendar</title>
<polygon fill="none" stroke="#713e2e" points="551,-483.72 427,-483.72 427,-447.72 551,-447.72 551,-483.72"/>
<text text-anchor="middle" x="489" y="-462.02" font-family="Times,serif" font-size="14.00">scroll_calendar</text>
</g>
<!-- onepage&#45;&gt;scroll_calendar -->
<g id="edge14" class="edge">
<title>onepage&#45;&gt;scroll_calendar</title>
<path fill="none" stroke="#713e2e" d="M349.96,-652.41C376.83,-616.53 438.7,-533.9 470.05,-492.03"/>
<polygon fill="#713e2e" stroke="#713e2e" points="472.88,-494.09 476.07,-483.98 467.28,-489.89 472.88,-494.09"/>
</g>
<!-- theme -->
<g id="node11" class="node">
<title>theme</title>
<polygon fill="none" stroke="#1214e6" points="538,-279.72 476,-279.72 476,-243.72 538,-243.72 538,-279.72"/>
<text text-anchor="middle" x="507" y="-258.02" font-family="Times,serif" font-size="14.00">theme</text>
</g>
<!-- onepage&#45;&gt;theme -->
<g id="edge15" class="edge">
<title>onepage&#45;&gt;theme</title>
<path fill="none" stroke="#1214e6" d="M316.42,-652.48C272.46,-613.5 177,-516.07 223,-439.72 286.3,-334.65 371.71,-387.97 467,-310.72 474.92,-304.3 482.42,-296.12 488.73,-288.34"/>
<polygon fill="#1214e6" stroke="#1214e6" points="491.72,-290.21 495.09,-280.16 486.19,-285.91 491.72,-290.21"/>
</g>
<!-- update_requester -->
<g id="node12" class="node">
<title>update_requester</title>
<polygon fill="none" stroke="#a2aa60" points="408.5,-483.72 265.5,-483.72 265.5,-447.72 408.5,-447.72 408.5,-483.72"/>
<text text-anchor="middle" x="337" y="-462.02" font-family="Times,serif" font-size="14.00">update_requester</text>
</g>
<!-- onepage&#45;&gt;update_requester -->
<g id="edge16" class="edge">
<title>onepage&#45;&gt;update_requester</title>
<path fill="none" stroke="#a2aa60" d="M337,-652.41C337,-617.13 337,-536.65 337,-494.16"/>
<polygon fill="#a2aa60" stroke="#a2aa60" points="340.5,-493.98 337,-483.98 333.5,-493.98 340.5,-493.98"/>
</g>
<!-- onepage&#45;&gt;utils -->
<g id="edge17" class="edge">
<title>onepage&#45;&gt;utils</title>
<path fill="none" stroke="#f548cf" d="M375.61,-670.71C468.56,-670.74 704.66,-656.23 807,-514.72 943.35,-326.18 529.61,-147.85 401.53,-98.28"/>
<polygon fill="#f548cf" stroke="#f548cf" points="402.7,-94.98 392.11,-94.67 400.2,-101.52 402.7,-94.98"/>
</g>
<!-- widgets -->
<g id="node14" class="node">
<title>widgets</title>
<polygon fill="none" stroke="#3ed5a4" points="89.5,-279.72 16.5,-279.72 16.5,-243.72 89.5,-243.72 89.5,-279.72"/>
<text text-anchor="middle" x="53" y="-258.02" font-family="Times,serif" font-size="14.00">widgets</text>
</g>
<!-- onepage&#45;&gt;widgets -->
<g id="edge18" class="edge">
<title>onepage&#45;&gt;widgets</title>
<path fill="none" stroke="#3ed5a4" d="M301.49,-652.64C254.83,-628.41 173.48,-579.66 128,-514.72 78.22,-443.64 61.01,-339.15 55.45,-290.07"/>
<polygon fill="#3ed5a4" stroke="#3ed5a4" points="58.91,-289.51 54.38,-279.93 51.95,-290.24 58.91,-289.51"/>
</g>
<!-- provider_utils&#45;&gt;utils -->
<g id="edge19" class="edge">
<title>provider_utils&#45;&gt;utils</title>
<path fill="none" stroke="#f548cf" d="M250.41,-243.52C272.94,-212.29 320.68,-146.14 346.87,-109.85"/>
<polygon fill="#f548cf" stroke="#f548cf" points="349.71,-111.88 352.73,-101.73 344.04,-107.79 349.71,-111.88"/>
</g>
<!-- widgets&#45;&gt;utils -->
<g id="edge20" class="edge">
<title>widgets&#45;&gt;utils</title>
<path fill="none" stroke="#f548cf" d="M83.2,-243.68C140.95,-211.11 266.8,-140.12 328.89,-105.09"/>
<polygon fill="#f548cf" stroke="#f548cf" points="330.94,-107.96 337.93,-99.99 327.5,-101.86 330.94,-107.96"/>
</g>
</g>
</svg>
