<?xml version="1.0" encoding="UTF-8" standalone="no"?>
<!DOCTYPE svg PUBLIC "-//W3C//DTD SVG 1.1//EN"
 "http://www.w3.org/Graphics/SVG/1.1/DTD/svg11.dtd">
<!-- Generated by graphviz version 2.43.0 (0)
 -->
<!-- Title: packages Pages: 1 -->
<svg width="720pt" height="720pt"
 viewBox="0.00 0.00 720.00 720.00" xmlns="http://www.w3.org/2000/svg" xmlns:xlink="http://www.w3.org/1999/xlink">
<g id="graph0" class="graph" transform="scale(0.9 0.9) rotate(0) translate(4 792)">
<title>packages</title>
<polygon fill="white" stroke="transparent" points="-4,4 -4,-792 792,-792 792,4 -4,4"/>
<g id="clust1" class="cluster">
<title>cluster packages</title>
<polygon fill="none" stroke="#6b4949" points="8,-26.83 8,-761.17 780,-761.17 780,-26.83 8,-26.83"/>
<text text-anchor="middle" x="394" y="-745.97" font-family="Times,serif" font-size="14.00">packages</text>
</g>
<!-- db_client -->
<g id="node1" class="node">
<title>db_client</title>
<polygon fill="none" stroke="#c4fbfc" points="97.5,-131.83 16.5,-131.83 16.5,-95.83 97.5,-95.83 97.5,-131.83"/>
<text text-anchor="middle" x="57" y="-110.13" font-family="Times,serif" font-size="14.00">db_client</text>
</g>
<!-- diary -->
<g id="node2" class="node">
<title>diary</title>
<polygon fill="none" stroke="#2c56bd" points="70,-373.83 16,-373.83 16,-337.83 70,-337.83 70,-373.83"/>
<text text-anchor="middle" x="43" y="-352.13" font-family="Times,serif" font-size="14.00">diary</text>
</g>
<!-- diary&#45;&gt;db_client -->
<g id="edge1" class="edge">
<title>diary&#45;&gt;db_client</title>
<path fill="none" stroke="#c4fbfc" d="M44.01,-337.57C46.41,-296.31 52.51,-191.73 55.42,-141.95"/>
<polygon fill="#c4fbfc" stroke="#c4fbfc" points="58.91,-142.12 56,-131.93 51.93,-141.71 58.91,-142.12"/>
</g>
<!-- utils -->
<g id="node9" class="node">
<title>utils</title>
<polygon fill="none" stroke="#f548cf" points="245,-131.83 191,-131.83 191,-95.83 245,-95.83 245,-131.83"/>
<text text-anchor="middle" x="218" y="-110.13" font-family="Times,serif" font-size="14.00">utils</text>
</g>
<!-- diary&#45;&gt;utils -->
<g id="edge2" class="edge">
<title>diary&#45;&gt;utils</title>
<path fill="none" stroke="#f548cf" d="M55.59,-337.57C86.05,-295.79 163.85,-189.09 199.57,-140.1"/>
<polygon fill="#f548cf" stroke="#f548cf" points="202.46,-142.07 205.53,-131.93 196.81,-137.95 202.46,-142.07"/>
</g>
<!-- i18n -->
<g id="node3" class="node">
<title>i18n</title>
<polygon fill="none" stroke="#d7afc5" points="142,-373.83 88,-373.83 88,-337.83 142,-337.83 142,-373.83"/>
<text text-anchor="middle" x="115" y="-352.13" font-family="Times,serif" font-size="14.00">i18n</text>
</g>
<!-- onepage -->
<g id="node4" class="node">
<title>onepage</title>
<polygon fill="none" stroke="#08802d" points="449.5,-614.83 372.5,-614.83 372.5,-578.83 449.5,-578.83 449.5,-614.83"/>
<text text-anchor="middle" x="411" y="-593.13" font-family="Times,serif" font-size="14.00">onepage</text>
</g>
<!-- onepage&#45;&gt;diary -->
<g id="edge3" class="edge">
<title>onepage&#45;&gt;diary</title>
<path fill="none" stroke="#2c56bd" d="M384.53,-578.64C319.29,-536.26 150.73,-426.79 77.65,-379.33"/>
<polygon fill="#2c56bd" stroke="#2c56bd" points="79.52,-376.37 69.23,-373.86 75.71,-382.24 79.52,-376.37"/>
</g>
<!-- onepage&#45;&gt;i18n -->
<g id="edge4" class="edge">
<title>onepage&#45;&gt;i18n</title>
<path fill="none" stroke="#d7afc5" d="M389.71,-578.64C337.55,-536.52 203.31,-428.13 143.96,-380.21"/>
<polygon fill="#d7afc5" stroke="#d7afc5" points="146.07,-377.42 136.09,-373.86 141.68,-382.86 146.07,-377.42"/>
</g>
<!-- provider_utils -->
<g id="node5" class="node">
<title>provider_utils</title>
<polygon fill="none" stroke="#f445c4" points="276,-373.83 160,-373.83 160,-337.83 276,-337.83 276,-373.83"/>
<text text-anchor="middle" x="218" y="-352.13" font-family="Times,serif" font-size="14.00">provider_utils</text>
</g>
<!-- onepage&#45;&gt;provider_utils -->
<g id="edge5" class="edge">
<title>onepage&#45;&gt;provider_utils</title>
<path fill="none" stroke="#f445c4" d="M397.12,-578.64C363.46,-536.95 277.36,-430.34 238.08,-381.69"/>
<polygon fill="#f445c4" stroke="#f445c4" points="240.76,-379.44 231.75,-373.86 235.31,-383.84 240.76,-379.44"/>
</g>
<!-- scroll_calendar -->
<g id="node6" class="node">
<title>scroll_calendar</title>
<polygon fill="none" stroke="#713e2e" points="418,-373.83 294,-373.83 294,-337.83 418,-337.83 418,-373.83"/>
<text text-anchor="middle" x="356" y="-352.13" font-family="Times,serif" font-size="14.00">scroll_calendar</text>
</g>
<!-- onepage&#45;&gt;scroll_calendar -->
<g id="edge6" class="edge">
<title>onepage&#45;&gt;scroll_calendar</title>
<path fill="none" stroke="#713e2e" d="M407.04,-578.64C397.59,-537.55 373.62,-433.41 362.22,-383.84"/>
<polygon fill="#713e2e" stroke="#713e2e" points="365.57,-382.82 359.92,-373.86 358.75,-384.39 365.57,-382.82"/>
</g>
<!-- theme -->
<g id="node7" class="node">
<title>theme</title>
<polygon fill="none" stroke="#1214e6" points="498,-373.83 436,-373.83 436,-337.83 498,-337.83 498,-373.83"/>
<text text-anchor="middle" x="467" y="-352.13" font-family="Times,serif" font-size="14.00">theme</text>
</g>
<!-- onepage&#45;&gt;theme -->
<g id="edge7" class="edge">
<title>onepage&#45;&gt;theme</title>
<path fill="none" stroke="#1214e6" d="M415.03,-578.64C424.65,-537.55 449.06,-433.41 460.67,-383.84"/>
<polygon fill="#1214e6" stroke="#1214e6" points="464.14,-384.39 463.01,-373.86 457.32,-382.8 464.14,-384.39"/>
</g>
<!-- update_requester -->
<g id="node8" class="node">
<title>update_requester</title>
<polygon fill="none" stroke="#a2aa60" points="659.5,-373.83 516.5,-373.83 516.5,-337.83 659.5,-337.83 659.5,-373.83"/>
<text text-anchor="middle" x="588" y="-352.13" font-family="Times,serif" font-size="14.00">update_requester</text>
</g>
<!-- onepage&#45;&gt;update_requester -->
<g id="edge8" class="edge">
<title>onepage&#45;&gt;update_requester</title>
<path fill="none" stroke="#a2aa60" d="M423.73,-578.64C454.54,-537.04 533.23,-430.78 569.36,-382"/>
<polygon fill="#a2aa60" stroke="#a2aa60" points="572.25,-383.98 575.39,-373.86 566.62,-379.81 572.25,-383.98"/>
</g>
<!-- onepage&#45;&gt;utils -->
<g id="edge9" class="edge">
<title>onepage&#45;&gt;utils</title>
<path fill="none" stroke="#f548cf" d="M449.61,-580.74C536.85,-544.32 736.51,-446.52 669,-337.83 575.13,-186.69 345.13,-134.89 255.04,-120.02"/>
<polygon fill="#f548cf" stroke="#f548cf" points="255.44,-116.54 245.02,-118.43 254.34,-123.46 255.44,-116.54"/>
</g>
<!-- widgets -->
<g id="node10" class="node">
<title>widgets</title>
<polygon fill="none" stroke="#3ed5a4" points="771.5,-373.83 698.5,-373.83 698.5,-337.83 771.5,-337.83 771.5,-373.83"/>
<text text-anchor="middle" x="735" y="-352.13" font-family="Times,serif" font-size="14.00">widgets</text>
</g>
<!-- onepage&#45;&gt;widgets -->
<g id="edge10" class="edge">
<title>onepage&#45;&gt;widgets</title>
<path fill="none" stroke="#3ed5a4" d="M434.3,-578.64C491.51,-536.43 638.94,-427.68 703.7,-379.91"/>
<polygon fill="#3ed5a4" stroke="#3ed5a4" points="705.94,-382.61 711.91,-373.86 701.78,-376.98 705.94,-382.61"/>
</g>
<!-- provider_utils&#45;&gt;utils -->
<g id="edge11" class="edge">
<title>provider_utils&#45;&gt;utils</title>
<path fill="none" stroke="#f548cf" d="M218,-337.57C218,-296.31 218,-191.73 218,-141.95"/>
<polygon fill="#f548cf" stroke="#f548cf" points="221.5,-141.93 218,-131.93 214.5,-141.93 221.5,-141.93"/>
</g>
</g>
</svg>
