<?xml version="1.0" encoding="UTF-8" standalone="no"?>
<!DOCTYPE svg PUBLIC "-//W3C//DTD SVG 1.1//EN"
 "http://www.w3.org/Graphics/SVG/1.1/DTD/svg11.dtd">
<!-- Generated by graphviz version 2.43.0 (0)
 -->
<!-- Title: packages Pages: 1 -->
<svg width="720pt" height="720pt"
 viewBox="0.00 0.00 720.00 720.00" xmlns="http://www.w3.org/2000/svg" xmlns:xlink="http://www.w3.org/1999/xlink">
<g id="graph0" class="graph" transform="scale(0.81 0.81) rotate(0) translate(4 884)">
<title>packages</title>
<polygon fill="white" stroke="transparent" points="-4,4 -4,-884 884,-884 884,4 -4,4"/>
<g id="clust1" class="cluster">
<title>cluster packages</title>
<polygon fill="none" stroke="#6b4949" points="8,-29.96 8,-850.04 872,-850.04 872,-29.96 8,-29.96"/>
<text text-anchor="middle" x="440" y="-834.84" font-family="Times,serif" font-size="14.00">packages</text>
</g>
<!-- ads -->
<g id="node1" class="node">
<title>ads</title>
<polygon fill="none" stroke="#465953" points="70,-414.96 16,-414.96 16,-378.96 70,-378.96 70,-414.96"/>
<text text-anchor="middle" x="43" y="-393.26" font-family="Times,serif" font-size="14.00">ads</text>
</g>
<!-- db_client -->
<g id="node2" class="node">
<title>db_client</title>
<polygon fill="none" stroke="#c4fbfc" points="152.5,-144.96 71.5,-144.96 71.5,-108.96 152.5,-108.96 152.5,-144.96"/>
<text text-anchor="middle" x="112" y="-123.26" font-family="Times,serif" font-size="14.00">db_client</text>
</g>
<!-- diary -->
<g id="node3" class="node">
<title>diary</title>
<polygon fill="none" stroke="#2c56bd" points="162,-414.96 108,-414.96 108,-378.96 162,-378.96 162,-414.96"/>
<text text-anchor="middle" x="135" y="-393.26" font-family="Times,serif" font-size="14.00">diary</text>
</g>
<!-- diary&#45;&gt;db_client -->
<g id="edge1" class="edge">
<title>diary&#45;&gt;db_client</title>
<path fill="none" stroke="#c4fbfc" d="M133.53,-378.79C129.63,-333.4 119.04,-210.02 114.32,-155.03"/>
<polygon fill="#c4fbfc" stroke="#c4fbfc" points="117.8,-154.65 113.46,-144.99 110.83,-155.25 117.8,-154.65"/>
</g>
<!-- utils -->
<g id="node10" class="node">
<title>utils</title>
<polygon fill="none" stroke="#f548cf" points="337,-144.96 283,-144.96 283,-108.96 337,-108.96 337,-144.96"/>
<text text-anchor="middle" x="310" y="-123.26" font-family="Times,serif" font-size="14.00">utils</text>
</g>
<!-- diary&#45;&gt;utils -->
<g id="edge2" class="edge">
<title>diary&#45;&gt;utils</title>
<path fill="none" stroke="#f548cf" d="M146.21,-378.79C176.09,-333.03 257.76,-207.95 293.21,-153.67"/>
<polygon fill="#f548cf" stroke="#f548cf" points="296.34,-155.27 298.88,-144.99 290.48,-151.45 296.34,-155.27"/>
</g>
<!-- i18n -->
<g id="node4" class="node">
<title>i18n</title>
<polygon fill="none" stroke="#d7afc5" points="234,-414.96 180,-414.96 180,-378.96 234,-378.96 234,-414.96"/>
<text text-anchor="middle" x="207" y="-393.26" font-family="Times,serif" font-size="14.00">i18n</text>
</g>
<!-- onepage -->
<g id="node5" class="node">
<title>onepage</title>
<polygon fill="none" stroke="#08802d" points="417.5,-684.96 340.5,-684.96 340.5,-648.96 417.5,-648.96 417.5,-684.96"/>
<text text-anchor="middle" x="379" y="-663.26" font-family="Times,serif" font-size="14.00">onepage</text>
</g>
<!-- onepage&#45;&gt;ads -->
<g id="edge3" class="edge">
<title>onepage&#45;&gt;ads</title>
<path fill="none" stroke="#465953" d="M357.47,-648.79C299.27,-602.36 138.74,-474.32 72.34,-421.36"/>
<polygon fill="#465953" stroke="#465953" points="74.35,-418.49 64.35,-414.99 69.99,-423.96 74.35,-418.49"/>
</g>
<!-- onepage&#45;&gt;db_client -->
<g id="edge4" class="edge">
<title>onepage&#45;&gt;db_client</title>
<path fill="none" stroke="#c4fbfc" d="M345.81,-648.74C283.43,-614.24 150.37,-530.01 99,-414.96 59.53,-326.58 87.37,-207.27 103.15,-154.71"/>
<polygon fill="#c4fbfc" stroke="#c4fbfc" points="106.51,-155.7 106.13,-145.11 99.82,-153.63 106.51,-155.7"/>
</g>
<!-- onepage&#45;&gt;diary -->
<g id="edge5" class="edge">
<title>onepage&#45;&gt;diary</title>
<path fill="none" stroke="#2c56bd" d="M363.37,-648.79C321.45,-602.74 206.42,-476.4 157.5,-422.67"/>
<polygon fill="#2c56bd" stroke="#2c56bd" points="159.82,-420.02 150.5,-414.99 154.65,-424.74 159.82,-420.02"/>
</g>
<!-- onepage&#45;&gt;i18n -->
<g id="edge6" class="edge">
<title>onepage&#45;&gt;i18n</title>
<path fill="none" stroke="#d7afc5" d="M367.98,-648.79C338.61,-603.03 258.34,-477.95 223.5,-423.67"/>
<polygon fill="#d7afc5" stroke="#d7afc5" points="226.28,-421.51 217.93,-414.99 220.38,-425.29 226.28,-421.51"/>
</g>
<!-- provider_utils -->
<g id="node6" class="node">
<title>provider_utils</title>
<polygon fill="none" stroke="#f445c4" points="368,-414.96 252,-414.96 252,-378.96 368,-378.96 368,-414.96"/>
<text text-anchor="middle" x="310" y="-393.26" font-family="Times,serif" font-size="14.00">provider_utils</text>
</g>
<!-- onepage&#45;&gt;provider_utils -->
<g id="edge7" class="edge">
<title>onepage&#45;&gt;provider_utils</title>
<path fill="none" stroke="#f445c4" d="M374.58,-648.79C362.87,-603.31 330.99,-479.5 316.88,-424.69"/>
<polygon fill="#f445c4" stroke="#f445c4" points="320.27,-423.8 314.38,-414.99 313.49,-425.54 320.27,-423.8"/>
</g>
<!-- scroll_calendar -->
<g id="node7" class="node">
<title>scroll_calendar</title>
<polygon fill="none" stroke="#713e2e" points="510,-414.96 386,-414.96 386,-378.96 510,-378.96 510,-414.96"/>
<text text-anchor="middle" x="448" y="-393.26" font-family="Times,serif" font-size="14.00">scroll_calendar</text>
</g>
<!-- onepage&#45;&gt;scroll_calendar -->
<g id="edge8" class="edge">
<title>onepage&#45;&gt;scroll_calendar</title>
<path fill="none" stroke="#713e2e" d="M383.42,-648.79C395.13,-603.31 427.01,-479.5 441.12,-424.69"/>
<polygon fill="#713e2e" stroke="#713e2e" points="444.51,-425.54 443.62,-414.99 437.73,-423.8 444.51,-425.54"/>
</g>
<!-- theme -->
<g id="node8" class="node">
<title>theme</title>
<polygon fill="none" stroke="#1214e6" points="590,-414.96 528,-414.96 528,-378.96 590,-378.96 590,-414.96"/>
<text text-anchor="middle" x="559" y="-393.26" font-family="Times,serif" font-size="14.00">theme</text>
</g>
<!-- onepage&#45;&gt;theme -->
<g id="edge9" class="edge">
<title>onepage&#45;&gt;theme</title>
<path fill="none" stroke="#1214e6" d="M390.53,-648.79C421.33,-602.93 505.62,-477.44 541.96,-423.33"/>
<polygon fill="#1214e6" stroke="#1214e6" points="544.89,-425.24 547.56,-414.99 539.08,-421.34 544.89,-425.24"/>
</g>
<!-- update_requester -->
<g id="node9" class="node">
<title>update_requester</title>
<polygon fill="none" stroke="#a2aa60" points="751.5,-414.96 608.5,-414.96 608.5,-378.96 751.5,-378.96 751.5,-414.96"/>
<text text-anchor="middle" x="680" y="-393.26" font-family="Times,serif" font-size="14.00">update_requester</text>
</g>
<!-- onepage&#45;&gt;update_requester -->
<g id="edge10" class="edge">
<title>onepage&#45;&gt;update_requester</title>
<path fill="none" stroke="#a2aa60" d="M398.29,-648.79C450.32,-602.46 593.65,-474.84 653.35,-421.68"/>
<polygon fill="#a2aa60" stroke="#a2aa60" points="655.73,-424.25 660.87,-414.99 651.08,-419.02 655.73,-424.25"/>
</g>
<!-- onepage&#45;&gt;utils -->
<g id="edge11" class="edge">
<title>onepage&#45;&gt;utils</title>
<path fill="none" stroke="#f548cf" d="M417.67,-656.67C531.17,-627.43 849.91,-530.2 761,-378.96 668.41,-221.46 437.22,-155.62 346.94,-135.35"/>
<polygon fill="#f548cf" stroke="#f548cf" points="347.66,-131.92 337.15,-133.2 346.17,-138.76 347.66,-131.92"/>
</g>
<!-- widgets -->
<g id="node11" class="node">
<title>widgets</title>
<polygon fill="none" stroke="#3ed5a4" points="863.5,-414.96 790.5,-414.96 790.5,-378.96 863.5,-378.96 863.5,-414.96"/>
<text text-anchor="middle" x="827" y="-393.26" font-family="Times,serif" font-size="14.00">widgets</text>
</g>
<!-- onepage&#45;&gt;widgets -->
<g id="edge12" class="edge">
<title>onepage&#45;&gt;widgets</title>
<path fill="none" stroke="#3ed5a4" d="M407.71,-648.79C485.86,-602.03 702.41,-472.49 789.76,-420.24"/>
<polygon fill="#3ed5a4" stroke="#3ed5a4" points="791.75,-423.12 798.53,-414.99 788.15,-417.12 791.75,-423.12"/>
</g>
<!-- provider_utils&#45;&gt;utils -->
<g id="edge13" class="edge">
<title>provider_utils&#45;&gt;utils</title>
<path fill="none" stroke="#f548cf" d="M310,-378.79C310,-333.4 310,-210.02 310,-155.03"/>
<polygon fill="#f548cf" stroke="#f548cf" points="313.5,-154.99 310,-144.99 306.5,-154.99 313.5,-154.99"/>
</g>
</g>
</svg>
