<?xml version="1.0" encoding="UTF-8" standalone="no"?>
<!DOCTYPE svg PUBLIC "-//W3C//DTD SVG 1.1//EN"
 "http://www.w3.org/Graphics/SVG/1.1/DTD/svg11.dtd">
<!-- Generated by graphviz version 2.43.0 (0)
 -->
<!-- Title: packages Pages: 1 -->
<svg width="720pt" height="686pt"
 viewBox="0.00 0.00 720.00 685.94" xmlns="http://www.w3.org/2000/svg" xmlns:xlink="http://www.w3.org/1999/xlink">
<g id="graph0" class="graph" transform="scale(0.76 0.76) rotate(0) translate(4 899)">
<title>packages</title>
<polygon fill="white" stroke="transparent" points="-4,4 -4,-899 943.84,-899 943.84,4 -4,4"/>
<g id="clust1" class="cluster">
<title>cluster packages/features</title>
<polygon fill="none" stroke="#f62736" points="245,-443.42 245,-647.45 887,-647.45 887,-443.42 245,-443.42"/>
<text text-anchor="middle" x="566" y="-632.25" font-family="Times,serif" font-size="14.00">packages/features</text>
</g>
<g id="clust2" class="cluster">
<title>cluster packages/core</title>
<polygon fill="none" stroke="#7bbd47" points="8,-21.76 8,-421.66 645,-421.66 645,-21.76 8,-21.76"/>
<text text-anchor="middle" x="326.5" y="-406.46" font-family="Times,serif" font-size="14.00">packages/core</text>
</g>
<g id="clust3" class="cluster">
<title>cluster packages</title>
<polygon fill="none" stroke="#6b4949" points="354,-669.21 354,-873.24 448,-873.24 448,-669.21 354,-669.21"/>
<text text-anchor="middle" x="401" y="-858.04" font-family="Times,serif" font-size="14.00">packages</text>
</g>
<!-- backup -->
<g id="node1" class="node">
<title>backup</title>
<polygon fill="none" stroke="#022013" points="721,-531.76 653,-531.76 653,-495.76 721,-495.76 721,-531.76"/>
<text text-anchor="middle" x="687" y="-510.06" font-family="Times,serif" font-size="14.00">backup</text>
</g>
<!-- db_client -->
<g id="node2" class="node">
<title>db_client</title>
<polygon fill="none" stroke="#c4fbfc" points="636.5,-306.76 555.5,-306.76 555.5,-270.76 636.5,-270.76 636.5,-306.76"/>
<text text-anchor="middle" x="596" y="-285.06" font-family="Times,serif" font-size="14.00">db_client</text>
</g>
<!-- backup&#45;&gt;db_client -->
<g id="edge1" class="edge">
<title>backup&#45;&gt;db_client</title>
<path fill="none" stroke="#c4fbfc" d="M680.01,-495.63C664.23,-456.96 625.75,-362.66 606.84,-316.33"/>
<polygon fill="#c4fbfc" stroke="#c4fbfc" points="610.03,-314.89 603.01,-306.95 603.55,-317.53 610.03,-314.89"/>
</g>
<!-- diary -->
<g id="node3" class="node">
<title>diary</title>
<polygon fill="none" stroke="#2c56bd" points="793,-531.76 739,-531.76 739,-495.76 793,-495.76 793,-531.76"/>
<text text-anchor="middle" x="766" y="-510.06" font-family="Times,serif" font-size="14.00">diary</text>
</g>
<!-- diary&#45;&gt;db_client -->
<g id="edge2" class="edge">
<title>diary&#45;&gt;db_client</title>
<path fill="none" stroke="#c4fbfc" d="M752.94,-495.63C723.21,-456.64 650.36,-361.07 615.37,-315.18"/>
<polygon fill="#c4fbfc" stroke="#c4fbfc" points="617.95,-312.78 609.1,-306.95 612.38,-317.02 617.95,-312.78"/>
</g>
<!-- utils -->
<g id="node14" class="node">
<title>utils</title>
<polygon fill="none" stroke="#f548cf" points="519,-110.76 465,-110.76 465,-74.76 519,-74.76 519,-110.76"/>
<text text-anchor="middle" x="492" y="-89.06" font-family="Times,serif" font-size="14.00">utils</text>
</g>
<!-- diary&#45;&gt;utils -->
<g id="edge3" class="edge">
<title>diary&#45;&gt;utils</title>
<path fill="none" stroke="#f548cf" d="M759.25,-495.52C742.89,-454.68 698.56,-349.57 646,-270.76 606.67,-211.78 549.63,-151.19 517.15,-118.43"/>
<polygon fill="#f548cf" stroke="#f548cf" points="519.37,-115.71 509.83,-111.11 514.42,-120.66 519.37,-115.71"/>
</g>
<!-- exporter -->
<g id="node4" class="node">
<title>exporter</title>
<polygon fill="none" stroke="#3e99a6" points="635,-531.76 557,-531.76 557,-495.76 635,-495.76 635,-531.76"/>
<text text-anchor="middle" x="596" y="-510.06" font-family="Times,serif" font-size="14.00">exporter</text>
</g>
<!-- exporter&#45;&gt;db_client -->
<g id="edge4" class="edge">
<title>exporter&#45;&gt;db_client</title>
<path fill="none" stroke="#c4fbfc" d="M596,-495.63C596,-457.21 596,-363.84 596,-317.21"/>
<polygon fill="#c4fbfc" stroke="#c4fbfc" points="599.5,-316.95 596,-306.95 592.5,-316.95 599.5,-316.95"/>
</g>
<!-- haptics -->
<g id="node5" class="node">
<title>haptics</title>
<polygon fill="none" stroke="#26343c" points="879,-531.76 811,-531.76 811,-495.76 879,-495.76 879,-531.76"/>
<text text-anchor="middle" x="845" y="-510.06" font-family="Times,serif" font-size="14.00">haptics</text>
</g>
<!-- prefs_client -->
<g id="node9" class="node">
<title>prefs_client</title>
<polygon fill="none" stroke="#080f51" points="637,-110.76 537,-110.76 537,-74.76 637,-74.76 637,-110.76"/>
<text text-anchor="middle" x="587" y="-89.06" font-family="Times,serif" font-size="14.00">prefs_client</text>
</g>
<!-- haptics&#45;&gt;prefs_client -->
<g id="edge5" class="edge">
<title>haptics&#45;&gt;prefs_client</title>
<path fill="none" stroke="#080f51" d="M838.49,-495.62C822.71,-454.99 780.04,-350.29 730,-270.76 693.35,-212.5 640.34,-151.56 610.23,-118.57"/>
<polygon fill="#080f51" stroke="#080f51" points="612.43,-115.79 603.09,-110.8 607.28,-120.53 612.43,-115.79"/>
</g>
<!-- i18n -->
<g id="node6" class="node">
<title>i18n</title>
<polygon fill="none" stroke="#d7afc5" points="70,-306.76 16,-306.76 16,-270.76 70,-270.76 70,-306.76"/>
<text text-anchor="middle" x="43" y="-285.06" font-family="Times,serif" font-size="14.00">i18n</text>
</g>
<!-- notification_client -->
<g id="node7" class="node">
<title>notification_client</title>
<polygon fill="none" stroke="#4d6b02" points="365.5,-306.76 222.5,-306.76 222.5,-270.76 365.5,-270.76 365.5,-306.76"/>
<text text-anchor="middle" x="294" y="-285.06" font-family="Times,serif" font-size="14.00">notification_client</text>
</g>
<!-- notification_client&#45;&gt;prefs_client -->
<g id="edge6" class="edge">
<title>notification_client&#45;&gt;prefs_client</title>
<path fill="none" stroke="#080f51" d="M319.75,-270.72C372.48,-235.8 492.8,-156.13 552.33,-116.72"/>
<polygon fill="#080f51" stroke="#080f51" points="554.59,-119.42 561,-110.98 550.73,-113.58 554.59,-119.42"/>
</g>
<!-- onepage -->
<g id="node8" class="node">
<title>onepage</title>
<polygon fill="none" stroke="#08802d" points="439.5,-757.76 362.5,-757.76 362.5,-721.76 439.5,-721.76 439.5,-757.76"/>
<text text-anchor="middle" x="401" y="-736.06" font-family="Times,serif" font-size="14.00">onepage</text>
</g>
<!-- onepage&#45;&gt;backup -->
<g id="edge7" class="edge">
<title>onepage&#45;&gt;backup</title>
<path fill="none" stroke="#022013" d="M428.3,-721.75C474.82,-692.17 571.45,-628.15 644,-562.76 651.69,-555.83 659.44,-547.64 666.2,-540"/>
<polygon fill="#022013" stroke="#022013" points="669.21,-541.88 673.1,-532.02 663.91,-537.3 669.21,-541.88"/>
</g>
<!-- onepage&#45;&gt;db_client -->
<g id="edge8" class="edge">
<title>onepage&#45;&gt;db_client</title>
<path fill="none" stroke="#c4fbfc" d="M374.84,-721.49C316.67,-680.89 185.91,-576.12 241,-487.76 321.13,-359.24 423.33,-425.2 547,-337.76 556.33,-331.16 565.56,-322.76 573.44,-314.84"/>
<polygon fill="#c4fbfc" stroke="#c4fbfc" points="576.42,-316.79 580.83,-307.16 571.38,-311.94 576.42,-316.79"/>
</g>
<!-- onepage&#45;&gt;diary -->
<g id="edge9" class="edge">
<title>onepage&#45;&gt;diary</title>
<path fill="none" stroke="#2c56bd" d="M439.52,-724.59C504.54,-699.35 637.96,-641.76 730,-562.76 737.55,-556.29 744.47,-547.96 750.19,-540.08"/>
<polygon fill="#2c56bd" stroke="#2c56bd" points="753.1,-542.01 755.89,-531.79 747.34,-538.04 753.1,-542.01"/>
</g>
<!-- onepage&#45;&gt;exporter -->
<g id="edge10" class="edge">
<title>onepage&#45;&gt;exporter</title>
<path fill="none" stroke="#3e99a6" d="M415.98,-721.56C450.22,-682.22 534.34,-585.59 574.28,-539.72"/>
<polygon fill="#3e99a6" stroke="#3e99a6" points="577.05,-541.87 580.97,-532.03 571.77,-537.27 577.05,-541.87"/>
</g>
<!-- onepage&#45;&gt;haptics -->
<g id="edge11" class="edge">
<title>onepage&#45;&gt;haptics</title>
<path fill="none" stroke="#26343c" d="M439.73,-727.85C514.73,-705.46 682.86,-649.07 802,-562.76 810.83,-556.36 819.18,-547.88 826.12,-539.82"/>
<polygon fill="#26343c" stroke="#26343c" points="828.91,-541.94 832.56,-532 823.5,-537.49 828.91,-541.94"/>
</g>
<!-- onepage&#45;&gt;i18n -->
<g id="edge12" class="edge">
<title>onepage&#45;&gt;i18n</title>
<path fill="none" stroke="#d7afc5" d="M362.21,-725.58C300.45,-702.56 180.2,-649.09 116,-562.76 59.42,-486.68 46.66,-369.89 43.81,-317.21"/>
<polygon fill="#d7afc5" stroke="#d7afc5" points="47.3,-316.81 43.34,-306.98 40.3,-317.13 47.3,-316.81"/>
</g>
<!-- onepage&#45;&gt;notification_client -->
<g id="edge13" class="edge">
<title>onepage&#45;&gt;notification_client</title>
<path fill="none" stroke="#4d6b02" d="M362.16,-724.12C305.16,-700.24 200.98,-646.97 158,-562.76 111.29,-471.25 213.52,-361.62 265.75,-313.92"/>
<polygon fill="#4d6b02" stroke="#4d6b02" points="268.27,-316.36 273.37,-307.07 263.59,-311.15 268.27,-316.36"/>
</g>
<!-- onepage&#45;&gt;prefs_client -->
<g id="edge14" class="edge">
<title>onepage&#45;&gt;prefs_client</title>
<path fill="none" stroke="#080f51" d="M439.67,-739.22C538.29,-738.01 799.28,-719.5 911,-562.76 1032.24,-392.67 733.32,-184.24 624.65,-116.32"/>
<polygon fill="#080f51" stroke="#080f51" points="626.29,-113.22 615.95,-110.93 622.6,-119.17 626.29,-113.22"/>
</g>
<!-- provider_utils -->
<g id="node10" class="node">
<title>provider_utils</title>
<polygon fill="none" stroke="#f445c4" points="204,-306.76 88,-306.76 88,-270.76 204,-270.76 204,-306.76"/>
<text text-anchor="middle" x="146" y="-285.06" font-family="Times,serif" font-size="14.00">provider_utils</text>
</g>
<!-- onepage&#45;&gt;provider_utils -->
<g id="edge15" class="edge">
<title>onepage&#45;&gt;provider_utils</title>
<path fill="none" stroke="#f445c4" d="M362.17,-725.81C302.13,-703.41 188.81,-651.17 142,-562.76 99.25,-482.03 123.13,-368.13 137.55,-316.76"/>
<polygon fill="#f445c4" stroke="#f445c4" points="140.94,-317.64 140.37,-307.06 134.22,-315.69 140.94,-317.64"/>
</g>
<!-- scroll_calendar -->
<g id="node11" class="node">
<title>scroll_calendar</title>
<polygon fill="none" stroke="#713e2e" points="539,-531.76 415,-531.76 415,-495.76 539,-495.76 539,-531.76"/>
<text text-anchor="middle" x="477" y="-510.06" font-family="Times,serif" font-size="14.00">scroll_calendar</text>
</g>
<!-- onepage&#45;&gt;scroll_calendar -->
<g id="edge16" class="edge">
<title>onepage&#45;&gt;scroll_calendar</title>
<path fill="none" stroke="#713e2e" d="M406.84,-721.56C419.99,-682.79 452.02,-588.38 467.85,-541.74"/>
<polygon fill="#713e2e" stroke="#713e2e" points="471.24,-542.62 471.14,-532.03 464.62,-540.37 471.24,-542.62"/>
</g>
<!-- theme -->
<g id="node12" class="node">
<title>theme</title>
<polygon fill="none" stroke="#1214e6" points="446,-306.76 384,-306.76 384,-270.76 446,-270.76 446,-306.76"/>
<text text-anchor="middle" x="415" y="-285.06" font-family="Times,serif" font-size="14.00">theme</text>
</g>
<!-- onepage&#45;&gt;theme -->
<g id="edge17" class="edge">
<title>onepage&#45;&gt;theme</title>
<path fill="none" stroke="#1214e6" d="M362.54,-721.7C284.83,-684.63 120.75,-591.63 173,-487.76 223.25,-387.86 293.75,-414.59 375,-337.76 382.29,-330.87 389.54,-322.69 395.82,-315.05"/>
<polygon fill="#1214e6" stroke="#1214e6" points="398.7,-317.06 402.21,-307.06 393.23,-312.68 398.7,-317.06"/>
</g>
<!-- update_requester -->
<g id="node13" class="node">
<title>update_requester</title>
<polygon fill="none" stroke="#a2aa60" points="396.5,-531.76 253.5,-531.76 253.5,-495.76 396.5,-495.76 396.5,-531.76"/>
<text text-anchor="middle" x="325" y="-510.06" font-family="Times,serif" font-size="14.00">update_requester</text>
</g>
<!-- onepage&#45;&gt;update_requester -->
<g id="edge18" class="edge">
<title>onepage&#45;&gt;update_requester</title>
<path fill="none" stroke="#a2aa60" d="M395.16,-721.56C382.01,-682.79 349.98,-588.38 334.15,-541.74"/>
<polygon fill="#a2aa60" stroke="#a2aa60" points="337.38,-540.37 330.86,-532.03 330.76,-542.62 337.38,-540.37"/>
</g>
<!-- onepage&#45;&gt;utils -->
<g id="edge19" class="edge">
<title>onepage&#45;&gt;utils</title>
<path fill="none" stroke="#f548cf" d="M439.6,-738.62C535.53,-735.91 784.65,-713.96 891,-562.76 910.18,-535.5 903.58,-518.63 891,-487.76 816.76,-305.52 611,-165.43 527.7,-114.55"/>
<polygon fill="#f548cf" stroke="#f548cf" points="529.46,-111.52 519.09,-109.34 525.84,-117.51 529.46,-111.52"/>
</g>
<!-- widgets -->
<g id="node15" class="node">
<title>widgets</title>
<polygon fill="none" stroke="#3ed5a4" points="537.5,-306.76 464.5,-306.76 464.5,-270.76 537.5,-270.76 537.5,-306.76"/>
<text text-anchor="middle" x="501" y="-285.06" font-family="Times,serif" font-size="14.00">widgets</text>
</g>
<!-- onepage&#45;&gt;widgets -->
<g id="edge20" class="edge">
<title>onepage&#45;&gt;widgets</title>
<path fill="none" stroke="#3ed5a4" d="M370.04,-721.68C303.63,-682.7 157.66,-583.17 211,-487.76 273.12,-376.65 355.93,-417.7 455,-337.76 463.62,-330.8 472.25,-322.32 479.66,-314.42"/>
<polygon fill="#3ed5a4" stroke="#3ed5a4" points="482.46,-316.55 486.62,-306.8 477.29,-311.82 482.46,-316.55"/>
</g>
<!-- provider_utils&#45;&gt;utils -->
<g id="edge21" class="edge">
<title>provider_utils&#45;&gt;utils</title>
<path fill="none" stroke="#f548cf" d="M176.4,-270.72C240.03,-235.04 387,-152.64 455.55,-114.2"/>
<polygon fill="#f548cf" stroke="#f548cf" points="457.68,-117.02 464.69,-109.08 454.26,-110.91 457.68,-117.02"/>
</g>
<!-- widgets&#45;&gt;utils -->
<g id="edge22" class="edge">
<title>widgets&#45;&gt;utils</title>
<path fill="none" stroke="#f548cf" d="M500.2,-270.55C498.63,-236.75 495.14,-161.5 493.26,-120.93"/>
<polygon fill="#f548cf" stroke="#f548cf" points="496.76,-120.77 492.8,-110.94 489.76,-121.09 496.76,-120.77"/>
</g>
</g>
</svg>
