<?xml version="1.0" encoding="UTF-8" standalone="no"?>
<!DOCTYPE svg PUBLIC "-//W3C//DTD SVG 1.1//EN"
 "http://www.w3.org/Graphics/SVG/1.1/DTD/svg11.dtd">
<!-- Generated by graphviz version 2.43.0 (0)
 -->
<!-- Title: packages Pages: 1 -->
<svg width="720pt" height="720pt"
 viewBox="0.00 0.00 720.00 720.00" xmlns="http://www.w3.org/2000/svg" xmlns:xlink="http://www.w3.org/1999/xlink">
<g id="graph0" class="graph" transform="scale(0.99 0.99) rotate(0) translate(4 724)">
<title>packages</title>
<polygon fill="white" stroke="transparent" points="-4,4 -4,-724 724,-724 724,4 -4,4"/>
<g id="clust1" class="cluster">
<title>cluster packages</title>
<polygon fill="none" stroke="#6b4949" points="8.78,-24.51 8.78,-695.49 711.22,-695.49 711.22,-24.51 8.78,-24.51"/>
<text text-anchor="middle" x="360" y="-680.29" font-family="Times,serif" font-size="14.00">packages</text>
</g>
<!-- db_client -->
<g id="node1" class="node">
<title>db_client</title>
<polygon fill="none" stroke="#c4fbfc" points="640.77,-563.51 559.77,-563.51 559.77,-527.51 640.77,-527.51 640.77,-563.51"/>
<text text-anchor="middle" x="600.27" y="-541.81" font-family="Times,serif" font-size="14.00">db_client</text>
</g>
<!-- diary -->
<g id="node2" class="node">
<title>diary</title>
<polygon fill="none" stroke="#2c56bd" points="353.27,-342.51 299.27,-342.51 299.27,-306.51 353.27,-306.51 353.27,-342.51"/>
<text text-anchor="middle" x="326.27" y="-320.81" font-family="Times,serif" font-size="14.00">diary</text>
</g>
<!-- theme -->
<g id="node7" class="node">
<title>theme</title>
<polygon fill="none" stroke="#1214e6" points="292.27,-122.51 230.27,-122.51 230.27,-86.51 292.27,-86.51 292.27,-122.51"/>
<text text-anchor="middle" x="261.27" y="-100.81" font-family="Times,serif" font-size="14.00">theme</text>
</g>
<!-- diary&#45;&gt;theme -->
<g id="edge1" class="edge">
<title>diary&#45;&gt;theme</title>
<path fill="none" stroke="#1214e6" d="M321.17,-306.4C309.9,-268.6 282.79,-177.69 269.25,-132.28"/>
<polygon fill="#1214e6" stroke="#1214e6" points="272.56,-131.12 266.35,-122.54 265.85,-133.12 272.56,-131.12"/>
</g>
<!-- i18n -->
<g id="node3" class="node">
<title>i18n</title>
<polygon fill="none" stroke="#d7afc5" points="96.27,-342.51 42.27,-342.51 42.27,-306.51 96.27,-306.51 96.27,-342.51"/>
<text text-anchor="middle" x="69.27" y="-320.81" font-family="Times,serif" font-size="14.00">i18n</text>
</g>
<!-- onepage -->
<g id="node4" class="node">
<title>onepage</title>
<polygon fill="none" stroke="#08802d" points="420.77,-563.51 343.77,-563.51 343.77,-527.51 420.77,-527.51 420.77,-563.51"/>
<text text-anchor="middle" x="382.27" y="-541.81" font-family="Times,serif" font-size="14.00">onepage</text>
</g>
<!-- onepage&#45;&gt;diary -->
<g id="edge2" class="edge">
<title>onepage&#45;&gt;diary</title>
<path fill="none" stroke="#2c56bd" d="M377.87,-527.33C368.16,-489.35 344.81,-398.02 333.14,-352.4"/>
<polygon fill="#2c56bd" stroke="#2c56bd" points="336.51,-351.44 330.64,-342.62 329.73,-353.17 336.51,-351.44"/>
</g>
<!-- onepage&#45;&gt;i18n -->
<g id="edge3" class="edge">
<title>onepage&#45;&gt;i18n</title>
<path fill="none" stroke="#d7afc5" d="M357.97,-527.51C302.27,-488.54 165.35,-392.74 102.18,-348.54"/>
<polygon fill="#d7afc5" stroke="#d7afc5" points="103.97,-345.52 93.77,-342.65 99.96,-351.25 103.97,-345.52"/>
</g>
<!-- provider_utils -->
<g id="node5" class="node">
<title>provider_utils</title>
<polygon fill="none" stroke="#f445c4" points="675.27,-342.51 559.27,-342.51 559.27,-306.51 675.27,-306.51 675.27,-342.51"/>
<text text-anchor="middle" x="617.27" y="-320.81" font-family="Times,serif" font-size="14.00">provider_utils</text>
</g>
<!-- onepage&#45;&gt;provider_utils -->
<g id="edge4" class="edge">
<title>onepage&#45;&gt;provider_utils</title>
<path fill="none" stroke="#f445c4" d="M400.71,-527.33C442.32,-488.55 543.61,-394.16 591.44,-349.58"/>
<polygon fill="#f445c4" stroke="#f445c4" points="593.98,-351.99 598.91,-342.62 589.21,-346.87 593.98,-351.99"/>
</g>
<!-- scroll_calendar -->
<g id="node6" class="node">
<title>scroll_calendar</title>
<polygon fill="none" stroke="#713e2e" points="505.27,-342.51 381.27,-342.51 381.27,-306.51 505.27,-306.51 505.27,-342.51"/>
<text text-anchor="middle" x="443.27" y="-320.81" font-family="Times,serif" font-size="14.00">scroll_calendar</text>
</g>
<!-- onepage&#45;&gt;scroll_calendar -->
<g id="edge5" class="edge">
<title>onepage&#45;&gt;scroll_calendar</title>
<path fill="none" stroke="#713e2e" d="M387.05,-527.33C397.63,-489.35 423.07,-398.02 435.78,-352.4"/>
<polygon fill="#713e2e" stroke="#713e2e" points="439.19,-353.19 438.5,-342.62 432.45,-351.31 439.19,-353.19"/>
</g>
<!-- onepage&#45;&gt;theme -->
<g id="edge6" class="edge">
<title>onepage&#45;&gt;theme</title>
<path fill="none" stroke="#1214e6" d="M343.59,-535.64C267.83,-515.93 101.37,-460.62 33.27,-342.51 -22.78,-245.31 141.57,-157.69 220.98,-122.21"/>
<polygon fill="#1214e6" stroke="#1214e6" points="222.47,-125.38 230.22,-118.15 219.66,-118.97 222.47,-125.38"/>
</g>
<!-- update_requester -->
<g id="node8" class="node">
<title>update_requester</title>
<polygon fill="none" stroke="#a2aa60" points="268.77,-342.51 125.77,-342.51 125.77,-306.51 268.77,-306.51 268.77,-342.51"/>
<text text-anchor="middle" x="197.27" y="-320.81" font-family="Times,serif" font-size="14.00">update_requester</text>
</g>
<!-- onepage&#45;&gt;update_requester -->
<g id="edge7" class="edge">
<title>onepage&#45;&gt;update_requester</title>
<path fill="none" stroke="#a2aa60" d="M367.75,-527.33C335.2,-488.79 256.24,-395.32 218.3,-350.41"/>
<polygon fill="#a2aa60" stroke="#a2aa60" points="220.84,-348 211.72,-342.62 215.5,-352.51 220.84,-348"/>
</g>
<!-- utils -->
<g id="node9" class="node">
<title>utils</title>
<polygon fill="none" stroke="#f548cf" points="671.27,-122.51 617.27,-122.51 617.27,-86.51 671.27,-86.51 671.27,-122.51"/>
<text text-anchor="middle" x="644.27" y="-100.81" font-family="Times,serif" font-size="14.00">utils</text>
</g>
<!-- onepage&#45;&gt;utils -->
<g id="edge8" class="edge">
<title>onepage&#45;&gt;utils</title>
<path fill="none" stroke="#f548cf" d="M420.88,-532.23C488.8,-508.29 627.8,-448.22 684.27,-342.51 721.35,-273.1 682.09,-177.34 658.84,-131.72"/>
<polygon fill="#f548cf" stroke="#f548cf" points="661.9,-130.01 654.16,-122.77 655.7,-133.26 661.9,-130.01"/>
</g>
<!-- widgets -->
<g id="node10" class="node">
<title>widgets</title>
<polygon fill="none" stroke="#3ed5a4" points="521.77,-122.51 448.77,-122.51 448.77,-86.51 521.77,-86.51 521.77,-122.51"/>
<text text-anchor="middle" x="485.27" y="-100.81" font-family="Times,serif" font-size="14.00">widgets</text>
</g>
<!-- onepage&#45;&gt;widgets -->
<g id="edge9" class="edge">
<title>onepage&#45;&gt;widgets</title>
<path fill="none" stroke="#3ed5a4" d="M398.59,-527.4C428.54,-494.68 491.31,-419.6 514.27,-342.51 536.33,-268.43 510.86,-176.52 495.4,-132.06"/>
<polygon fill="#3ed5a4" stroke="#3ed5a4" points="498.67,-130.8 492,-122.57 492.08,-133.17 498.67,-130.8"/>
</g>
<!-- provider_utils&#45;&gt;utils -->
<g id="edge10" class="edge">
<title>provider_utils&#45;&gt;utils</title>
<path fill="none" stroke="#f548cf" d="M619.39,-306.4C624.06,-268.68 635.28,-178.08 640.92,-132.56"/>
<polygon fill="#f548cf" stroke="#f548cf" points="644.4,-132.89 642.16,-122.54 637.46,-132.03 644.4,-132.89"/>
</g>
<!-- scroll_calendar&#45;&gt;theme -->
<g id="edge11" class="edge">
<title>scroll_calendar&#45;&gt;theme</title>
<path fill="none" stroke="#1214e6" d="M428.99,-306.4C396.96,-268.04 319.28,-175 281.96,-130.3"/>
<polygon fill="#1214e6" stroke="#1214e6" points="284.58,-127.97 275.48,-122.54 279.21,-132.46 284.58,-127.97"/>
</g>
<!-- scroll_calendar&#45;&gt;widgets -->
<g id="edge12" class="edge">
<title>scroll_calendar&#45;&gt;widgets</title>
<path fill="none" stroke="#3ed5a4" d="M446.56,-306.4C453.83,-268.68 471.29,-178.08 480.06,-132.56"/>
<polygon fill="#3ed5a4" stroke="#3ed5a4" points="483.53,-133.02 481.99,-122.54 476.66,-131.69 483.53,-133.02"/>
</g>
<!-- update_requester&#45;&gt;theme -->
<g id="edge13" class="edge">
<title>update_requester&#45;&gt;theme</title>
<path fill="none" stroke="#1214e6" d="M202.29,-306.4C213.39,-268.6 240.08,-177.69 253.41,-132.28"/>
<polygon fill="#1214e6" stroke="#1214e6" points="256.81,-133.12 256.27,-122.54 250.09,-131.15 256.81,-133.12"/>
</g>
</g>
</svg>
