<?xml version="1.0" encoding="UTF-8" standalone="no"?>
<!DOCTYPE svg PUBLIC "-//W3C//DTD SVG 1.1//EN"
 "http://www.w3.org/Graphics/SVG/1.1/DTD/svg11.dtd">
<!-- Generated by graphviz version 2.43.0 (0)
 -->
<!-- Title: packages Pages: 1 -->
<svg width="720pt" height="688pt"
 viewBox="0.00 0.00 720.00 687.98" xmlns="http://www.w3.org/2000/svg" xmlns:xlink="http://www.w3.org/1999/xlink">
<g id="graph0" class="graph" transform="scale(0.48 0.48) rotate(0) translate(4 1434)">
<title>packages</title>
<polygon fill="white" stroke="transparent" points="-4,4 -4,-1434 1500.94,-1434 1500.94,4 -4,4"/>
<g id="clust1" class="cluster">
<title>cluster packages/features</title>
<polygon fill="none" stroke="#f62736" points="628,-708.48 628,-1034.47 1422,-1034.47 1422,-708.48 628,-708.48"/>
<text text-anchor="middle" x="1025" y="-1019.27" font-family="Times,serif" font-size="14.00">packages/features</text>
</g>
<g id="clust2" class="cluster">
<title>cluster packages/core</title>
<polygon fill="none" stroke="#7bbd47" points="8,-34.77 8,-673.71 976,-673.71 976,-34.77 8,-34.77"/>
<text text-anchor="middle" x="492" y="-658.51" font-family="Times,serif" font-size="14.00">packages/core</text>
</g>
<g id="clust3" class="cluster">
<title>cluster packages</title>
<polygon fill="none" stroke="#6b4949" points="611,-1069.24 611,-1395.23 705,-1395.23 705,-1069.24 611,-1069.24"/>
<text text-anchor="middle" x="658" y="-1380.03" font-family="Times,serif" font-size="14.00">packages</text>
</g>
<!-- backup -->
<g id="node1" class="node">
<title>backup</title>
<polygon fill="none" stroke="#022013" points="866,-839.77 798,-839.77 798,-803.77 866,-803.77 866,-839.77"/>
<text text-anchor="middle" x="832" y="-818.07" font-family="Times,serif" font-size="14.00">backup</text>
</g>
<!-- db_client -->
<g id="node3" class="node">
<title>db_client</title>
<polygon fill="none" stroke="#c4fbfc" points="967.5,-478.77 886.5,-478.77 886.5,-442.77 967.5,-442.77 967.5,-478.77"/>
<text text-anchor="middle" x="927" y="-457.07" font-family="Times,serif" font-size="14.00">db_client</text>
</g>
<!-- backup&#45;&gt;db_client -->
<g id="edge1" class="edge">
<title>backup&#45;&gt;db_client</title>
<path fill="none" stroke="#c4fbfc" d="M836.58,-803.46C851.88,-745.64 901.29,-558.94 919.86,-488.77"/>
<polygon fill="#c4fbfc" stroke="#c4fbfc" points="923.29,-489.48 922.46,-478.91 916.52,-487.69 923.29,-489.48"/>
</g>
<!-- configurator -->
<g id="node2" class="node">
<title>configurator</title>
<polygon fill="none" stroke="#205f06" points="868,-478.77 764,-478.77 764,-442.77 868,-442.77 868,-478.77"/>
<text text-anchor="middle" x="816" y="-457.07" font-family="Times,serif" font-size="14.00">configurator</text>
</g>
<!-- diary -->
<g id="node4" class="node">
<title>diary</title>
<polygon fill="none" stroke="#2c56bd" points="1034,-839.77 980,-839.77 980,-803.77 1034,-803.77 1034,-839.77"/>
<text text-anchor="middle" x="1007" y="-818.07" font-family="Times,serif" font-size="14.00">diary</text>
</g>
<!-- diary&#45;&gt;db_client -->
<g id="edge2" class="edge">
<title>diary&#45;&gt;db_client</title>
<path fill="none" stroke="#c4fbfc" d="M1003.14,-803.46C990.26,-745.64 948.65,-558.94 933.02,-488.77"/>
<polygon fill="#c4fbfc" stroke="#c4fbfc" points="936.41,-487.91 930.82,-478.91 929.58,-489.44 936.41,-487.91"/>
</g>
<!-- utils -->
<g id="node18" class="node">
<title>utils</title>
<polygon fill="none" stroke="#f548cf" points="793,-165.77 739,-165.77 739,-129.77 793,-129.77 793,-165.77"/>
<text text-anchor="middle" x="766" y="-144.07" font-family="Times,serif" font-size="14.00">utils</text>
</g>
<!-- diary&#45;&gt;utils -->
<g id="edge3" class="edge">
<title>diary&#45;&gt;utils</title>
<path fill="none" stroke="#f548cf" d="M1008.82,-803.51C1013.96,-748.69 1025.19,-574.45 977,-442.77 935.48,-329.32 837.28,-220.42 790.98,-173.25"/>
<polygon fill="#f548cf" stroke="#f548cf" points="793.28,-170.6 783.75,-165.96 788.31,-175.52 793.28,-170.6"/>
</g>
<!-- exporter -->
<g id="node5" class="node">
<title>exporter</title>
<polygon fill="none" stroke="#3e99a6" points="962,-839.77 884,-839.77 884,-803.77 962,-803.77 962,-839.77"/>
<text text-anchor="middle" x="923" y="-818.07" font-family="Times,serif" font-size="14.00">exporter</text>
</g>
<!-- exporter&#45;&gt;db_client -->
<g id="edge4" class="edge">
<title>exporter&#45;&gt;db_client</title>
<path fill="none" stroke="#c4fbfc" d="M923.19,-803.46C923.84,-745.76 925.91,-559.7 926.69,-489.2"/>
<polygon fill="#c4fbfc" stroke="#c4fbfc" points="930.2,-488.95 926.81,-478.91 923.2,-488.87 930.2,-488.95"/>
</g>
<!-- haptics -->
<g id="node6" class="node">
<title>haptics</title>
<polygon fill="none" stroke="#26343c" points="1120,-839.77 1052,-839.77 1052,-803.77 1120,-803.77 1120,-839.77"/>
<text text-anchor="middle" x="1086" y="-818.07" font-family="Times,serif" font-size="14.00">haptics</text>
</g>
<!-- prefs_client -->
<g id="node12" class="node">
<title>prefs_client</title>
<polygon fill="none" stroke="#080f51" points="968,-165.77 868,-165.77 868,-129.77 968,-129.77 968,-165.77"/>
<text text-anchor="middle" x="918" y="-144.07" font-family="Times,serif" font-size="14.00">prefs_client</text>
</g>
<!-- haptics&#45;&gt;prefs_client -->
<g id="edge5" class="edge">
<title>haptics&#45;&gt;prefs_client</title>
<path fill="none" stroke="#080f51" d="M1083.77,-803.63C1076.59,-749.87 1052.44,-580.03 1017,-442.77 991.06,-342.31 948.09,-226.55 928.42,-175.41"/>
<polygon fill="#080f51" stroke="#080f51" points="931.68,-174.13 924.81,-166.07 925.15,-176.66 931.68,-174.13"/>
</g>
<!-- i18n -->
<g id="node7" class="node">
<title>i18n</title>
<polygon fill="none" stroke="#d7afc5" points="70,-478.77 16,-478.77 16,-442.77 70,-442.77 70,-478.77"/>
<text text-anchor="middle" x="43" y="-457.07" font-family="Times,serif" font-size="14.00">i18n</text>
</g>
<!-- in_app_reviewer -->
<g id="node8" class="node">
<title>in_app_reviewer</title>
<polygon fill="none" stroke="#1253da" points="1271.5,-839.77 1138.5,-839.77 1138.5,-803.77 1271.5,-803.77 1271.5,-839.77"/>
<text text-anchor="middle" x="1205" y="-818.07" font-family="Times,serif" font-size="14.00">in_app_reviewer</text>
</g>
<!-- in_app_reviewer&#45;&gt;prefs_client -->
<g id="edge6" class="edge">
<title>in_app_reviewer&#45;&gt;prefs_client</title>
<path fill="none" stroke="#080f51" d="M1197.62,-803.49C1158.65,-712.24 976.88,-286.64 929.38,-175.42"/>
<polygon fill="#080f51" stroke="#080f51" points="932.48,-173.77 925.33,-165.94 926.04,-176.52 932.48,-173.77"/>
</g>
<!-- notification_client -->
<g id="node9" class="node">
<title>notification_client</title>
<polygon fill="none" stroke="#4d6b02" points="231.5,-478.77 88.5,-478.77 88.5,-442.77 231.5,-442.77 231.5,-478.77"/>
<text text-anchor="middle" x="160" y="-457.07" font-family="Times,serif" font-size="14.00">notification_client</text>
</g>
<!-- notification_client&#45;&gt;prefs_client -->
<g id="edge7" class="edge">
<title>notification_client&#45;&gt;prefs_client</title>
<path fill="none" stroke="#080f51" d="M201.56,-442.72C330.81,-389.69 725.49,-227.76 866.91,-169.73"/>
<polygon fill="#080f51" stroke="#080f51" points="868.33,-172.94 876.25,-165.9 865.67,-166.46 868.33,-172.94"/>
</g>
<!-- onepage -->
<g id="node10" class="node">
<title>onepage</title>
<polygon fill="none" stroke="#08802d" points="696.5,-1199.77 619.5,-1199.77 619.5,-1163.77 696.5,-1163.77 696.5,-1199.77"/>
<text text-anchor="middle" x="658" y="-1178.07" font-family="Times,serif" font-size="14.00">onepage</text>
</g>
<!-- onepage&#45;&gt;backup -->
<g id="edge8" class="edge">
<title>onepage&#45;&gt;backup</title>
<path fill="none" stroke="#022013" d="M666.39,-1163.5C694.47,-1105.73 785.28,-918.9 819.13,-849.26"/>
<polygon fill="#022013" stroke="#022013" points="822.47,-850.39 823.69,-839.87 816.17,-847.33 822.47,-850.39"/>
</g>
<!-- onepage&#45;&gt;configurator -->
<g id="edge9" class="edge">
<title>onepage&#45;&gt;configurator</title>
<path fill="none" stroke="#205f06" d="M649.66,-1163.53C624.29,-1108.71 552.27,-933.93 594,-795.77 633.54,-664.85 743.09,-538.21 791.95,-486.35"/>
<polygon fill="#205f06" stroke="#205f06" points="794.62,-488.63 798.97,-478.97 789.54,-483.8 794.62,-488.63"/>
</g>
<!-- onepage&#45;&gt;db_client -->
<g id="edge10" class="edge">
<title>onepage&#45;&gt;db_client</title>
<path fill="none" stroke="#c4fbfc" d="M651.23,-1163.51C630.52,-1107.93 572.41,-929.42 624,-795.77 638.83,-757.37 833.83,-556.6 902.93,-486.2"/>
<polygon fill="#c4fbfc" stroke="#c4fbfc" points="905.46,-488.62 909.97,-479.03 900.46,-483.71 905.46,-488.62"/>
</g>
<!-- onepage&#45;&gt;diary -->
<g id="edge11" class="edge">
<title>onepage&#45;&gt;diary</title>
<path fill="none" stroke="#2c56bd" d="M677.31,-1163.51C727.89,-1117.9 867.49,-989.55 971,-870.77 977.1,-863.77 983.32,-855.83 988.83,-848.45"/>
<polygon fill="#2c56bd" stroke="#2c56bd" points="991.84,-850.26 994.93,-840.13 986.19,-846.13 991.84,-850.26"/>
</g>
<!-- onepage&#45;&gt;exporter -->
<g id="edge12" class="edge">
<title>onepage&#45;&gt;exporter</title>
<path fill="none" stroke="#3e99a6" d="M670.78,-1163.5C713.81,-1105.37 853.55,-916.6 904.33,-847.99"/>
<polygon fill="#3e99a6" stroke="#3e99a6" points="907.21,-849.99 910.35,-839.87 901.58,-845.82 907.21,-849.99"/>
</g>
<!-- onepage&#45;&gt;haptics -->
<g id="edge13" class="edge">
<title>onepage&#45;&gt;haptics</title>
<path fill="none" stroke="#26343c" d="M682.1,-1163.51C744.44,-1118.42 915.07,-992.15 1043,-870.77 1050.51,-863.65 1058.21,-855.4 1064.98,-847.78"/>
<polygon fill="#26343c" stroke="#26343c" points="1067.97,-849.67 1071.91,-839.83 1062.7,-845.07 1067.97,-849.67"/>
</g>
<!-- onepage&#45;&gt;i18n -->
<g id="edge14" class="edge">
<title>onepage&#45;&gt;i18n</title>
<path fill="none" stroke="#d7afc5" d="M642.26,-1163.59C573.4,-1088.17 292.53,-778.36 79,-509.77 73.22,-502.5 67.1,-494.48 61.58,-487.11"/>
<polygon fill="#d7afc5" stroke="#d7afc5" points="64.21,-484.77 55.43,-478.83 58.59,-488.95 64.21,-484.77"/>
</g>
<!-- onepage&#45;&gt;in_app_reviewer -->
<g id="edge15" class="edge">
<title>onepage&#45;&gt;in_app_reviewer</title>
<path fill="none" stroke="#1253da" d="M684.01,-1163.75C773.46,-1105.21 1068.44,-912.15 1170.15,-845.58"/>
<polygon fill="#1253da" stroke="#1253da" points="1172.38,-848.31 1178.83,-839.9 1168.54,-842.45 1172.38,-848.31"/>
</g>
<!-- onepage&#45;&gt;notification_client -->
<g id="edge16" class="edge">
<title>onepage&#45;&gt;notification_client</title>
<path fill="none" stroke="#4d6b02" d="M645.07,-1163.46C610.22,-1116.7 511.66,-983.74 433,-870.77 333.3,-727.57 218.78,-552.33 176.66,-487.48"/>
<polygon fill="#4d6b02" stroke="#4d6b02" points="179.58,-485.56 171.2,-479.08 173.71,-489.37 179.58,-485.56"/>
</g>
<!-- photo_client -->
<g id="node11" class="node">
<title>photo_client</title>
<polygon fill="none" stroke="#e227a9" points="354,-478.77 250,-478.77 250,-442.77 354,-442.77 354,-478.77"/>
<text text-anchor="middle" x="302" y="-457.07" font-family="Times,serif" font-size="14.00">photo_client</text>
</g>
<!-- onepage&#45;&gt;photo_client -->
<g id="edge17" class="edge">
<title>onepage&#45;&gt;photo_client</title>
<path fill="none" stroke="#e227a9" d="M646.11,-1163.52C614.66,-1117.41 527.67,-986.96 469,-870.77 398.61,-731.37 334.55,-554.99 311.28,-488.64"/>
<polygon fill="#e227a9" stroke="#e227a9" points="314.5,-487.24 307.9,-478.95 307.89,-489.55 314.5,-487.24"/>
</g>
<!-- onepage&#45;&gt;prefs_client -->
<g id="edge18" class="edge">
<title>onepage&#45;&gt;prefs_client</title>
<path fill="none" stroke="#080f51" d="M696.57,-1179.84C830,-1174.27 1273.74,-1135.77 1455,-870.77 1648.92,-587.28 1113.62,-258.17 958.66,-170.92"/>
<polygon fill="#080f51" stroke="#080f51" points="960.29,-167.82 949.86,-165.99 956.88,-173.93 960.29,-167.82"/>
</g>
<!-- provider_utils -->
<g id="node13" class="node">
<title>provider_utils</title>
<polygon fill="none" stroke="#f445c4" points="488,-478.77 372,-478.77 372,-442.77 488,-442.77 488,-478.77"/>
<text text-anchor="middle" x="430" y="-457.07" font-family="Times,serif" font-size="14.00">provider_utils</text>
</g>
<!-- onepage&#45;&gt;provider_utils -->
<g id="edge19" class="edge">
<title>onepage&#45;&gt;provider_utils</title>
<path fill="none" stroke="#f445c4" d="M646.02,-1163.57C614.99,-1118.12 531.68,-990.11 492,-870.77 445.95,-732.3 433.94,-555.98 430.95,-489.13"/>
<polygon fill="#f445c4" stroke="#f445c4" points="434.44,-488.85 430.53,-479.01 427.45,-489.14 434.44,-488.85"/>
</g>
<!-- scroll_calendar -->
<g id="node14" class="node">
<title>scroll_calendar</title>
<polygon fill="none" stroke="#713e2e" points="1414,-839.77 1290,-839.77 1290,-803.77 1414,-803.77 1414,-839.77"/>
<text text-anchor="middle" x="1352" y="-818.07" font-family="Times,serif" font-size="14.00">scroll_calendar</text>
</g>
<!-- onepage&#45;&gt;scroll_calendar -->
<g id="edge20" class="edge">
<title>onepage&#45;&gt;scroll_calendar</title>
<path fill="none" stroke="#713e2e" d="M696.86,-1163.62C796.27,-1119.28 1067.08,-995.57 1281,-870.77 1294.13,-863.11 1308.1,-853.92 1320.13,-845.63"/>
<polygon fill="#713e2e" stroke="#713e2e" points="1322.31,-848.38 1328.52,-839.8 1318.31,-842.64 1322.31,-848.38"/>
</g>
<!-- theme -->
<g id="node15" class="node">
<title>theme</title>
<polygon fill="none" stroke="#1214e6" points="568,-478.77 506,-478.77 506,-442.77 568,-442.77 568,-478.77"/>
<text text-anchor="middle" x="537" y="-457.07" font-family="Times,serif" font-size="14.00">theme</text>
</g>
<!-- onepage&#45;&gt;theme -->
<g id="edge21" class="edge">
<title>onepage&#45;&gt;theme</title>
<path fill="none" stroke="#1214e6" d="M646.14,-1163.67C615.6,-1118.44 534.71,-990.94 507,-870.77 474.49,-729.81 512.49,-554.95 529.55,-488.81"/>
<polygon fill="#1214e6" stroke="#1214e6" points="533.02,-489.36 532.19,-478.8 526.25,-487.58 533.02,-489.36"/>
</g>
<!-- tracker -->
<g id="node16" class="node">
<title>tracker</title>
<polygon fill="none" stroke="#a0eb6a" points="654,-478.77 586,-478.77 586,-442.77 654,-442.77 654,-478.77"/>
<text text-anchor="middle" x="620" y="-457.07" font-family="Times,serif" font-size="14.00">tracker</text>
</g>
<!-- onepage&#45;&gt;tracker -->
<g id="edge22" class="edge">
<title>onepage&#45;&gt;tracker</title>
<path fill="none" stroke="#a0eb6a" d="M647,-1163.52C618.66,-1117.96 543.61,-989.7 518,-870.77 486.64,-725.15 569.64,-552.52 604.96,-487.9"/>
<polygon fill="#a0eb6a" stroke="#a0eb6a" points="608.21,-489.27 610,-478.82 602.09,-485.87 608.21,-489.27"/>
</g>
<!-- update_requester -->
<g id="node17" class="node">
<title>update_requester</title>
<polygon fill="none" stroke="#a2aa60" points="779.5,-839.77 636.5,-839.77 636.5,-803.77 779.5,-803.77 779.5,-839.77"/>
<text text-anchor="middle" x="708" y="-818.07" font-family="Times,serif" font-size="14.00">update_requester</text>
</g>
<!-- onepage&#45;&gt;update_requester -->
<g id="edge23" class="edge">
<title>onepage&#45;&gt;update_requester</title>
<path fill="none" stroke="#a2aa60" d="M660.41,-1163.5C668.45,-1105.97 694.36,-920.43 704.18,-850.12"/>
<polygon fill="#a2aa60" stroke="#a2aa60" points="707.7,-850.25 705.61,-839.87 700.76,-849.29 707.7,-850.25"/>
</g>
<!-- onepage&#45;&gt;utils -->
<g id="edge24" class="edge">
<title>onepage&#45;&gt;utils</title>
<path fill="none" stroke="#f548cf" d="M696.57,-1179.24C826.94,-1171.72 1252.69,-1127.63 1426,-870.77 1639.51,-554.34 969.29,-236.97 802.6,-164.26"/>
<polygon fill="#f548cf" stroke="#f548cf" points="803.81,-160.97 793.25,-160.2 801.03,-167.39 803.81,-160.97"/>
</g>
<!-- widgets -->
<g id="node19" class="node">
<title>widgets</title>
<polygon fill="none" stroke="#3ed5a4" points="745.5,-478.77 672.5,-478.77 672.5,-442.77 745.5,-442.77 745.5,-478.77"/>
<text text-anchor="middle" x="709" y="-457.07" font-family="Times,serif" font-size="14.00">widgets</text>
</g>
<!-- onepage&#45;&gt;widgets -->
<g id="edge25" class="edge">
<title>onepage&#45;&gt;widgets</title>
<path fill="none" stroke="#3ed5a4" d="M647.45,-1163.64C615.64,-1109.84 524.68,-939.33 556,-795.77 582.73,-673.24 658.66,-541.9 692.44,-487.57"/>
<polygon fill="#3ed5a4" stroke="#3ed5a4" points="695.51,-489.26 697.86,-478.92 689.58,-485.53 695.51,-489.26"/>
</g>
<!-- provider_utils&#45;&gt;utils -->
<g id="edge26" class="edge">
<title>provider_utils&#45;&gt;utils</title>
<path fill="none" stroke="#f548cf" d="M448.54,-442.61C504.99,-390.36 674.85,-233.14 740.09,-172.75"/>
<polygon fill="#f548cf" stroke="#f548cf" points="742.55,-175.24 747.51,-165.88 737.8,-170.11 742.55,-175.24"/>
</g>
<!-- update_requester&#45;&gt;configurator -->
<g id="edge27" class="edge">
<title>update_requester&#45;&gt;configurator</title>
<path fill="none" stroke="#205f06" d="M713.21,-803.46C730.6,-745.64 786.77,-558.94 807.88,-488.77"/>
<polygon fill="#205f06" stroke="#205f06" points="811.31,-489.5 810.84,-478.91 804.61,-487.48 811.31,-489.5"/>
</g>
<!-- widgets&#45;&gt;utils -->
<g id="edge28" class="edge">
<title>widgets&#45;&gt;utils</title>
<path fill="none" stroke="#f548cf" d="M712.15,-442.61C721.57,-391.21 749.61,-238.22 761.05,-175.77"/>
<polygon fill="#f548cf" stroke="#f548cf" points="764.5,-176.35 762.86,-165.88 757.62,-175.09 764.5,-176.35"/>
</g>
</g>
</svg>
