<?xml version="1.0" encoding="UTF-8" standalone="no"?>
<!DOCTYPE svg PUBLIC "-//W3C//DTD SVG 1.1//EN"
 "http://www.w3.org/Graphics/SVG/1.1/DTD/svg11.dtd">
<!-- Generated by graphviz version 2.43.0 (0)xxx
 -->
<!-- Title: packages Pages: 1 -->
<svg width="720pt" height="720pt"
 viewBox="0.00 0.00 720.00 720.00" xmlns="http://www.w3.org/2000/svg" xmlns:xlink="http://www.w3.org/1999/xlink">
<g id="graph0" class="graph" transform="scale(0.99 0.99) rotate(0) translate(4 724)">
<title>packages</title>
<polygon fill="white" stroke="transparent" points="-4,4 -4,-724 724,-724 724,4 -4,4"/>
<g id="clust1" class="cluster">
<title>cluster packages</title>
<polygon fill="none" stroke="#6b4949" points="12.8,-24.51 12.8,-695.49 707.2,-695.49 707.2,-24.51 12.8,-24.51"/>
<text text-anchor="middle" x="360" y="-680.29" font-family="Times,serif" font-size="14.00">packages</text>
</g>
<!-- i18n -->
<g id="node1" class="node">
<title>i18n</title>
<polygon fill="none" stroke="#d7afc5" points="148.4,-122.51 94.4,-122.51 94.4,-86.51 148.4,-86.51 148.4,-122.51"/>
<text text-anchor="middle" x="121.4" y="-100.81" font-family="Times,serif" font-size="14.00">i18n</text>
</g>
<!-- onepage -->
<g id="node2" class="node">
<title>onepage</title>
<polygon fill="none" stroke="#08802d" points="420.9,-563.51 343.9,-563.51 343.9,-527.51 420.9,-527.51 420.9,-563.51"/>
<text text-anchor="middle" x="382.4" y="-541.81" font-family="Times,serif" font-size="14.00">onepage</text>
</g>
<!-- onepage&#45;&gt;i18n -->
<g id="edge1" class="edge">
<title>onepage&#45;&gt;i18n</title>
<path fill="none" stroke="#d7afc5" d="M343.71,-531.17C277.86,-506.1 145.93,-445.04 92.4,-342.51 56.29,-273.36 88.94,-177.8 108.77,-132.03"/>
<polygon fill="#d7afc5" stroke="#d7afc5" points="112.02,-133.35 112.9,-122.79 105.63,-130.49 112.02,-133.35"/>
</g>
<!-- scroll_calendar -->
<g id="node3" class="node">
<title>scroll_calendar</title>
<polygon fill="none" stroke="#713e2e" points="510.4,-342.51 386.4,-342.51 386.4,-306.51 510.4,-306.51 510.4,-342.51"/>
<text text-anchor="middle" x="448.4" y="-320.81" font-family="Times,serif" font-size="14.00">scroll_calendar</text>
</g>
<!-- onepage&#45;&gt;scroll_calendar -->
<g id="edge2" class="edge">
<title>onepage&#45;&gt;scroll_calendar</title>
<path fill="none" stroke="#713e2e" d="M387.58,-527.33C399.03,-489.35 426.55,-398.02 440.3,-352.4"/>
<polygon fill="#713e2e" stroke="#713e2e" points="443.71,-353.2 443.25,-342.62 437.01,-351.18 443.71,-353.2"/>
</g>
<!-- theme -->
<g id="node4" class="node">
<title>theme</title>
<polygon fill="none" stroke="#1214e6" points="328.4,-122.51 266.4,-122.51 266.4,-86.51 328.4,-86.51 328.4,-122.51"/>
<text text-anchor="middle" x="297.4" y="-100.81" font-family="Times,serif" font-size="14.00">theme</text>
</g>
<!-- onepage&#45;&gt;theme -->
<g id="edge3" class="edge">
<title>onepage&#45;&gt;theme</title>
<path fill="none" stroke="#1214e6" d="M379.07,-527.3C366.04,-460.02 318.5,-214.48 302.61,-132.42"/>
<polygon fill="#1214e6" stroke="#1214e6" points="306.05,-131.75 300.71,-122.6 299.17,-133.08 306.05,-131.75"/>
</g>
<!-- update_requester -->
<g id="node5" class="node">
<title>update_requester</title>
<polygon fill="none" stroke="#a2aa60" points="243.9,-342.51 100.9,-342.51 100.9,-306.51 243.9,-306.51 243.9,-342.51"/>
<text text-anchor="middle" x="172.4" y="-320.81" font-family="Times,serif" font-size="14.00">update_requester</text>
</g>
<!-- onepage&#45;&gt;update_requester -->
<g id="edge4" class="edge">
<title>onepage&#45;&gt;update_requester</title>
<path fill="none" stroke="#a2aa60" d="M365.92,-527.33C328.81,-488.63 238.6,-394.54 195.74,-349.86"/>
<polygon fill="#a2aa60" stroke="#a2aa60" points="198.25,-347.41 188.8,-342.62 193.2,-352.26 198.25,-347.41"/>
</g>
<!-- utils -->
<g id="node6" class="node">
<title>utils</title>
<polygon fill="none" stroke="#f548cf" points="646.4,-342.51 592.4,-342.51 592.4,-306.51 646.4,-306.51 646.4,-342.51"/>
<text text-anchor="middle" x="619.4" y="-320.81" font-family="Times,serif" font-size="14.00">utils</text>
</g>
<!-- onepage&#45;&gt;utils -->
<g id="edge5" class="edge">
<title>onepage&#45;&gt;utils</title>
<path fill="none" stroke="#f548cf" d="M401,-527.33C442.96,-488.55 545.11,-394.16 593.35,-349.58"/>
<polygon fill="#f548cf" stroke="#f548cf" points="595.92,-351.97 600.89,-342.62 591.17,-346.83 595.92,-351.97"/>
</g>
<!-- widgets -->
<g id="node7" class="node">
<title>widgets</title>
<polygon fill="none" stroke="#3ed5a4" points="504.9,-122.51 431.9,-122.51 431.9,-86.51 504.9,-86.51 504.9,-122.51"/>
<text text-anchor="middle" x="468.4" y="-100.81" font-family="Times,serif" font-size="14.00">widgets</text>
</g>
<!-- onepage&#45;&gt;widgets -->
<g id="edge6" class="edge">
<title>onepage&#45;&gt;widgets</title>
<path fill="none" stroke="#3ed5a4" d="M421.15,-529.53C483.96,-502.87 605.97,-440.57 655.4,-342.51 699.88,-254.27 577.42,-167.46 509.78,-127.83"/>
<polygon fill="#3ed5a4" stroke="#3ed5a4" points="511.44,-124.74 501.03,-122.78 507.94,-130.81 511.44,-124.74"/>
</g>
<!-- scroll_calendar&#45;&gt;widgets -->
<g id="edge7" class="edge">
<title>scroll_calendar&#45;&gt;widgets</title>
<path fill="none" stroke="#3ed5a4" d="M449.97,-306.4C453.43,-268.68 461.74,-178.08 465.92,-132.56"/>
<polygon fill="#3ed5a4" stroke="#3ed5a4" points="469.41,-132.82 466.84,-122.54 462.44,-132.18 469.41,-132.82"/>
</g>
<!-- update_requester&#45;&gt;i18n -->
<g id="edge8" class="edge">
<title>update_requester&#45;&gt;i18n</title>
<path fill="none" stroke="#d7afc5" d="M168.4,-306.4C159.55,-268.6 138.29,-177.69 127.66,-132.28"/>
<polygon fill="#d7afc5" stroke="#d7afc5" points="131.07,-131.48 125.38,-122.54 124.25,-133.07 131.07,-131.48"/>
</g>
<!-- update_requester&#45;&gt;theme -->
<g id="edge9" class="edge">
<title>update_requester&#45;&gt;theme</title>
<path fill="none" stroke="#1214e6" d="M182.21,-306.4C204.02,-268.36 256.67,-176.54 282.54,-131.42"/>
<polygon fill="#1214e6" stroke="#1214e6" points="285.7,-132.95 287.64,-122.54 279.63,-129.47 285.7,-132.95"/>
</g>
</g>
</svg>
