<?xml version="1.0" encoding="UTF-8" standalone="no"?>
<!DOCTYPE svg PUBLIC "-//W3C//DTD SVG 1.1//EN"
 "http://www.w3.org/Graphics/SVG/1.1/DTD/svg11.dtd">
<!-- Generated by graphviz version 2.43.0 (0)
 -->
<!-- Title: packages Pages: 1 -->
<svg width="720pt" height="683pt"
 viewBox="0.00 0.00 720.00 682.99" xmlns="http://www.w3.org/2000/svg" xmlns:xlink="http://www.w3.org/1999/xlink">
<g id="graph0" class="graph" transform="scale(0.61 0.61) rotate(0) translate(4 1122)">
<title>packages</title>
<polygon fill="white" stroke="transparent" points="-4,4 -4,-1122 1183.01,-1122 1183.01,4 -4,4"/>
<g id="clust1" class="cluster">
<title>cluster packages/features</title>
<polygon fill="none" stroke="#f62736" points="317,-553.9 317,-808.77 1110,-808.77 1110,-553.9 317,-553.9"/>
<text text-anchor="middle" x="713.5" y="-793.57" font-family="Times,serif" font-size="14.00">packages/features</text>
</g>
<g id="clust2" class="cluster">
<title>cluster packages/core</title>
<polygon fill="none" stroke="#7bbd47" points="8,-27.19 8,-526.72 645,-526.72 645,-27.19 8,-27.19"/>
<text text-anchor="middle" x="326.5" y="-511.52" font-family="Times,serif" font-size="14.00">packages/core</text>
</g>
<g id="clust3" class="cluster">
<title>cluster packages</title>
<polygon fill="none" stroke="#6b4949" points="454,-835.95 454,-1090.81 548,-1090.81 548,-835.95 454,-835.95"/>
<text text-anchor="middle" x="501" y="-1075.61" font-family="Times,serif" font-size="14.00">packages</text>
</g>
<!-- backup -->
<g id="node1" class="node">
<title>backup</title>
<polygon fill="none" stroke="#022013" points="535,-660.19 467,-660.19 467,-624.19 535,-624.19 535,-660.19"/>
<text text-anchor="middle" x="501" y="-638.49" font-family="Times,serif" font-size="14.00">backup</text>
</g>
<!-- db_client -->
<g id="node2" class="node">
<title>db_client</title>
<polygon fill="none" stroke="#c4fbfc" points="636.5,-378.19 555.5,-378.19 555.5,-342.19 636.5,-342.19 636.5,-378.19"/>
<text text-anchor="middle" x="596" y="-356.49" font-family="Times,serif" font-size="14.00">db_client</text>
</g>
<!-- backup&#45;&gt;db_client -->
<g id="edge1" class="edge">
<title>backup&#45;&gt;db_client</title>
<path fill="none" stroke="#c4fbfc" d="M506.8,-624.09C522.77,-577.03 567.46,-445.29 586.84,-388.17"/>
<polygon fill="#c4fbfc" stroke="#c4fbfc" points="590.26,-389.01 590.16,-378.41 583.63,-386.76 590.26,-389.01"/>
</g>
<!-- diary -->
<g id="node3" class="node">
<title>diary</title>
<polygon fill="none" stroke="#2c56bd" points="703,-660.19 649,-660.19 649,-624.19 703,-624.19 703,-660.19"/>
<text text-anchor="middle" x="676" y="-638.49" font-family="Times,serif" font-size="14.00">diary</text>
</g>
<!-- diary&#45;&gt;db_client -->
<g id="edge2" class="edge">
<title>diary&#45;&gt;db_client</title>
<path fill="none" stroke="#c4fbfc" d="M671.12,-624.09C657.67,-577.03 620.03,-445.29 603.71,-388.17"/>
<polygon fill="#c4fbfc" stroke="#c4fbfc" points="607.03,-387.06 600.92,-378.41 600.3,-388.99 607.03,-387.06"/>
</g>
<!-- utils -->
<g id="node15" class="node">
<title>utils</title>
<polygon fill="none" stroke="#f548cf" points="406,-133.19 352,-133.19 352,-97.19 406,-97.19 406,-133.19"/>
<text text-anchor="middle" x="379" y="-111.49" font-family="Times,serif" font-size="14.00">utils</text>
</g>
<!-- diary&#45;&gt;utils -->
<g id="edge3" class="edge">
<title>diary&#45;&gt;utils</title>
<path fill="none" stroke="#f548cf" d="M678.51,-624.07C684.69,-576.25 696.63,-438.46 646,-342.19 593.14,-241.68 475.04,-167.42 415.22,-134.69"/>
<polygon fill="#f548cf" stroke="#f548cf" points="416.6,-131.45 406.13,-129.79 413.28,-137.62 416.6,-131.45"/>
</g>
<!-- exporter -->
<g id="node4" class="node">
<title>exporter</title>
<polygon fill="none" stroke="#3e99a6" points="631,-660.19 553,-660.19 553,-624.19 631,-624.19 631,-660.19"/>
<text text-anchor="middle" x="592" y="-638.49" font-family="Times,serif" font-size="14.00">exporter</text>
</g>
<!-- exporter&#45;&gt;db_client -->
<g id="edge4" class="edge">
<title>exporter&#45;&gt;db_client</title>
<path fill="none" stroke="#c4fbfc" d="M592.24,-624.09C592.92,-577.13 594.79,-445.84 595.61,-388.53"/>
<polygon fill="#c4fbfc" stroke="#c4fbfc" points="599.11,-388.46 595.75,-378.41 592.11,-388.36 599.11,-388.46"/>
</g>
<!-- haptics -->
<g id="node5" class="node">
<title>haptics</title>
<polygon fill="none" stroke="#26343c" points="789,-660.19 721,-660.19 721,-624.19 789,-624.19 789,-660.19"/>
<text text-anchor="middle" x="755" y="-638.49" font-family="Times,serif" font-size="14.00">haptics</text>
</g>
<!-- prefs_client -->
<g id="node10" class="node">
<title>prefs_client</title>
<polygon fill="none" stroke="#080f51" points="637,-133.19 537,-133.19 537,-97.19 637,-97.19 637,-133.19"/>
<text text-anchor="middle" x="587" y="-111.49" font-family="Times,serif" font-size="14.00">prefs_client</text>
</g>
<!-- haptics&#45;&gt;prefs_client -->
<g id="edge5" class="edge">
<title>haptics&#45;&gt;prefs_client</title>
<path fill="none" stroke="#080f51" d="M752.19,-624.02C744.39,-577.75 720.67,-446.87 686,-342.19 661.31,-267.65 621.22,-183.98 600.44,-142.48"/>
<polygon fill="#080f51" stroke="#080f51" points="603.46,-140.69 595.84,-133.33 597.21,-143.84 603.46,-140.69"/>
</g>
<!-- i18n -->
<g id="node6" class="node">
<title>i18n</title>
<polygon fill="none" stroke="#d7afc5" points="376,-378.19 322,-378.19 322,-342.19 376,-342.19 376,-378.19"/>
<text text-anchor="middle" x="349" y="-356.49" font-family="Times,serif" font-size="14.00">i18n</text>
</g>
<!-- in_app_reviewer -->
<g id="node7" class="node">
<title>in_app_reviewer</title>
<polygon fill="none" stroke="#1253da" points="940.5,-660.19 807.5,-660.19 807.5,-624.19 940.5,-624.19 940.5,-660.19"/>
<text text-anchor="middle" x="874" y="-638.49" font-family="Times,serif" font-size="14.00">in_app_reviewer</text>
</g>
<!-- in_app_reviewer&#45;&gt;prefs_client -->
<g id="edge6" class="edge">
<title>in_app_reviewer&#45;&gt;prefs_client</title>
<path fill="none" stroke="#080f51" d="M864.61,-624.02C822.63,-547.21 651.88,-234.87 601.23,-142.22"/>
<polygon fill="#080f51" stroke="#080f51" points="604.18,-140.32 596.31,-133.22 598.04,-143.68 604.18,-140.32"/>
</g>
<!-- notification_client -->
<g id="node8" class="node">
<title>notification_client</title>
<polygon fill="none" stroke="#4d6b02" points="537.5,-378.19 394.5,-378.19 394.5,-342.19 537.5,-342.19 537.5,-378.19"/>
<text text-anchor="middle" x="466" y="-356.49" font-family="Times,serif" font-size="14.00">notification_client</text>
</g>
<!-- notification_client&#45;&gt;prefs_client -->
<g id="edge7" class="edge">
<title>notification_client&#45;&gt;prefs_client</title>
<path fill="none" stroke="#080f51" d="M474.51,-342.1C495.34,-300.27 548.99,-192.51 573.92,-142.46"/>
<polygon fill="#080f51" stroke="#080f51" points="577.18,-143.77 578.5,-133.25 570.91,-140.65 577.18,-143.77"/>
</g>
<!-- onepage -->
<g id="node9" class="node">
<title>onepage</title>
<polygon fill="none" stroke="#08802d" points="539.5,-942.19 462.5,-942.19 462.5,-906.19 539.5,-906.19 539.5,-942.19"/>
<text text-anchor="middle" x="501" y="-920.49" font-family="Times,serif" font-size="14.00">onepage</text>
</g>
<!-- onepage&#45;&gt;backup -->
<g id="edge8" class="edge">
<title>onepage&#45;&gt;backup</title>
<path fill="none" stroke="#022013" d="M501,-906.09C501,-859.13 501,-727.84 501,-670.53"/>
<polygon fill="#022013" stroke="#022013" points="504.5,-670.41 501,-660.41 497.5,-670.41 504.5,-670.41"/>
</g>
<!-- onepage&#45;&gt;db_client -->
<g id="edge9" class="edge">
<title>onepage&#45;&gt;db_client</title>
<path fill="none" stroke="#c4fbfc" d="M476.23,-906.06C414.08,-860.83 260.12,-733.57 313,-616.19 370.03,-489.59 445.37,-503.8 547,-409.19 555.11,-401.64 563.79,-393.24 571.56,-385.61"/>
<polygon fill="#c4fbfc" stroke="#c4fbfc" points="574.32,-387.8 578.97,-378.28 569.4,-382.82 574.32,-387.8"/>
</g>
<!-- onepage&#45;&gt;diary -->
<g id="edge10" class="edge">
<title>onepage&#45;&gt;diary</title>
<path fill="none" stroke="#2c56bd" d="M511.68,-906.09C541.28,-858.74 624.46,-725.65 659.79,-669.11"/>
<polygon fill="#2c56bd" stroke="#2c56bd" points="662.9,-670.75 665.23,-660.41 656.97,-667.04 662.9,-670.75"/>
</g>
<!-- onepage&#45;&gt;exporter -->
<g id="edge11" class="edge">
<title>onepage&#45;&gt;exporter</title>
<path fill="none" stroke="#3e99a6" d="M506.56,-906.09C521.85,-859.03 564.66,-727.29 583.23,-670.17"/>
<polygon fill="#3e99a6" stroke="#3e99a6" points="586.64,-671 586.4,-660.41 579.98,-668.84 586.64,-671"/>
</g>
<!-- onepage&#45;&gt;haptics -->
<g id="edge12" class="edge">
<title>onepage&#45;&gt;haptics</title>
<path fill="none" stroke="#26343c" d="M516.66,-906.05C551.73,-867.67 639.22,-771.81 712,-691.19 718.72,-683.74 726,-675.63 732.63,-668.23"/>
<polygon fill="#26343c" stroke="#26343c" points="735.45,-670.33 739.51,-660.54 730.23,-665.66 735.45,-670.33"/>
</g>
<!-- onepage&#45;&gt;i18n -->
<g id="edge13" class="edge">
<title>onepage&#45;&gt;i18n</title>
<path fill="none" stroke="#d7afc5" d="M473,-906.14C421,-872.62 310.96,-792.49 269,-691.19 224.12,-582.84 297.29,-443.62 332.15,-386.92"/>
<polygon fill="#d7afc5" stroke="#d7afc5" points="335.25,-388.58 337.59,-378.24 329.32,-384.86 335.25,-388.58"/>
</g>
<!-- onepage&#45;&gt;in_app_reviewer -->
<g id="edge14" class="edge">
<title>onepage&#45;&gt;in_app_reviewer</title>
<path fill="none" stroke="#1253da" d="M523.77,-906.09C587.76,-858.06 769.29,-721.79 842.66,-666.71"/>
<polygon fill="#1253da" stroke="#1253da" points="845.16,-669.21 851.05,-660.41 840.95,-663.62 845.16,-669.21"/>
</g>
<!-- onepage&#45;&gt;notification_client -->
<g id="edge15" class="edge">
<title>onepage&#45;&gt;notification_client</title>
<path fill="none" stroke="#4d6b02" d="M475.03,-905.97C426.24,-871.86 322.28,-790.36 283,-691.19 234.97,-569.94 372.29,-437.72 435.74,-384.9"/>
<polygon fill="#4d6b02" stroke="#4d6b02" points="438.31,-387.33 443.82,-378.28 433.87,-381.91 438.31,-387.33"/>
</g>
<!-- onepage&#45;&gt;prefs_client -->
<g id="edge16" class="edge">
<title>onepage&#45;&gt;prefs_client</title>
<path fill="none" stroke="#080f51" d="M539.87,-923.2C655.78,-920.89 999.92,-896.35 1144,-691.19 1315.5,-446.98 807.52,-207.94 639.19,-137.18"/>
<polygon fill="#080f51" stroke="#080f51" points="640.35,-133.87 629.78,-133.25 637.65,-140.33 640.35,-133.87"/>
</g>
<!-- provider_utils -->
<g id="node11" class="node">
<title>provider_utils</title>
<polygon fill="none" stroke="#f445c4" points="132,-378.19 16,-378.19 16,-342.19 132,-342.19 132,-378.19"/>
<text text-anchor="middle" x="74" y="-356.49" font-family="Times,serif" font-size="14.00">provider_utils</text>
</g>
<!-- onepage&#45;&gt;provider_utils -->
<g id="edge17" class="edge">
<title>onepage&#45;&gt;provider_utils</title>
<path fill="none" stroke="#f445c4" d="M466.97,-905.97C404.48,-872.73 270.91,-793.83 195,-691.19 122.76,-593.5 89.7,-448.14 78.57,-388.36"/>
<polygon fill="#f445c4" stroke="#f445c4" points="81.96,-387.45 76.74,-378.23 75.07,-388.69 81.96,-387.45"/>
</g>
<!-- scroll_calendar -->
<g id="node12" class="node">
<title>scroll_calendar</title>
<polygon fill="none" stroke="#713e2e" points="449,-660.19 325,-660.19 325,-624.19 449,-624.19 449,-660.19"/>
<text text-anchor="middle" x="387" y="-638.49" font-family="Times,serif" font-size="14.00">scroll_calendar</text>
</g>
<!-- onepage&#45;&gt;scroll_calendar -->
<g id="edge18" class="edge">
<title>onepage&#45;&gt;scroll_calendar</title>
<path fill="none" stroke="#713e2e" d="M494.04,-906.09C474.84,-858.94 421.02,-726.75 397.84,-669.82"/>
<polygon fill="#713e2e" stroke="#713e2e" points="401.03,-668.35 394.01,-660.41 394.54,-670.99 401.03,-668.35"/>
</g>
<!-- theme -->
<g id="node13" class="node">
<title>theme</title>
<polygon fill="none" stroke="#1214e6" points="212,-378.19 150,-378.19 150,-342.19 212,-342.19 212,-378.19"/>
<text text-anchor="middle" x="181" y="-356.49" font-family="Times,serif" font-size="14.00">theme</text>
</g>
<!-- onepage&#45;&gt;theme -->
<g id="edge19" class="edge">
<title>onepage&#45;&gt;theme</title>
<path fill="none" stroke="#1214e6" d="M468.08,-906.08C408.69,-873.29 284.43,-795.47 227,-691.19 171.57,-590.53 174.47,-447.4 178.55,-388.31"/>
<polygon fill="#1214e6" stroke="#1214e6" points="182.04,-388.52 179.31,-378.28 175.06,-387.99 182.04,-388.52"/>
</g>
<!-- update_requester -->
<g id="node14" class="node">
<title>update_requester</title>
<polygon fill="none" stroke="#a2aa60" points="1101.5,-660.19 958.5,-660.19 958.5,-624.19 1101.5,-624.19 1101.5,-660.19"/>
<text text-anchor="middle" x="1030" y="-638.49" font-family="Times,serif" font-size="14.00">update_requester</text>
</g>
<!-- onepage&#45;&gt;update_requester -->
<g id="edge20" class="edge">
<title>onepage&#45;&gt;update_requester</title>
<path fill="none" stroke="#a2aa60" d="M535.76,-906.17C611.71,-868.77 797.88,-776.01 950,-691.19 964.51,-683.1 980.23,-673.79 993.86,-665.53"/>
<polygon fill="#a2aa60" stroke="#a2aa60" points="995.76,-668.47 1002.49,-660.28 992.12,-662.49 995.76,-668.47"/>
</g>
<!-- onepage&#45;&gt;utils -->
<g id="edge21" class="edge">
<title>onepage&#45;&gt;utils</title>
<path fill="none" stroke="#f548cf" d="M539.66,-920.54C692.04,-908.42 1236.89,-848.42 1114,-616.19 958.15,-321.67 542.39,-168.29 415.98,-127.47"/>
<polygon fill="#f548cf" stroke="#f548cf" points="416.94,-124.1 406.35,-124.4 414.82,-130.77 416.94,-124.1"/>
</g>
<!-- widgets -->
<g id="node16" class="node">
<title>widgets</title>
<polygon fill="none" stroke="#3ed5a4" points="303.5,-378.19 230.5,-378.19 230.5,-342.19 303.5,-342.19 303.5,-378.19"/>
<text text-anchor="middle" x="267" y="-356.49" font-family="Times,serif" font-size="14.00">widgets</text>
</g>
<!-- onepage&#45;&gt;widgets -->
<g id="edge22" class="edge">
<title>onepage&#45;&gt;widgets</title>
<path fill="none" stroke="#3ed5a4" d="M469.46,-905.99C412.79,-873.06 295.42,-795.02 250,-691.19 204.34,-586.82 239.75,-445.8 257.93,-387.79"/>
<polygon fill="#3ed5a4" stroke="#3ed5a4" points="261.26,-388.86 260.99,-378.27 254.6,-386.71 261.26,-388.86"/>
</g>
<!-- provider_utils&#45;&gt;utils -->
<g id="edge23" class="edge">
<title>provider_utils&#45;&gt;utils</title>
<path fill="none" stroke="#f548cf" d="M95.45,-342.1C148.93,-299.49 288.3,-188.45 349.48,-139.7"/>
<polygon fill="#f548cf" stroke="#f548cf" points="351.94,-142.22 357.58,-133.25 347.57,-136.75 351.94,-142.22"/>
</g>
<!-- widgets&#45;&gt;utils -->
<g id="edge24" class="edge">
<title>widgets&#45;&gt;utils</title>
<path fill="none" stroke="#f548cf" d="M274.88,-342.1C294.15,-300.27 343.82,-192.51 366.89,-142.46"/>
<polygon fill="#f548cf" stroke="#f548cf" points="370.13,-143.8 371.13,-133.25 363.77,-140.87 370.13,-143.8"/>
</g>
</g>
</svg>
