<?xml version="1.0" encoding="UTF-8" standalone="no"?>
<!DOCTYPE svg PUBLIC "-//W3C//DTD SVG 1.1//EN"
 "http://www.w3.org/Graphics/SVG/1.1/DTD/svg11.dtd">
<!-- Generated by graphviz version 2.43.0 (0)
 -->
<!-- Title: packages Pages: 1 -->
<svg width="720pt" height="701pt"
 viewBox="0.00 0.00 720.00 700.96" xmlns="http://www.w3.org/2000/svg" xmlns:xlink="http://www.w3.org/1999/xlink">
<g id="graph0" class="graph" transform="scale(0.83 0.83) rotate(0) translate(4 843)">
<title>packages</title>
<polygon fill="white" stroke="transparent" points="-4,4 -4,-843 866.01,-843 866.01,4 -4,4"/>
<g id="clust1" class="cluster">
<title>cluster packages/features</title>
<polygon fill="none" stroke="#f62736" points="385,-415.67 385,-606.94 831,-606.94 831,-415.67 385,-415.67"/>
<text text-anchor="middle" x="608" y="-591.74" font-family="Times,serif" font-size="14.00">packages/features</text>
</g>
<g id="clust2" class="cluster">
<title>cluster packages/core</title>
<polygon fill="none" stroke="#7bbd47" points="8,-20.4 8,-395.27 483,-395.27 483,-20.4 8,-20.4"/>
<text text-anchor="middle" x="245.5" y="-380.07" font-family="Times,serif" font-size="14.00">packages/core</text>
</g>
<g id="clust3" class="cluster">
<title>cluster packages</title>
<polygon fill="none" stroke="#6b4949" points="345,-627.34 345,-818.6 439,-818.6 439,-627.34 345,-627.34"/>
<text text-anchor="middle" x="392" y="-803.4" font-family="Times,serif" font-size="14.00">packages</text>
</g>
<!-- ads -->
<g id="node1" class="node">
<title>ads</title>
<polygon fill="none" stroke="#465953" points="519,-500.4 465,-500.4 465,-464.4 519,-464.4 519,-500.4"/>
<text text-anchor="middle" x="492" y="-478.7" font-family="Times,serif" font-size="14.00">ads</text>
</g>
<!-- db_client -->
<g id="node2" class="node">
<title>db_client</title>
<polygon fill="none" stroke="#c4fbfc" points="474.5,-288.4 393.5,-288.4 393.5,-252.4 474.5,-252.4 474.5,-288.4"/>
<text text-anchor="middle" x="434" y="-266.7" font-family="Times,serif" font-size="14.00">db_client</text>
</g>
<!-- diary -->
<g id="node3" class="node">
<title>diary</title>
<polygon fill="none" stroke="#2c56bd" points="447,-500.4 393,-500.4 393,-464.4 447,-464.4 447,-500.4"/>
<text text-anchor="middle" x="420" y="-478.7" font-family="Times,serif" font-size="14.00">diary</text>
</g>
<!-- diary&#45;&gt;db_client -->
<g id="edge1" class="edge">
<title>diary&#45;&gt;db_client</title>
<path fill="none" stroke="#c4fbfc" d="M421.15,-464.22C423.57,-427.82 429.25,-342.72 432.18,-298.76"/>
<polygon fill="#c4fbfc" stroke="#c4fbfc" points="435.69,-298.74 432.86,-288.53 428.7,-298.27 435.69,-298.74"/>
</g>
<!-- utils -->
<g id="node10" class="node">
<title>utils</title>
<polygon fill="none" stroke="#f548cf" points="475,-104.4 421,-104.4 421,-68.4 475,-68.4 475,-104.4"/>
<text text-anchor="middle" x="448" y="-82.7" font-family="Times,serif" font-size="14.00">utils</text>
</g>
<!-- diary&#45;&gt;utils -->
<g id="edge2" class="edge">
<title>diary&#45;&gt;utils</title>
<path fill="none" stroke="#f548cf" d="M429.38,-464.08C444.46,-435.14 473.48,-374.66 484,-319.4 498.08,-245.45 473.1,-157.45 458.1,-114.16"/>
<polygon fill="#f548cf" stroke="#f548cf" points="461.36,-112.89 454.71,-104.64 454.77,-115.24 461.36,-112.89"/>
</g>
<!-- i18n -->
<g id="node4" class="node">
<title>i18n</title>
<polygon fill="none" stroke="#d7afc5" points="70,-288.4 16,-288.4 16,-252.4 70,-252.4 70,-288.4"/>
<text text-anchor="middle" x="43" y="-266.7" font-family="Times,serif" font-size="14.00">i18n</text>
</g>
<!-- onepage -->
<g id="node5" class="node">
<title>onepage</title>
<polygon fill="none" stroke="#08802d" points="430.5,-711.4 353.5,-711.4 353.5,-675.4 430.5,-675.4 430.5,-711.4"/>
<text text-anchor="middle" x="392" y="-689.7" font-family="Times,serif" font-size="14.00">onepage</text>
</g>
<!-- onepage&#45;&gt;ads -->
<g id="edge3" class="edge">
<title>onepage&#45;&gt;ads</title>
<path fill="none" stroke="#465953" d="M400.18,-675.3C417.66,-638.77 458.73,-552.95 479.5,-509.53"/>
<polygon fill="#465953" stroke="#465953" points="482.68,-510.98 483.84,-500.45 476.37,-507.96 482.68,-510.98"/>
</g>
<!-- onepage&#45;&gt;db_client -->
<g id="edge4" class="edge">
<title>onepage&#45;&gt;db_client</title>
<path fill="none" stroke="#c4fbfc" d="M390.42,-675.03C387.83,-645.53 382.79,-583.76 381,-531.4 379.86,-498.09 376.36,-489.41 381,-456.4 389.1,-398.73 410.74,-333.84 423.72,-298.28"/>
<polygon fill="#c4fbfc" stroke="#c4fbfc" points="427.1,-299.24 427.3,-288.65 420.54,-296.81 427.1,-299.24"/>
</g>
<!-- onepage&#45;&gt;diary -->
<g id="edge5" class="edge">
<title>onepage&#45;&gt;diary</title>
<path fill="none" stroke="#2c56bd" d="M394.29,-675.3C399.14,-639.08 410.49,-554.38 416.35,-510.63"/>
<polygon fill="#2c56bd" stroke="#2c56bd" points="419.86,-510.82 417.72,-500.45 412.92,-509.89 419.86,-510.82"/>
</g>
<!-- onepage&#45;&gt;i18n -->
<g id="edge6" class="edge">
<title>onepage&#45;&gt;i18n</title>
<path fill="none" stroke="#d7afc5" d="M376.41,-675.23C349.99,-646.02 294.94,-584.67 250,-531.4 171.94,-438.87 153.33,-414.95 79,-319.4 73.39,-312.19 67.4,-304.29 61.95,-297.01"/>
<polygon fill="#d7afc5" stroke="#d7afc5" points="64.64,-294.76 55.85,-288.84 59.03,-298.95 64.64,-294.76"/>
</g>
<!-- provider_utils -->
<g id="node6" class="node">
<title>provider_utils</title>
<polygon fill="none" stroke="#f445c4" points="204,-288.4 88,-288.4 88,-252.4 204,-252.4 204,-288.4"/>
<text text-anchor="middle" x="146" y="-266.7" font-family="Times,serif" font-size="14.00">provider_utils</text>
</g>
<!-- onepage&#45;&gt;provider_utils -->
<g id="edge7" class="edge">
<title>onepage&#45;&gt;provider_utils</title>
<path fill="none" stroke="#f445c4" d="M382.05,-675.38C343.96,-610.19 207.21,-376.16 161.22,-297.45"/>
<polygon fill="#f445c4" stroke="#f445c4" points="164.14,-295.51 156.07,-288.64 158.1,-299.04 164.14,-295.51"/>
</g>
<!-- scroll_calendar -->
<g id="node7" class="node">
<title>scroll_calendar</title>
<polygon fill="none" stroke="#713e2e" points="823,-500.4 699,-500.4 699,-464.4 823,-464.4 823,-500.4"/>
<text text-anchor="middle" x="761" y="-478.7" font-family="Times,serif" font-size="14.00">scroll_calendar</text>
</g>
<!-- onepage&#45;&gt;scroll_calendar -->
<g id="edge8" class="edge">
<title>onepage&#45;&gt;scroll_calendar</title>
<path fill="none" stroke="#713e2e" d="M426.13,-675.36C482.15,-647.08 596.72,-587.94 690,-531.4 702.9,-523.58 716.72,-514.43 728.71,-506.22"/>
<polygon fill="#713e2e" stroke="#713e2e" points="730.83,-509.01 737.07,-500.45 726.85,-503.25 730.83,-509.01"/>
</g>
<!-- theme -->
<g id="node8" class="node">
<title>theme</title>
<polygon fill="none" stroke="#1214e6" points="284,-288.4 222,-288.4 222,-252.4 284,-252.4 284,-288.4"/>
<text text-anchor="middle" x="253" y="-266.7" font-family="Times,serif" font-size="14.00">theme</text>
</g>
<!-- onepage&#45;&gt;theme -->
<g id="edge9" class="edge">
<title>onepage&#45;&gt;theme</title>
<path fill="none" stroke="#1214e6" d="M386.38,-675.38C364.94,-610.45 288.22,-378.06 261.92,-298.41"/>
<polygon fill="#1214e6" stroke="#1214e6" points="265.15,-297.04 258.69,-288.64 258.5,-299.23 265.15,-297.04"/>
</g>
<!-- update_requester -->
<g id="node9" class="node">
<title>update_requester</title>
<polygon fill="none" stroke="#a2aa60" points="680.5,-500.4 537.5,-500.4 537.5,-464.4 680.5,-464.4 680.5,-500.4"/>
<text text-anchor="middle" x="609" y="-478.7" font-family="Times,serif" font-size="14.00">update_requester</text>
</g>
<!-- onepage&#45;&gt;update_requester -->
<g id="edge10" class="edge">
<title>onepage&#45;&gt;update_requester</title>
<path fill="none" stroke="#a2aa60" d="M409.76,-675.3C448.24,-638.23 539.43,-550.41 583.83,-507.64"/>
<polygon fill="#a2aa60" stroke="#a2aa60" points="586.53,-509.91 591.3,-500.45 581.67,-504.86 586.53,-509.91"/>
</g>
<!-- onepage&#45;&gt;utils -->
<g id="edge11" class="edge">
<title>onepage&#45;&gt;utils</title>
<path fill="none" stroke="#f548cf" d="M430.82,-691.98C520.26,-688.65 740.39,-666.45 835,-531.4 961.1,-351.4 602.67,-160.68 484.42,-104.12"/>
<polygon fill="#f548cf" stroke="#f548cf" points="485.89,-100.94 475.36,-99.82 482.9,-107.27 485.89,-100.94"/>
</g>
<!-- widgets -->
<g id="node11" class="node">
<title>widgets</title>
<polygon fill="none" stroke="#3ed5a4" points="375.5,-288.4 302.5,-288.4 302.5,-252.4 375.5,-252.4 375.5,-288.4"/>
<text text-anchor="middle" x="339" y="-266.7" font-family="Times,serif" font-size="14.00">widgets</text>
</g>
<!-- onepage&#45;&gt;widgets -->
<g id="edge12" class="edge">
<title>onepage&#45;&gt;widgets</title>
<path fill="none" stroke="#3ed5a4" d="M389.86,-675.38C381.7,-610.58 352.55,-379.01 342.46,-298.9"/>
<polygon fill="#3ed5a4" stroke="#3ed5a4" points="345.89,-298.12 341.17,-288.64 338.95,-299 345.89,-298.12"/>
</g>
<!-- provider_utils&#45;&gt;utils -->
<g id="edge13" class="edge">
<title>provider_utils&#45;&gt;utils</title>
<path fill="none" stroke="#f548cf" d="M174.41,-252.28C229.58,-219.03 351.1,-145.8 411.89,-109.16"/>
<polygon fill="#f548cf" stroke="#f548cf" points="414,-111.98 420.76,-103.82 410.38,-105.98 414,-111.98"/>
</g>
</g>
</svg>
