<?xml version="1.0" encoding="UTF-8" standalone="no"?>
<!DOCTYPE svg PUBLIC "-//W3C//DTD SVG 1.1//EN"
 "http://www.w3.org/Graphics/SVG/1.1/DTD/svg11.dtd">
<!-- Generated by graphviz version 2.43.0 (0)
 -->
<!-- Title: packages Pages: 1 -->
<svg width="720pt" height="701pt"
 viewBox="0.00 0.00 720.00 701.26" xmlns="http://www.w3.org/2000/svg" xmlns:xlink="http://www.w3.org/1999/xlink">
<g id="graph0" class="graph" transform="scale(0.54 0.54) rotate(0) translate(4 1301)">
<title>packages</title>
<polygon fill="white" stroke="transparent" points="-4,4 -4,-1301 1335.87,-1301 1335.87,4 -4,4"/>
<g id="clust1" class="cluster">
<title>cluster packages/features</title>
<polygon fill="none" stroke="#f62736" points="495,-642.59 495,-938.26 1289,-938.26 1289,-642.59 495,-642.59"/>
<text text-anchor="middle" x="892" y="-923.06" font-family="Times,serif" font-size="14.00">packages/features</text>
</g>
<g id="clust2" class="cluster">
<title>cluster packages/core</title>
<polygon fill="none" stroke="#7bbd47" points="8,-31.54 8,-611.05 854,-611.05 854,-31.54 8,-31.54"/>
<text text-anchor="middle" x="431" y="-595.85" font-family="Times,serif" font-size="14.00">packages/core</text>
</g>
<g id="clust3" class="cluster">
<title>cluster packages</title>
<polygon fill="none" stroke="#6b4949" points="528,-969.79 528,-1265.46 622,-1265.46 622,-969.79 528,-969.79"/>
<text text-anchor="middle" x="575" y="-1250.26" font-family="Times,serif" font-size="14.00">packages</text>
</g>
<!-- backup -->
<g id="node1" class="node">
<title>backup</title>
<polygon fill="none" stroke="#022013" points="829,-763.54 761,-763.54 761,-727.54 829,-727.54 829,-763.54"/>
<text text-anchor="middle" x="795" y="-741.84" font-family="Times,serif" font-size="14.00">backup</text>
</g>
<!-- db_client -->
<g id="node3" class="node">
<title>db_client</title>
<polygon fill="none" stroke="#c4fbfc" points="845.5,-435.54 764.5,-435.54 764.5,-399.54 845.5,-399.54 845.5,-435.54"/>
<text text-anchor="middle" x="805" y="-413.84" font-family="Times,serif" font-size="14.00">db_client</text>
</g>
<!-- backup&#45;&gt;db_client -->
<g id="edge1" class="edge">
<title>backup&#45;&gt;db_client</title>
<path fill="none" stroke="#c4fbfc" d="M795.52,-727.47C797.15,-674.34 802.15,-511.56 804.15,-446.16"/>
<polygon fill="#c4fbfc" stroke="#c4fbfc" points="807.66,-445.93 804.47,-435.83 800.66,-445.72 807.66,-445.93"/>
</g>
<!-- configurator -->
<g id="node2" class="node">
<title>configurator</title>
<polygon fill="none" stroke="#205f06" points="612,-435.54 508,-435.54 508,-399.54 612,-399.54 612,-435.54"/>
<text text-anchor="middle" x="560" y="-413.84" font-family="Times,serif" font-size="14.00">configurator</text>
</g>
<!-- diary -->
<g id="node4" class="node">
<title>diary</title>
<polygon fill="none" stroke="#2c56bd" points="901,-763.54 847,-763.54 847,-727.54 901,-727.54 901,-763.54"/>
<text text-anchor="middle" x="874" y="-741.84" font-family="Times,serif" font-size="14.00">diary</text>
</g>
<!-- diary&#45;&gt;db_client -->
<g id="edge2" class="edge">
<title>diary&#45;&gt;db_client</title>
<path fill="none" stroke="#c4fbfc" d="M870.39,-727.47C859.12,-674.23 824.55,-510.89 810.76,-445.76"/>
<polygon fill="#c4fbfc" stroke="#c4fbfc" points="814.15,-444.89 808.66,-435.83 807.31,-446.34 814.15,-444.89"/>
</g>
<!-- utils -->
<g id="node17" class="node">
<title>utils</title>
<polygon fill="none" stroke="#f548cf" points="721,-151.54 667,-151.54 667,-115.54 721,-115.54 721,-151.54"/>
<text text-anchor="middle" x="694" y="-129.84" font-family="Times,serif" font-size="14.00">utils</text>
</g>
<!-- diary&#45;&gt;utils -->
<g id="edge3" class="edge">
<title>diary&#45;&gt;utils</title>
<path fill="none" stroke="#f548cf" d="M875.92,-727.51C881.08,-676.41 892.46,-520.44 855,-399.54 824.91,-302.44 751.61,-204.4 715.22,-159.64"/>
<polygon fill="#f548cf" stroke="#f548cf" points="717.72,-157.17 708.67,-151.67 712.31,-161.61 717.72,-157.17"/>
</g>
<!-- exporter -->
<g id="node5" class="node">
<title>exporter</title>
<polygon fill="none" stroke="#3e99a6" points="743,-763.54 665,-763.54 665,-727.54 743,-727.54 743,-763.54"/>
<text text-anchor="middle" x="704" y="-741.84" font-family="Times,serif" font-size="14.00">exporter</text>
</g>
<!-- exporter&#45;&gt;db_client -->
<g id="edge4" class="edge">
<title>exporter&#45;&gt;db_client</title>
<path fill="none" stroke="#c4fbfc" d="M709.29,-727.47C725.78,-674.23 776.39,-510.89 796.57,-445.76"/>
<polygon fill="#c4fbfc" stroke="#c4fbfc" points="800.03,-446.42 799.64,-435.83 793.34,-444.35 800.03,-446.42"/>
</g>
<!-- haptics -->
<g id="node6" class="node">
<title>haptics</title>
<polygon fill="none" stroke="#26343c" points="987,-763.54 919,-763.54 919,-727.54 987,-727.54 987,-763.54"/>
<text text-anchor="middle" x="953" y="-741.84" font-family="Times,serif" font-size="14.00">haptics</text>
</g>
<!-- prefs_client -->
<g id="node11" class="node">
<title>prefs_client</title>
<polygon fill="none" stroke="#080f51" points="846,-151.54 746,-151.54 746,-115.54 846,-115.54 846,-151.54"/>
<text text-anchor="middle" x="796" y="-129.84" font-family="Times,serif" font-size="14.00">prefs_client</text>
</g>
<!-- haptics&#45;&gt;prefs_client -->
<g id="edge5" class="edge">
<title>haptics&#45;&gt;prefs_client</title>
<path fill="none" stroke="#080f51" d="M950.7,-727.47C943.68,-676.87 921.01,-523.52 888,-399.54 864.31,-310.53 825.41,-208.41 806.7,-161.12"/>
<polygon fill="#080f51" stroke="#080f51" points="809.88,-159.62 802.93,-151.63 803.37,-162.21 809.88,-159.62"/>
</g>
<!-- i18n -->
<g id="node7" class="node">
<title>i18n</title>
<polygon fill="none" stroke="#d7afc5" points="490,-435.54 436,-435.54 436,-399.54 490,-399.54 490,-435.54"/>
<text text-anchor="middle" x="463" y="-413.84" font-family="Times,serif" font-size="14.00">i18n</text>
</g>
<!-- in_app_reviewer -->
<g id="node8" class="node">
<title>in_app_reviewer</title>
<polygon fill="none" stroke="#1253da" points="1138.5,-763.54 1005.5,-763.54 1005.5,-727.54 1138.5,-727.54 1138.5,-763.54"/>
<text text-anchor="middle" x="1072" y="-741.84" font-family="Times,serif" font-size="14.00">in_app_reviewer</text>
</g>
<!-- in_app_reviewer&#45;&gt;prefs_client -->
<g id="edge6" class="edge">
<title>in_app_reviewer&#45;&gt;prefs_client</title>
<path fill="none" stroke="#080f51" d="M1064.18,-727.26C1025.52,-641.8 854.66,-264.19 807.88,-160.79"/>
<polygon fill="#080f51" stroke="#080f51" points="811.06,-159.33 803.75,-151.66 804.68,-162.21 811.06,-159.33"/>
</g>
<!-- notification_client -->
<g id="node9" class="node">
<title>notification_client</title>
<polygon fill="none" stroke="#4d6b02" points="159.5,-435.54 16.5,-435.54 16.5,-399.54 159.5,-399.54 159.5,-435.54"/>
<text text-anchor="middle" x="88" y="-413.84" font-family="Times,serif" font-size="14.00">notification_client</text>
</g>
<!-- notification_client&#45;&gt;prefs_client -->
<g id="edge7" class="edge">
<title>notification_client&#45;&gt;prefs_client</title>
<path fill="none" stroke="#080f51" d="M130.69,-399.53C253.78,-350.51 609.09,-208.99 743.58,-155.42"/>
<polygon fill="#080f51" stroke="#080f51" points="745.26,-158.52 753.25,-151.57 742.66,-152.01 745.26,-158.52"/>
</g>
<!-- onepage -->
<g id="node10" class="node">
<title>onepage</title>
<polygon fill="none" stroke="#08802d" points="613.5,-1090.54 536.5,-1090.54 536.5,-1054.54 613.5,-1054.54 613.5,-1090.54"/>
<text text-anchor="middle" x="575" y="-1068.84" font-family="Times,serif" font-size="14.00">onepage</text>
</g>
<!-- onepage&#45;&gt;backup -->
<g id="edge8" class="edge">
<title>onepage&#45;&gt;backup</title>
<path fill="none" stroke="#022013" d="M586.52,-1054.52C622.74,-1001.01 734.5,-835.91 777.7,-772.09"/>
<polygon fill="#022013" stroke="#022013" points="780.62,-774.02 783.33,-763.78 774.83,-770.1 780.62,-774.02"/>
</g>
<!-- onepage&#45;&gt;configurator -->
<g id="edge9" class="edge">
<title>onepage&#45;&gt;configurator</title>
<path fill="none" stroke="#205f06" d="M561.47,-1054.4C529.64,-1012.83 450.58,-902.14 423,-794.54 388.22,-658.87 493.17,-503.72 539.35,-443.89"/>
<polygon fill="#205f06" stroke="#205f06" points="542.3,-445.8 545.71,-435.77 536.79,-441.48 542.3,-445.8"/>
</g>
<!-- onepage&#45;&gt;db_client -->
<g id="edge10" class="edge">
<title>onepage&#45;&gt;db_client</title>
<path fill="none" stroke="#c4fbfc" d="M563.54,-1054.41C530.2,-1002.29 438.85,-841.75 491,-719.54 554.78,-570.06 637.72,-579.03 755,-466.54 762.95,-458.92 771.6,-450.61 779.44,-443.08"/>
<polygon fill="#c4fbfc" stroke="#c4fbfc" points="782.16,-445.32 786.95,-435.87 777.31,-440.27 782.16,-445.32"/>
</g>
<!-- onepage&#45;&gt;diary -->
<g id="edge11" class="edge">
<title>onepage&#45;&gt;diary</title>
<path fill="none" stroke="#2c56bd" d="M592.66,-1054.37C636.09,-1011.86 750.91,-897.62 838,-794.54 843.99,-787.45 850.17,-779.47 855.69,-772.1"/>
<polygon fill="#2c56bd" stroke="#2c56bd" points="858.69,-773.92 861.81,-763.79 853.06,-769.77 858.69,-773.92"/>
</g>
<!-- onepage&#45;&gt;exporter -->
<g id="edge12" class="edge">
<title>onepage&#45;&gt;exporter</title>
<path fill="none" stroke="#3e99a6" d="M581.75,-1054.52C602.86,-1001.34 667.72,-837.93 693.39,-773.27"/>
<polygon fill="#3e99a6" stroke="#3e99a6" points="696.72,-774.36 697.16,-763.78 690.21,-771.78 696.72,-774.36"/>
</g>
<!-- onepage&#45;&gt;haptics -->
<g id="edge13" class="edge">
<title>onepage&#45;&gt;haptics</title>
<path fill="none" stroke="#26343c" d="M597.93,-1054.49C653.62,-1012.67 799.55,-900.7 910,-794.54 917.46,-787.36 925.15,-779.11 931.92,-771.48"/>
<polygon fill="#26343c" stroke="#26343c" points="934.92,-773.38 938.86,-763.54 929.64,-768.77 934.92,-773.38"/>
</g>
<!-- onepage&#45;&gt;i18n -->
<g id="edge14" class="edge">
<title>onepage&#45;&gt;i18n</title>
<path fill="none" stroke="#d7afc5" d="M560.26,-1054.28C525.98,-1012.88 441.62,-903.29 412,-794.54 377.15,-666.6 428.64,-507.39 452.23,-445.18"/>
<polygon fill="#d7afc5" stroke="#d7afc5" points="455.55,-446.31 455.9,-435.72 449.02,-443.78 455.55,-446.31"/>
</g>
<!-- onepage&#45;&gt;in_app_reviewer -->
<g id="edge15" class="edge">
<title>onepage&#45;&gt;in_app_reviewer</title>
<path fill="none" stroke="#1253da" d="M601.02,-1054.52C684.12,-1000.18 943.2,-830.77 1037.35,-769.2"/>
<polygon fill="#1253da" stroke="#1253da" points="1039.48,-771.98 1045.94,-763.58 1035.65,-766.12 1039.48,-771.98"/>
</g>
<!-- onepage&#45;&gt;notification_client -->
<g id="edge16" class="edge">
<title>onepage&#45;&gt;notification_client</title>
<path fill="none" stroke="#4d6b02" d="M555.31,-1054.51C508.25,-1013.18 387.09,-902.96 305,-794.54 212.8,-672.76 130.59,-508.16 100.33,-444.85"/>
<polygon fill="#4d6b02" stroke="#4d6b02" points="103.38,-443.11 95.93,-435.58 97.06,-446.11 103.38,-443.11"/>
</g>
<!-- onepage&#45;&gt;prefs_client -->
<g id="edge17" class="edge">
<title>onepage&#45;&gt;prefs_client</title>
<path fill="none" stroke="#080f51" d="M613.58,-1070.66C738.19,-1065.47 1131.25,-1030.31 1293,-794.54 1470.04,-536.47 984.3,-238.89 836.92,-156.6"/>
<polygon fill="#080f51" stroke="#080f51" points="838.56,-153.5 828.12,-151.71 835.17,-159.63 838.56,-153.5"/>
</g>
<!-- provider_utils -->
<g id="node12" class="node">
<title>provider_utils</title>
<polygon fill="none" stroke="#f445c4" points="746,-435.54 630,-435.54 630,-399.54 746,-399.54 746,-435.54"/>
<text text-anchor="middle" x="688" y="-413.84" font-family="Times,serif" font-size="14.00">provider_utils</text>
</g>
<!-- onepage&#45;&gt;provider_utils -->
<g id="edge18" class="edge">
<title>onepage&#45;&gt;provider_utils</title>
<path fill="none" stroke="#f445c4" d="M561.41,-1054.28C522.82,-1003.11 418.07,-847.76 461,-719.54 501.04,-599.94 609.41,-489.85 660.56,-442.72"/>
<polygon fill="#f445c4" stroke="#f445c4" points="663.23,-445.02 668.26,-435.7 658.52,-439.85 663.23,-445.02"/>
</g>
<!-- scroll_calendar -->
<g id="node13" class="node">
<title>scroll_calendar</title>
<polygon fill="none" stroke="#713e2e" points="1281,-763.54 1157,-763.54 1157,-727.54 1281,-727.54 1281,-763.54"/>
<text text-anchor="middle" x="1219" y="-741.84" font-family="Times,serif" font-size="14.00">scroll_calendar</text>
</g>
<!-- onepage&#45;&gt;scroll_calendar -->
<g id="edge19" class="edge">
<title>onepage&#45;&gt;scroll_calendar</title>
<path fill="none" stroke="#713e2e" d="M613.51,-1055.23C707.21,-1015.06 953.61,-906.45 1148,-794.54 1161.18,-786.95 1175.15,-777.77 1187.18,-769.48"/>
<polygon fill="#713e2e" stroke="#713e2e" points="1189.36,-772.23 1195.56,-763.64 1185.35,-766.49 1189.36,-772.23"/>
</g>
<!-- theme -->
<g id="node14" class="node">
<title>theme</title>
<polygon fill="none" stroke="#1214e6" points="240,-435.54 178,-435.54 178,-399.54 240,-399.54 240,-435.54"/>
<text text-anchor="middle" x="209" y="-413.84" font-family="Times,serif" font-size="14.00">theme</text>
</g>
<!-- onepage&#45;&gt;theme -->
<g id="edge20" class="edge">
<title>onepage&#45;&gt;theme</title>
<path fill="none" stroke="#1214e6" d="M556.89,-1054.42C514.34,-1013.32 406.84,-904.31 344,-794.54 274.46,-673.05 230.66,-509.42 215.24,-445.61"/>
<polygon fill="#1214e6" stroke="#1214e6" points="218.56,-444.48 212.84,-435.56 211.76,-446.1 218.56,-444.48"/>
</g>
<!-- tracker -->
<g id="node15" class="node">
<title>tracker</title>
<polygon fill="none" stroke="#a0eb6a" points="326,-435.54 258,-435.54 258,-399.54 326,-399.54 326,-435.54"/>
<text text-anchor="middle" x="292" y="-413.84" font-family="Times,serif" font-size="14.00">tracker</text>
</g>
<!-- onepage&#45;&gt;tracker -->
<g id="edge21" class="edge">
<title>onepage&#45;&gt;tracker</title>
<path fill="none" stroke="#a0eb6a" d="M558.6,-1054.36C520.2,-1013.13 424,-903.88 375,-794.54 319.95,-671.71 300.15,-509.49 294.21,-445.83"/>
<polygon fill="#a0eb6a" stroke="#a0eb6a" points="297.69,-445.45 293.31,-435.8 290.71,-446.07 297.69,-445.45"/>
</g>
<!-- update_requester -->
<g id="node16" class="node">
<title>update_requester</title>
<polygon fill="none" stroke="#a2aa60" points="646.5,-763.54 503.5,-763.54 503.5,-727.54 646.5,-727.54 646.5,-763.54"/>
<text text-anchor="middle" x="575" y="-741.84" font-family="Times,serif" font-size="14.00">update_requester</text>
</g>
<!-- onepage&#45;&gt;update_requester -->
<g id="edge22" class="edge">
<title>onepage&#45;&gt;update_requester</title>
<path fill="none" stroke="#a2aa60" d="M575,-1054.52C575,-1001.56 575,-839.27 575,-774.08"/>
<polygon fill="#a2aa60" stroke="#a2aa60" points="578.5,-773.78 575,-763.78 571.5,-773.78 578.5,-773.78"/>
</g>
<!-- onepage&#45;&gt;utils -->
<g id="edge23" class="edge">
<title>onepage&#45;&gt;utils</title>
<path fill="none" stroke="#f548cf" d="M613.58,-1070.66C738.19,-1065.47 1131.25,-1030.31 1293,-794.54 1488.49,-509.58 887.06,-219.53 730.34,-150.12"/>
<polygon fill="#f548cf" stroke="#f548cf" points="731.66,-146.88 721.09,-146.06 728.84,-153.29 731.66,-146.88"/>
</g>
<!-- widgets -->
<g id="node18" class="node">
<title>widgets</title>
<polygon fill="none" stroke="#3ed5a4" points="417.5,-435.54 344.5,-435.54 344.5,-399.54 417.5,-399.54 417.5,-435.54"/>
<text text-anchor="middle" x="381" y="-413.84" font-family="Times,serif" font-size="14.00">widgets</text>
</g>
<!-- onepage&#45;&gt;widgets -->
<g id="edge24" class="edge">
<title>onepage&#45;&gt;widgets</title>
<path fill="none" stroke="#3ed5a4" d="M559.13,-1054.48C522.18,-1013.52 430.93,-904.8 396,-794.54 356.36,-669.4 369.7,-509.06 377.28,-445.87"/>
<polygon fill="#3ed5a4" stroke="#3ed5a4" points="380.8,-445.93 378.57,-435.57 373.86,-445.06 380.8,-445.93"/>
</g>
<!-- provider_utils&#45;&gt;utils -->
<g id="edge25" class="edge">
<title>provider_utils&#45;&gt;utils</title>
<path fill="none" stroke="#f548cf" d="M688.37,-399.32C689.37,-352.03 692.19,-219.8 693.41,-162.08"/>
<polygon fill="#f548cf" stroke="#f548cf" points="696.92,-161.96 693.63,-151.89 689.92,-161.81 696.92,-161.96"/>
</g>
<!-- update_requester&#45;&gt;configurator -->
<g id="edge26" class="edge">
<title>update_requester&#45;&gt;configurator</title>
<path fill="none" stroke="#205f06" d="M574.21,-727.47C571.77,-674.34 564.28,-511.56 561.27,-446.16"/>
<polygon fill="#205f06" stroke="#205f06" points="564.75,-445.66 560.8,-435.83 557.76,-445.98 564.75,-445.66"/>
</g>
<!-- widgets&#45;&gt;utils -->
<g id="edge27" class="edge">
<title>widgets&#45;&gt;utils</title>
<path fill="none" stroke="#f548cf" d="M400.11,-399.32C453.59,-351.14 604.89,-214.82 666.94,-158.92"/>
<polygon fill="#f548cf" stroke="#f548cf" points="669.66,-161.18 674.74,-151.89 664.97,-155.98 669.66,-161.18"/>
</g>
</g>
</svg>
