<?xml version="1.0" encoding="UTF-8" standalone="no"?>
<!DOCTYPE svg PUBLIC "-//W3C//DTD SVG 1.1//EN"
 "http://www.w3.org/Graphics/SVG/1.1/DTD/svg11.dtd">
<!-- Generated by graphviz version 2.43.0 (0)
 -->
<!-- Title: packages Pages: 1 -->
<svg width="720pt" height="720pt"
 viewBox="0.00 0.00 720.00 720.00" xmlns="http://www.w3.org/2000/svg" xmlns:xlink="http://www.w3.org/1999/xlink">
<g id="graph0" class="graph" transform="scale(0.88 0.88) rotate(0) translate(4 812)">
<title>packages</title>
<polygon fill="white" stroke="transparent" points="-4,4 -4,-812 812,-812 812,4 -4,4"/>
<g id="clust1" class="cluster">
<title>cluster packages</title>
<polygon fill="none" stroke="#6b4949" points="8,-27.51 8,-780.49 800,-780.49 800,-27.51 8,-27.51"/>
<text text-anchor="middle" x="404" y="-765.29" font-family="Times,serif" font-size="14.00">packages</text>
</g>
<!-- db_client -->
<g id="node1" class="node">
<title>db_client</title>
<polygon fill="none" stroke="#c4fbfc" points="100.5,-134.51 19.5,-134.51 19.5,-98.51 100.5,-98.51 100.5,-134.51"/>
<text text-anchor="middle" x="60" y="-112.81" font-family="Times,serif" font-size="14.00">db_client</text>
</g>
<!-- diary -->
<g id="node2" class="node">
<title>diary</title>
<polygon fill="none" stroke="#2c56bd" points="90,-382.51 36,-382.51 36,-346.51 90,-346.51 90,-382.51"/>
<text text-anchor="middle" x="63" y="-360.81" font-family="Times,serif" font-size="14.00">diary</text>
</g>
<!-- diary&#45;&gt;db_client -->
<g id="edge1" class="edge">
<title>diary&#45;&gt;db_client</title>
<path fill="none" stroke="#c4fbfc" d="M62.79,-346.21C62.28,-304.13 60.96,-196.13 60.34,-145.06"/>
<polygon fill="#c4fbfc" stroke="#c4fbfc" points="63.83,-144.74 60.21,-134.79 56.83,-144.83 63.83,-144.74"/>
</g>
<!-- utils -->
<g id="node9" class="node">
<title>utils</title>
<polygon fill="none" stroke="#f548cf" points="265,-134.51 211,-134.51 211,-98.51 265,-98.51 265,-134.51"/>
<text text-anchor="middle" x="238" y="-112.81" font-family="Times,serif" font-size="14.00">utils</text>
</g>
<!-- diary&#45;&gt;utils -->
<g id="edge2" class="edge">
<title>diary&#45;&gt;utils</title>
<path fill="none" stroke="#f548cf" d="M75.31,-346.21C105.62,-303.6 184.01,-193.41 219.75,-143.16"/>
<polygon fill="#f548cf" stroke="#f548cf" points="222.76,-144.96 225.71,-134.79 217.06,-140.91 222.76,-144.96"/>
</g>
<!-- i18n -->
<g id="node3" class="node">
<title>i18n</title>
<polygon fill="none" stroke="#d7afc5" points="162,-382.51 108,-382.51 108,-346.51 162,-346.51 162,-382.51"/>
<text text-anchor="middle" x="135" y="-360.81" font-family="Times,serif" font-size="14.00">i18n</text>
</g>
<!-- onepage -->
<g id="node4" class="node">
<title>onepage</title>
<polygon fill="none" stroke="#08802d" points="414.5,-630.51 337.5,-630.51 337.5,-594.51 414.5,-594.51 414.5,-630.51"/>
<text text-anchor="middle" x="376" y="-608.81" font-family="Times,serif" font-size="14.00">onepage</text>
</g>
<!-- onepage&#45;&gt;db_client -->
<g id="edge3" class="edge">
<title>onepage&#45;&gt;db_client</title>
<path fill="none" stroke="#c4fbfc" d="M337.43,-599.88C261.49,-574.64 94.14,-506.86 27,-382.51 -15.43,-303.91 24.69,-193.53 47.14,-143.71"/>
<polygon fill="#c4fbfc" stroke="#c4fbfc" points="50.35,-145.13 51.37,-134.59 43.99,-142.19 50.35,-145.13"/>
</g>
<!-- onepage&#45;&gt;diary -->
<g id="edge4" class="edge">
<title>onepage&#45;&gt;diary</title>
<path fill="none" stroke="#2c56bd" d="M353.99,-594.21C298.99,-550.98 155.49,-438.2 92.91,-389.01"/>
<polygon fill="#2c56bd" stroke="#2c56bd" points="95.01,-386.21 84.99,-382.79 90.68,-391.72 95.01,-386.21"/>
</g>
<!-- onepage&#45;&gt;i18n -->
<g id="edge5" class="edge">
<title>onepage&#45;&gt;i18n</title>
<path fill="none" stroke="#d7afc5" d="M359.05,-594.21C317.05,-551.33 208.01,-440.04 159.22,-390.23"/>
<polygon fill="#d7afc5" stroke="#d7afc5" points="161.43,-387.48 151.93,-382.79 156.43,-392.38 161.43,-387.48"/>
</g>
<!-- provider_utils -->
<g id="node5" class="node">
<title>provider_utils</title>
<polygon fill="none" stroke="#f445c4" points="296,-382.51 180,-382.51 180,-346.51 296,-346.51 296,-382.51"/>
<text text-anchor="middle" x="238" y="-360.81" font-family="Times,serif" font-size="14.00">provider_utils</text>
</g>
<!-- onepage&#45;&gt;provider_utils -->
<g id="edge6" class="edge">
<title>onepage&#45;&gt;provider_utils</title>
<path fill="none" stroke="#f445c4" d="M366.3,-594.21C342.49,-551.78 281.09,-442.32 252.74,-391.79"/>
<polygon fill="#f445c4" stroke="#f445c4" points="255.64,-389.79 247.69,-382.79 249.53,-393.22 255.64,-389.79"/>
</g>
<!-- scroll_calendar -->
<g id="node6" class="node">
<title>scroll_calendar</title>
<polygon fill="none" stroke="#713e2e" points="438,-382.51 314,-382.51 314,-346.51 438,-346.51 438,-382.51"/>
<text text-anchor="middle" x="376" y="-360.81" font-family="Times,serif" font-size="14.00">scroll_calendar</text>
</g>
<!-- onepage&#45;&gt;scroll_calendar -->
<g id="edge7" class="edge">
<title>onepage&#45;&gt;scroll_calendar</title>
<path fill="none" stroke="#713e2e" d="M376,-594.21C376,-552.13 376,-444.13 376,-393.06"/>
<polygon fill="#713e2e" stroke="#713e2e" points="379.5,-392.79 376,-382.79 372.5,-392.79 379.5,-392.79"/>
</g>
<!-- theme -->
<g id="node7" class="node">
<title>theme</title>
<polygon fill="none" stroke="#1214e6" points="518,-382.51 456,-382.51 456,-346.51 518,-346.51 518,-382.51"/>
<text text-anchor="middle" x="487" y="-360.81" font-family="Times,serif" font-size="14.00">theme</text>
</g>
<!-- onepage&#45;&gt;theme -->
<g id="edge8" class="edge">
<title>onepage&#45;&gt;theme</title>
<path fill="none" stroke="#1214e6" d="M383.81,-594.21C402.91,-551.86 452.14,-442.77 475,-392.1"/>
<polygon fill="#1214e6" stroke="#1214e6" points="478.28,-393.34 479.2,-382.79 471.9,-390.46 478.28,-393.34"/>
</g>
<!-- update_requester -->
<g id="node8" class="node">
<title>update_requester</title>
<polygon fill="none" stroke="#a2aa60" points="679.5,-382.51 536.5,-382.51 536.5,-346.51 679.5,-346.51 679.5,-382.51"/>
<text text-anchor="middle" x="608" y="-360.81" font-family="Times,serif" font-size="14.00">update_requester</text>
</g>
<!-- onepage&#45;&gt;update_requester -->
<g id="edge9" class="edge">
<title>onepage&#45;&gt;update_requester</title>
<path fill="none" stroke="#a2aa60" d="M392.31,-594.21C432.75,-551.33 537.71,-440.04 584.68,-390.23"/>
<polygon fill="#a2aa60" stroke="#a2aa60" points="587.39,-392.46 591.7,-382.79 582.3,-387.66 587.39,-392.46"/>
</g>
<!-- onepage&#45;&gt;utils -->
<g id="edge10" class="edge">
<title>onepage&#45;&gt;utils</title>
<path fill="none" stroke="#f548cf" d="M414.85,-599.79C514.48,-567.62 766,-471.97 689,-346.51 595.44,-194.07 365.25,-139.23 275.08,-123.19"/>
<polygon fill="#f548cf" stroke="#f548cf" points="275.5,-119.71 265.05,-121.46 274.31,-126.61 275.5,-119.71"/>
</g>
<!-- widgets -->
<g id="node10" class="node">
<title>widgets</title>
<polygon fill="none" stroke="#3ed5a4" points="791.5,-382.51 718.5,-382.51 718.5,-346.51 791.5,-346.51 791.5,-382.51"/>
<text text-anchor="middle" x="755" y="-360.81" font-family="Times,serif" font-size="14.00">widgets</text>
</g>
<!-- onepage&#45;&gt;widgets -->
<g id="edge11" class="edge">
<title>onepage&#45;&gt;widgets</title>
<path fill="none" stroke="#3ed5a4" d="M402.35,-594.4C469.05,-551.11 644.62,-437.15 719.9,-388.29"/>
<polygon fill="#3ed5a4" stroke="#3ed5a4" points="722.09,-391.04 728.57,-382.66 718.28,-385.17 722.09,-391.04"/>
</g>
<!-- provider_utils&#45;&gt;utils -->
<g id="edge12" class="edge">
<title>provider_utils&#45;&gt;utils</title>
<path fill="none" stroke="#f548cf" d="M238,-346.21C238,-304.13 238,-196.13 238,-145.06"/>
<polygon fill="#f548cf" stroke="#f548cf" points="241.5,-144.79 238,-134.79 234.5,-144.79 241.5,-144.79"/>
</g>
</g>
</svg>
