<?xml version="1.0" encoding="UTF-8" standalone="no"?>
<!DOCTYPE svg PUBLIC "-//W3C//DTD SVG 1.1//EN"
 "http://www.w3.org/Graphics/SVG/1.1/DTD/svg11.dtd">
<!-- Generated by graphviz version 2.43.0 (0)
 -->
<!-- Title: packages Pages: 1 -->
<svg width="720pt" height="701pt"
 viewBox="0.00 0.00 720.00 700.78" xmlns="http://www.w3.org/2000/svg" xmlns:xlink="http://www.w3.org/1999/xlink">
<g id="graph0" class="graph" transform="scale(0.85 0.85) rotate(0) translate(4 821)">
<title>packages</title>
<polygon fill="white" stroke="transparent" points="-4,4 -4,-821 843.63,-821 843.63,4 -4,4"/>
<g id="clust1" class="cluster">
<title>cluster packages/features</title>
<polygon fill="none" stroke="#f62736" points="349,-404.78 349,-591.02 809,-591.02 809,-404.78 349,-404.78"/>
<text text-anchor="middle" x="579" y="-575.82" font-family="Times,serif" font-size="14.00">packages/features</text>
</g>
<g id="clust2" class="cluster">
<title>cluster packages/core</title>
<polygon fill="none" stroke="#7bbd47" points="8,-19.87 8,-384.91 483,-384.91 483,-19.87 8,-19.87"/>
<text text-anchor="middle" x="245.5" y="-369.71" font-family="Times,serif" font-size="14.00">packages/core</text>
</g>
<g id="clust3" class="cluster">
<title>cluster packages</title>
<polygon fill="none" stroke="#6b4949" points="313,-610.89 313,-797.13 407,-797.13 407,-610.89 313,-610.89"/>
<text text-anchor="middle" x="360" y="-781.93" font-family="Times,serif" font-size="14.00">packages</text>
</g>
<!-- backup -->
<g id="node1" class="node">
<title>backup</title>
<polygon fill="none" stroke="#022013" points="425,-486.87 357,-486.87 357,-450.87 425,-450.87 425,-486.87"/>
<text text-anchor="middle" x="391" y="-465.17" font-family="Times,serif" font-size="14.00">backup</text>
</g>
<!-- db_client -->
<g id="node2" class="node">
<title>db_client</title>
<polygon fill="none" stroke="#c4fbfc" points="474.5,-280.87 393.5,-280.87 393.5,-244.87 474.5,-244.87 474.5,-280.87"/>
<text text-anchor="middle" x="434" y="-259.17" font-family="Times,serif" font-size="14.00">db_client</text>
</g>
<!-- backup&#45;&gt;db_client -->
<g id="edge1" class="edge">
<title>backup&#45;&gt;db_client</title>
<path fill="none" stroke="#c4fbfc" d="M394.59,-450.82C402.05,-415.42 419.28,-333.68 428.29,-290.97"/>
<polygon fill="#c4fbfc" stroke="#c4fbfc" points="431.75,-291.51 430.39,-281 424.9,-290.07 431.75,-291.51"/>
</g>
<!-- diary -->
<g id="node3" class="node">
<title>diary</title>
<polygon fill="none" stroke="#2c56bd" points="497,-486.87 443,-486.87 443,-450.87 497,-450.87 497,-486.87"/>
<text text-anchor="middle" x="470" y="-465.17" font-family="Times,serif" font-size="14.00">diary</text>
</g>
<!-- diary&#45;&gt;db_client -->
<g id="edge2" class="edge">
<title>diary&#45;&gt;db_client</title>
<path fill="none" stroke="#c4fbfc" d="M466.99,-450.82C460.75,-415.42 446.32,-333.68 438.78,-290.97"/>
<polygon fill="#c4fbfc" stroke="#c4fbfc" points="442.21,-290.24 437.02,-281 435.32,-291.46 442.21,-290.24"/>
</g>
<!-- utils -->
<g id="node10" class="node">
<title>utils</title>
<polygon fill="none" stroke="#f548cf" points="475,-102.87 421,-102.87 421,-66.87 475,-66.87 475,-102.87"/>
<text text-anchor="middle" x="448" y="-81.17" font-family="Times,serif" font-size="14.00">utils</text>
</g>
<!-- diary&#45;&gt;utils -->
<g id="edge3" class="edge">
<title>diary&#45;&gt;utils</title>
<path fill="none" stroke="#f548cf" d="M473.1,-450.75C479.43,-413.32 492.55,-321.39 484,-244.87 478.75,-197.86 465.01,-144.47 456.11,-113.06"/>
<polygon fill="#f548cf" stroke="#f548cf" points="459.42,-111.93 453.29,-103.29 452.7,-113.87 459.42,-111.93"/>
</g>
<!-- i18n -->
<g id="node4" class="node">
<title>i18n</title>
<polygon fill="none" stroke="#d7afc5" points="70,-280.87 16,-280.87 16,-244.87 70,-244.87 70,-280.87"/>
<text text-anchor="middle" x="43" y="-259.17" font-family="Times,serif" font-size="14.00">i18n</text>
</g>
<!-- onepage -->
<g id="node5" class="node">
<title>onepage</title>
<polygon fill="none" stroke="#08802d" points="398.5,-693.87 321.5,-693.87 321.5,-657.87 398.5,-657.87 398.5,-693.87"/>
<text text-anchor="middle" x="360" y="-672.17" font-family="Times,serif" font-size="14.00">onepage</text>
</g>
<!-- onepage&#45;&gt;backup -->
<g id="edge4" class="edge">
<title>onepage&#45;&gt;backup</title>
<path fill="none" stroke="#022013" d="M362.59,-657.74C367.97,-622.17 380.39,-540.02 386.88,-497.1"/>
<polygon fill="#022013" stroke="#022013" points="390.36,-497.5 388.4,-487.09 383.44,-496.45 390.36,-497.5"/>
</g>
<!-- onepage&#45;&gt;db_client -->
<g id="edge5" class="edge">
<title>onepage&#45;&gt;db_client</title>
<path fill="none" stroke="#c4fbfc" d="M355.51,-657.7C346.08,-618.85 326.54,-521.45 345,-442.87 358.71,-384.5 394.45,-323.39 416.24,-289.82"/>
<polygon fill="#c4fbfc" stroke="#c4fbfc" points="419.4,-291.38 421.98,-281.11 413.56,-287.53 419.4,-291.38"/>
</g>
<!-- onepage&#45;&gt;diary -->
<g id="edge6" class="edge">
<title>onepage&#45;&gt;diary</title>
<path fill="none" stroke="#2c56bd" d="M369.19,-657.74C388.44,-621.87 433.1,-538.63 455.97,-496.02"/>
<polygon fill="#2c56bd" stroke="#2c56bd" points="459.12,-497.55 460.76,-487.09 452.95,-494.24 459.12,-497.55"/>
</g>
<!-- onepage&#45;&gt;i18n -->
<g id="edge7" class="edge">
<title>onepage&#45;&gt;i18n</title>
<path fill="none" stroke="#d7afc5" d="M346.14,-657.52C323.12,-628.66 275.6,-568.91 236,-517.87 165.43,-426.92 148.42,-403.69 79,-311.87 73.49,-304.58 67.53,-296.65 62.08,-289.38"/>
<polygon fill="#d7afc5" stroke="#d7afc5" points="64.76,-287.12 55.97,-281.22 59.16,-291.32 64.76,-287.12"/>
</g>
<!-- provider_utils -->
<g id="node6" class="node">
<title>provider_utils</title>
<polygon fill="none" stroke="#f445c4" points="204,-280.87 88,-280.87 88,-244.87 204,-244.87 204,-280.87"/>
<text text-anchor="middle" x="146" y="-259.17" font-family="Times,serif" font-size="14.00">provider_utils</text>
</g>
<!-- onepage&#45;&gt;provider_utils -->
<g id="edge8" class="edge">
<title>onepage&#45;&gt;provider_utils</title>
<path fill="none" stroke="#f445c4" d="M351.08,-657.73C317.7,-593.62 200.05,-367.67 159.7,-290.18"/>
<polygon fill="#f445c4" stroke="#f445c4" points="162.68,-288.33 154.96,-281.08 156.47,-291.56 162.68,-288.33"/>
</g>
<!-- scroll_calendar -->
<g id="node7" class="node">
<title>scroll_calendar</title>
<polygon fill="none" stroke="#713e2e" points="801,-486.87 677,-486.87 677,-450.87 801,-450.87 801,-486.87"/>
<text text-anchor="middle" x="739" y="-465.17" font-family="Times,serif" font-size="14.00">scroll_calendar</text>
</g>
<!-- onepage&#45;&gt;scroll_calendar -->
<g id="edge9" class="edge">
<title>onepage&#45;&gt;scroll_calendar</title>
<path fill="none" stroke="#713e2e" d="M397.29,-657.69C456.02,-630.23 573.14,-573.82 668,-517.87 680.99,-510.2 694.83,-501.08 706.81,-492.86"/>
<polygon fill="#713e2e" stroke="#713e2e" points="708.94,-495.64 715.16,-487.06 704.95,-489.89 708.94,-495.64"/>
</g>
<!-- theme -->
<g id="node8" class="node">
<title>theme</title>
<polygon fill="none" stroke="#1214e6" points="284,-280.87 222,-280.87 222,-244.87 284,-244.87 284,-280.87"/>
<text text-anchor="middle" x="253" y="-259.17" font-family="Times,serif" font-size="14.00">theme</text>
</g>
<!-- onepage&#45;&gt;theme -->
<g id="edge10" class="edge">
<title>onepage&#45;&gt;theme</title>
<path fill="none" stroke="#1214e6" d="M353.45,-657.65C342.71,-628.97 321.14,-569.47 307,-517.87 284.61,-436.18 266,-337.6 257.68,-290.91"/>
<polygon fill="#1214e6" stroke="#1214e6" points="261.11,-290.21 255.93,-280.97 254.22,-291.43 261.11,-290.21"/>
</g>
<!-- update_requester -->
<g id="node9" class="node">
<title>update_requester</title>
<polygon fill="none" stroke="#a2aa60" points="658.5,-486.87 515.5,-486.87 515.5,-450.87 658.5,-450.87 658.5,-486.87"/>
<text text-anchor="middle" x="587" y="-465.17" font-family="Times,serif" font-size="14.00">update_requester</text>
</g>
<!-- onepage&#45;&gt;update_requester -->
<g id="edge11" class="edge">
<title>onepage&#45;&gt;update_requester</title>
<path fill="none" stroke="#a2aa60" d="M378.96,-657.74C419.36,-621.26 513.97,-535.82 560.38,-493.91"/>
<polygon fill="#a2aa60" stroke="#a2aa60" points="562.86,-496.39 567.93,-487.09 558.16,-491.19 562.86,-496.39"/>
</g>
<!-- onepage&#45;&gt;utils -->
<g id="edge12" class="edge">
<title>onepage&#45;&gt;utils</title>
<path fill="none" stroke="#f548cf" d="M398.61,-675.15C489.26,-673.45 715.38,-655.02 813,-517.87 934.84,-346.7 597.97,-159.85 484.11,-103.12"/>
<polygon fill="#f548cf" stroke="#f548cf" points="485.57,-99.94 475.06,-98.65 482.47,-106.22 485.57,-99.94"/>
</g>
<!-- widgets -->
<g id="node11" class="node">
<title>widgets</title>
<polygon fill="none" stroke="#3ed5a4" points="375.5,-280.87 302.5,-280.87 302.5,-244.87 375.5,-244.87 375.5,-280.87"/>
<text text-anchor="middle" x="339" y="-259.17" font-family="Times,serif" font-size="14.00">widgets</text>
</g>
<!-- onepage&#45;&gt;widgets -->
<g id="edge13" class="edge">
<title>onepage&#45;&gt;widgets</title>
<path fill="none" stroke="#3ed5a4" d="M353.39,-657.78C342.77,-629.31 322.34,-570.09 315,-517.87 303.42,-435.46 321.76,-337.21 332.34,-290.75"/>
<polygon fill="#3ed5a4" stroke="#3ed5a4" points="335.79,-291.41 334.66,-280.87 328.97,-289.81 335.79,-291.41"/>
</g>
<!-- provider_utils&#45;&gt;utils -->
<g id="edge14" class="edge">
<title>provider_utils&#45;&gt;utils</title>
<path fill="none" stroke="#f548cf" d="M175.23,-244.83C230.85,-212.42 351.72,-141.98 412.13,-106.77"/>
<polygon fill="#f548cf" stroke="#f548cf" points="414.06,-109.7 420.94,-101.64 410.54,-103.65 414.06,-109.7"/>
</g>
</g>
</svg>
